<?xml version="1.0" standalone="no"?>
<!DOCTYPE svg PUBLIC "-//W3C//DTD SVG 1.1//EN" "http://www.w3.org/Graphics/SVG/1.1/DTD/svg11.dtd" >
<svg xmlns="http://www.w3.org/2000/svg" xmlns:xlink="http://www.w3.org/1999/xlink" version="1.1">
<metadata>
Created by FontForge 20190801 at Tue Nov 10 00:59:44 2015
 By Jimmy Wärting
Copyright (c) 2009 by The Font Bureau, Inc.. All rights reserved.
</metadata>
<defs>
<font id="SVN-MillerBanner" horiz-adv-x="523" >
  <font-face 
    font-family="SVN-Miller Banner"
    font-weight="400"
    font-stretch="normal"
    units-per-em="1000"
    panose-1="2 0 5 3 8 0 0 2 0 3"
    ascent="764"
    descent="-236"
    x-height="452"
    cap-height="683"
    bbox="-146 -230 1166 1056"
    underline-thickness="20"
    underline-position="-133"
    unicode-range="U+0020-FB04"
  />
<missing-glyph horiz-adv-x="236" 
 />
    <glyph glyph-name="f_f" unicode="ff" horiz-adv-x="611" 
d="M33 7q14 1 23.5 2.5t20.5 4.5q14 5 20.5 16.5t6.5 28.5v377h-102v16h102v26q0 63 18.5 110.5t53.5 87.5q22 24 62.5 44t85.5 20q30 0 52 -5.5t38 -14.5t26 -21t15 -25q28 38 71.5 55.5t85.5 17.5q28 0 48 -7.5t33 -20t19 -28.5t6 -32q0 -17 -15 -34.5t-41 -17.5
q-20 0 -38 13t-18 39q0 12 1.5 20t4 14t4 12t1.5 14q-3 9 -12 12.5t-17 3.5q-48 0 -71.5 -49t-27.5 -164v-15t-0.5 -19t-0.5 -20v-16h122v-16h-122v-375q0 -35 27 -45q11 -5 26 -6.5t29 -2.5v-7h-239v7q14 1 21 2.5t18 4.5q14 5 20.5 16.5t6.5 28.5v377h-202v-375
q0 -35 27 -45q11 -5 21 -6.5t24 -2.5v-7h-234v7zM397 452v29q0 29 2.5 53.5t9.5 48.5q-23 0 -33.5 13.5t-10.5 30.5q0 12 3.5 22.5t8 18t8.5 13t5 8.5q-1 6 -5 13t-12.5 13t-22.5 10t-33 4q-22 0 -43.5 -11t-39 -36.5t-28.5 -66t-11 -99.5v-64h202z" />
    <glyph glyph-name="f_f_i" unicode="ffi" horiz-adv-x="871" 
d="M33 7q14 1 23.5 2.5t20.5 4.5q14 5 20.5 16.5t6.5 28.5v377h-102v16h102v26q0 63 18.5 110.5t53.5 87.5q22 24 62.5 44t85.5 20q30 0 52.5 -7t39 -17.5t27 -23.5t15.5 -26q11 16 28 30.5t38 25.5t45 18t50 7q43 0 73 -8.5t48.5 -23t26.5 -34t8 -40.5q0 -9 -3.5 -19
t-10.5 -18.5t-17.5 -14t-25.5 -5.5q-24 0 -39 14.5t-15 37.5q0 25 9 37.5t16 21.5q0 6 -3.5 13t-12 13.5t-23 11t-37.5 4.5t-45.5 -13.5t-40 -41.5t-28.5 -70.5t-11 -100.5v-59h161l124 8l4 -4v-394q0 -17 6.5 -29t20.5 -17q11 -5 20.5 -6.5t23.5 -2.5v-7h-230v7
q14 1 22 2.5t19 4.5q14 5 20.5 16.5t6.5 28.5v327q-2 15 -4.5 27t-9.5 23h-184v-375q0 -35 27 -45q11 -5 26 -6.5t29 -2.5v-7h-239v7q14 1 21 2.5t18 4.5q14 5 20.5 16.5t6.5 28.5v377h-202v-375q0 -35 27 -45q11 -5 21 -6.5t24 -2.5v-7h-234v7zM397 452v27q0 29 4 54.5
t11 49.5q-23 0 -35 13.5t-12 30.5q0 12 3.5 22.5t8 18t8.5 13t5 8.5q-1 6 -5 13t-12.5 13t-22.5 10t-33 4q-22 0 -43.5 -11t-39 -36.5t-28.5 -66t-11 -99.5v-64h202z" />
    <glyph glyph-name="f_f_l" unicode="ffl" horiz-adv-x="872" 
d="M33 7q14 1 23.5 2.5t20.5 4.5q14 5 20.5 16.5t6.5 28.5v377h-102v16h102v26q0 63 18.5 110.5t53.5 87.5q22 24 62.5 44t85.5 20q60 0 91 -21.5t42 -53.5q14 19 33 34.5t40.5 26t44 16t43.5 5.5q38 0 61.5 -7t42.5 -16l54 22l4 -4v-677q0 -34 27 -46q11 -5 20.5 -8
t23.5 -4v-7h-231v7q14 1 22.5 2.5t19.5 4.5q14 5 21 16.5t7 28.5v534q-11 3 -22.5 14t-11.5 32q0 12 4 21t9 15t9.5 10t5.5 6q-1 6 -3.5 13.5t-10 14.5t-21.5 12t-37 5t-45 -13.5t-39.5 -41.5t-28.5 -70t-11 -100v-59h126v-16h-126v-375q0 -35 27 -45q11 -5 23 -6.5t26 -2.5
v-7h-233v7q14 1 21 2.5t18 4.5q14 5 20.5 16.5t6.5 28.5v377h-202v-375q0 -35 27 -45q11 -5 21 -6.5t24 -2.5v-7h-234v7zM397 452v29q0 29 4 55t11 46q-23 0 -35 14t-12 31q0 12 3.5 22.5t8 18t8.5 13t5 8.5q-1 6 -5 13t-12.5 13t-22.5 10t-33 4q-22 0 -43.5 -11t-39 -36.5
t-28.5 -66t-11 -99.5v-64h202z" />
    <glyph glyph-name="f_j" unicode="fj" horiz-adv-x="568" 
d="M293 -226q-50 0 -74 20.5t-24 51.5q0 17 14.5 33.5t38.5 16.5q20 0 37 -10.5t17 -35.5q0 -14 -5.5 -33t-5.5 -30q2 -1 11 -1.5t11 -0.5q23 0 38.5 12t25.5 37.5t14 66t4 98.5v378q0 17 -8.5 34t-22.5 25h-169v-372q0 -35 27 -45q11 -5 24 -8t27 -4v-7h-240v7
q14 1 23.5 2.5t20.5 4.5q14 5 20.5 16.5t6.5 28.5v377h-102v16h102v31q0 63 19.5 112t55.5 88q22 23 60.5 43.5t86.5 20.5q43 0 73 -8.5t48.5 -23t26.5 -34t8 -40.5q0 -9 -3.5 -19t-10.5 -18.5t-17.5 -14t-25.5 -5.5q-24 0 -39 14.5t-15 37.5q0 25 9 37.5t16 21.5
q0 6 -3.5 13t-12 13.5t-23 11t-37.5 4.5t-45.5 -13.5t-40 -41.5t-28.5 -70.5t-11 -100.5v-59h163l124 8l4 -4v-415q0 -63 -13 -115t-50 -90q-31 -32 -61 -47t-69 -15z" />
    <glyph glyph-name="f_i" unicode="fi" horiz-adv-x="578" 
d="M33 7q14 1 23.5 2.5t20.5 4.5q14 5 20.5 16.5t6.5 28.5v377h-102v16h102v29q0 63 19.5 113t55.5 89q22 23 60.5 43.5t86.5 20.5q43 0 73 -8.5t48.5 -23t26.5 -34t8 -40.5q0 -9 -3.5 -19t-10.5 -18.5t-17.5 -14t-25.5 -5.5q-24 0 -39 14.5t-15 37.5q0 25 9 37.5t16 21.5
q0 6 -3.5 13t-12 13.5t-23 11t-37.5 4.5t-45.5 -13.5t-40 -41.5t-28.5 -70.5t-11 -100.5v-59h161l124 8l4 -4v-394q0 -17 6.5 -29t20.5 -17q11 -5 20.5 -6.5t23.5 -2.5v-7h-230v7q14 1 22 2.5t19 4.5q14 5 20.5 16.5t6.5 28.5v327q-2 15 -4.5 27t-9.5 23h-184v-372
q0 -35 27 -45q11 -5 23.5 -8t26.5 -4v-7h-239v7z" />
    <glyph glyph-name="f_l" unicode="fl" horiz-adv-x="579" 
d="M33 7q14 1 23.5 2.5t20.5 4.5q14 5 20.5 16.5t6.5 28.5v377h-102v16h102v31q0 63 19.5 112t55.5 88q22 23 60 43.5t86 20.5q38 0 61.5 -7t42.5 -16l54 22l4 -4v-677q0 -34 27 -46q11 -5 20.5 -8t23.5 -4v-7h-231v7q14 1 22.5 2.5t19.5 4.5q14 5 21 16.5t7 28.5v534
q-11 3 -22.5 14t-11.5 32q0 12 4 21t9 15t9.5 10t5.5 6q-1 6 -3.5 13.5t-10 14.5t-21.5 12t-37 5t-45 -13.5t-39.5 -41.5t-28.5 -70t-11 -100v-59h126v-16h-126v-372q0 -35 27 -45q11 -5 23.5 -8t26.5 -4v-7h-239v7z" />
    <glyph glyph-name="f_t" unicode="ft" horiz-adv-x="647" 
d="M195 436v-372q0 -16 6.5 -28t20.5 -17q11 -5 31 -8t34 -4v-7h-254v7q14 1 23.5 2.5t20.5 4.5q14 5 20.5 16.5t6.5 28.5v377h-102v16h102v29q0 63 15.5 114.5t52.5 90.5q31 33 70 47t77 14q28 0 48 -7.5t33 -20t19 -28.5t6 -32q0 -17 -15 -34.5t-41 -17.5q-20 0 -38 13
t-18 39q0 12 1.5 20t4 14t4 12t1.5 14q-3 9 -12 12.5t-17 3.5q-48 0 -71.5 -49t-27.5 -164v-15t-0.5 -19t-0.5 -20v-16h204v149h87v-149h137v-16h-136v-296q0 -21 3.5 -39.5t12 -32t23.5 -21.5t38 -8q17 0 29.5 8t21.5 20.5t14.5 27.5t7.5 29h10q-3 -27 -13 -51.5
t-26.5 -42.5t-39 -29t-50.5 -11q-62 0 -91.5 35.5t-29.5 102.5v308h-202z" />
    <glyph glyph-name=".notdef" horiz-adv-x="236" 
 />
    <glyph glyph-name="NUL" horiz-adv-x="0" 
 />
    <glyph glyph-name="nonmarkingreturn" horiz-adv-x="236" 
 />
    <glyph glyph-name="space" unicode=" " horiz-adv-x="236" 
 />
    <glyph glyph-name="quotesingle" unicode="'" horiz-adv-x="196" 
d="M92 472q-6 37 -14 70.5t-16 61t-13.5 47.5t-5.5 31q0 23 14 39t41 16t41 -16t14 -39q0 -10 -5.5 -30t-13.5 -48t-17 -61.5t-15 -70.5h-10v0z" />
    <glyph glyph-name="parenleft" unicode="(" horiz-adv-x="335" 
d="M290 -160q-44 33 -87.5 74.5t-78 96t-56.5 124.5t-22 160q0 87 21 155.5t55 123t77.5 97t89.5 77.5l23 -15q-48 -37 -90.5 -79t-74.5 -94.5t-50.5 -117.5t-18.5 -147q0 -84 20 -151t53 -120t75.5 -94t87.5 -74l-24 -16v0z" />
    <glyph glyph-name="parenright" unicode=")" horiz-adv-x="335" 
d="M21 -144q45 33 87.5 74t75.5 94t53 120t20 151q0 82 -18.5 147t-50.5 117.5t-74.5 94.5t-90.5 79l23 15q46 -35 89.5 -77.5t77.5 -97t55 -123t21 -155.5q0 -90 -22 -160t-56.5 -124.5t-78.5 -96t-87 -74.5z" />
    <glyph glyph-name="comma" unicode="," horiz-adv-x="250" 
d="M52 -157q42 25 71 66.5t34 92.5h-37q-39 0 -54 20t-15 43q0 21 16.5 40t45.5 19q45 0 64.5 -29t19.5 -77q0 -35 -15.5 -64.5t-37 -53t-45.5 -40.5t-42 -27z" />
    <glyph glyph-name="hyphen" unicode="-" horiz-adv-x="373" 
d="M30 288h313v-69h-313v69z" />
    <glyph glyph-name="hyphen" unicode="&#xad;" horiz-adv-x="373" 
d="M30 288h313v-69h-313v69z" />
    <glyph glyph-name="period" unicode="." horiz-adv-x="250" 
d="M126 -9q-28 0 -47.5 19t-19.5 47t19.5 47.5t47.5 19.5t47.5 -19.5t19.5 -47.5t-19.5 -47t-47.5 -19z" />
    <glyph glyph-name="zero" unicode="0" horiz-adv-x="614" 
d="M302 -14q-62 0 -109 24.5t-78.5 66t-48 96.5t-16.5 116q0 77 22 138.5t58 104t83.5 65.5t98.5 23q61 0 108 -24.5t79 -65.5t48.5 -96.5t16.5 -116.5q0 -77 -21.5 -138t-57.5 -104t-83.5 -66t-99.5 -23zM305 -5q35 0 63 23t47.5 64t30 97.5t10.5 124.5q0 60 -7.5 115.5
t-24.5 98t-45 68t-70 25.5q-35 0 -63 -23t-47.5 -64t-30 -98t-10.5 -124q0 -62 7.5 -118t24.5 -98t45.5 -66.5t69.5 -24.5z" />
    <glyph glyph-name="one" unicode="1" horiz-adv-x="427" 
d="M78 7q14 1 36 4t40 8q33 9 33 44v493l-130 -8v8q39 5 63.5 9.5t52.5 10.5q40 9 64.5 17.5t46.5 22.5h8q-6 -34 -7.5 -73.5t-1.5 -84.5v-390q0 -20 7.5 -31t21.5 -17q6 -3 16 -5t21 -3.5t21.5 -3t16.5 -1.5v-7h-309v7z" />
    <glyph glyph-name="two" unicode="2" horiz-adv-x="557" 
d="M53 25q45 34 79.5 62t63 53t52.5 49t50 51q33 35 55 66t35 60.5t18.5 59t5.5 61.5q0 60 -26 91.5t-76 31.5q-42 0 -73.5 -20.5t-52 -51t-31 -65.5t-10.5 -64q0 -14 2.5 -27.5t8.5 -24.5t16.5 -18t27.5 -7q20 0 35 6t26.5 15t20 19.5t15.5 19.5l6 -5q-23 -38 -59 -62
t-84 -24q-17 0 -34 5.5t-30.5 17.5t-21.5 30.5t-8 44.5q0 34 19 73t54 72t83.5 54.5t108.5 21.5q81 0 130.5 -40.5t49.5 -115.5q0 -52 -20 -96t-61.5 -86t-104.5 -84.5t-149 -91.5l-29 -25h269q19 0 35 8.5t28.5 22t22.5 30t18 32.5l9 -3l-59 -171h-415v25z" />
    <glyph glyph-name="three" unicode="3" horiz-adv-x="565" 
d="M216 -26q-33 0 -66.5 8.5t-60.5 26t-43.5 43t-16.5 59.5q0 20 6.5 35.5t17 26t24 15.5t26.5 5q22 0 36.5 -12t14.5 -37q0 -16 -8.5 -25t-19 -16.5t-19 -16t-8.5 -21.5q0 -32 29.5 -57t87.5 -25q33 0 65.5 18t59 48.5t43 70t16.5 81.5q0 53 -17 85t-58 32q-14 0 -29 -6.5
t-29 -16t-27.5 -21.5t-25.5 -22l-14 16q40 28 75.5 52.5t61.5 50.5t41.5 56t15.5 70q0 22 -4.5 42.5t-15.5 36.5t-28.5 25t-44.5 9q-23 0 -47 -10.5t-44 -29t-33 -45t-13 -59.5q0 -23 10 -41.5t39 -18.5q19 0 38.5 11.5t29.5 20.5l4 -5q-8 -9 -21.5 -20.5t-28.5 -21.5
t-29.5 -16.5t-26.5 -6.5q-47 0 -69.5 22.5t-22.5 53.5q0 34 20 66t53 56.5t76.5 39t91.5 14.5t80.5 -14.5t52 -35.5t27.5 -44t8 -39q0 -19 -8.5 -41t-29 -42t-54 -37t-82.5 -26l-18 -15q2 0 9.5 1t16.5 1.5t16.5 1t10.5 0.5q24 0 49.5 -6t47.5 -21.5t36 -42t14 -66.5
q0 -52 -22 -92.5t-61 -69t-91.5 -43.5t-113.5 -15z" />
    <glyph glyph-name="four" unicode="4" horiz-adv-x="569" 
d="M192 7q14 1 36 2.5t32 5.5q14 5 21 17t7 29v150h-264v8l340 410h17v-397h27q26 0 43.5 2.5t28.5 10.5q14 11 21 34t8 42h7v-204h-7q-1 22 -8 46.5t-22 36.5q-10 8 -27.5 9.5t-41.5 1.5h-29v-144q0 -17 6.5 -29.5t20.5 -18.5q12 -5 32.5 -8t34.5 -4v-7h-283v7zM288 232
v277l-231 -277h231z" />
    <glyph glyph-name="five" unicode="5" horiz-adv-x="522" 
d="M220 -14q-43 0 -77.5 9.5t-58.5 25.5t-36.5 38t-12.5 46q0 19 6.5 31.5t16.5 20t21 10t19 2.5q21 0 33 -13t12 -33q0 -11 -3.5 -19.5t-8 -16t-8 -16.5t-3.5 -22q2 -10 8 -20t17.5 -17.5t29.5 -12.5t44 -5q39 0 66 21.5t43.5 55.5t24 76t7.5 84q0 69 -32.5 105t-83.5 36
q-18 0 -39 -5.5t-40.5 -17t-36 -28.5t-26.5 -41l-13 3l76 334h10q11 -12 49 -25.5t97 -13.5q53 0 89 10t69 36l4 -4q-23 -45 -60.5 -71t-77 -40t-73 -18t-47.5 -4h-21t-23 0.5t-19.5 1t-10.5 0.5l-40 -166q25 23 60 42t91 19q39 0 75 -11t64 -34.5t45 -60t17 -88.5
q0 -46 -21 -83.5t-55 -64.5t-77.5 -41.5t-89.5 -14.5z" />
    <glyph glyph-name="six" unicode="6" horiz-adv-x="566" 
d="M272 -14q-44 0 -83 19t-68 55.5t-46 89.5t-17 121q0 90 29.5 168.5t78 136t109.5 91t124 33.5q38 0 63 -10.5t40 -26t21 -33t6 -30.5q0 -26 -11 -41t-40 -15q-17 0 -26.5 8.5t-15 22t-9.5 30t-10 33.5q-11 28 -23.5 37t-35.5 9q-33 0 -64.5 -26.5t-58 -73t-46 -111
t-29.5 -140.5l6 -2q56 93 165 93q33 0 65 -14.5t57.5 -41.5t41 -65.5t15.5 -85.5q0 -36 -11.5 -76.5t-39 -75t-73 -57t-114.5 -22.5zM275 -5q41 0 66 23.5t39 57.5t18.5 73t4.5 69q0 40 -6.5 74t-20.5 58.5t-36.5 38.5t-53.5 14q-24 0 -47.5 -13t-41.5 -38.5t-29.5 -64
t-11.5 -90.5q0 -92 32 -147t87 -55z" />
    <glyph glyph-name="seven" unicode="7" horiz-adv-x="506" 
d="M212 -120q-25 0 -38 15t-13 55q0 18 10.5 50t28 71t39 81.5t43.5 81.5q22 38 40.5 70.5t38 64t41 64.5t50.5 73h-294q-25 0 -44 -12t-32 -30t-21 -38t-11 -35l-10 3l60 257h8l8 -56h402v-9q-30 -43 -52.5 -78.5t-41.5 -70.5t-36.5 -73t-35.5 -86q-14 -37 -26.5 -71.5
t-22 -71.5t-16 -78t-9.5 -91q-2 -34 -17 -60t-49 -26z" />
    <glyph glyph-name="eight" unicode="8" horiz-adv-x="538" 
d="M249 -15q-44 0 -81 12t-63 32t-40.5 47.5t-14.5 59.5q0 30 14 55t35 45.5t46.5 35t48.5 23.5q-32 14 -55 29t-38 32.5t-22.5 40t-7.5 51.5q0 39 18 71.5t47 56t65.5 37t74.5 13.5q88 0 137.5 -40.5t49.5 -106.5q0 -15 -6.5 -33t-21 -36.5t-38.5 -37t-60 -33.5
q24 -9 50.5 -21.5t49 -31t37 -44.5t14.5 -63q0 -45 -21 -81t-55 -61t-77 -38.5t-86 -13.5zM258 -4q30 0 56 11t45.5 30t30.5 45t11 56q0 23 -9 41.5t-24 33.5t-35 26.5t-42 20.5q-20 8 -41.5 16t-42.5 14q-37 -20 -60.5 -62t-23.5 -93q0 -25 7 -49.5t22.5 -44.5t41.5 -32.5
t64 -12.5zM324 345q21 8 35 23.5t23 35t13 42t4 46.5t-7.5 46.5t-22.5 40t-38 27.5t-54 10t-54 -11t-38.5 -28.5t-23 -39.5t-7.5 -44q0 -38 19 -66t57 -48q19 -11 42 -18.5t52 -15.5z" />
    <glyph glyph-name="nine" unicode="9" horiz-adv-x="566" 
d="M159 -102q-35 0 -60 10t-41.5 25t-24.5 33t-8 34q0 58 54 58q18 0 27.5 -11t14.5 -27t7.5 -32.5t7.5 -28.5q12 -29 27.5 -38t36.5 -9q43 0 78.5 31t62 82t43.5 115t23 130l-7 1q-11 -15 -26.5 -31t-35.5 -29t-45 -21t-55 -8q-35 0 -67 13.5t-57.5 39.5t-40.5 65t-15 89
q0 40 14 81.5t42 74.5t70 54t98 21q40 0 80 -14t72.5 -48t52.5 -91t20 -142q0 -82 -23.5 -159t-68.5 -136.5t-109.5 -95.5t-146.5 -36zM282 209q21 0 44 9t42 31t31.5 58.5t12.5 91.5q0 49 -10 88.5t-27.5 66.5t-41.5 41.5t-51 14.5q-38 0 -61.5 -20.5t-36.5 -50.5
t-17 -65.5t-4 -65.5q0 -93 28 -146t91 -53z" />
    <glyph glyph-name="colon" unicode=":" horiz-adv-x="279" 
d="M139 -8q-27 0 -46 18.5t-19 46.5q0 27 19 46.5t46 19.5t46.5 -19.5t19.5 -46.5q0 -28 -19.5 -46.5t-46.5 -18.5zM139 323q-27 0 -46 19t-19 46q0 28 19 47t46 19t46.5 -19t19.5 -47q0 -27 -19.5 -46t-46.5 -19z" />
    <glyph glyph-name="semicolon" unicode=";" horiz-adv-x="279" 
d="M70 -161q43 25 69.5 68.5t29.5 95.5h-32q-38 0 -52.5 19.5t-14.5 42.5q0 20 16 39t45 19q43 0 62.5 -28.5t19.5 -74.5q0 -36 -15.5 -66.5t-38 -54.5t-46.5 -40.5t-40 -25.5zM139 323q-27 0 -46 19t-19 46q0 28 19 47t46 19t46.5 -19t19.5 -47q0 -27 -19.5 -46t-46.5 -19z
" />
    <glyph glyph-name="question" unicode="?" horiz-adv-x="482" 
d="M178 366q37 5 66.5 14.5t50.5 27t32 44t11 65.5q0 47 -9.5 79.5t-25.5 53t-38 29.5t-47 9q-20 0 -41 -8t-30 -19q1 -8 3 -14t4.5 -13t4 -17t1.5 -25q0 -13 -6 -23t-15 -16.5t-18.5 -9.5t-16.5 -3q-26 0 -38.5 16.5t-12.5 40.5q0 19 11.5 37t33 32.5t52.5 23.5t70 9
q53 0 92.5 -15t66 -42t40 -63.5t13.5 -79.5q0 -42 -16.5 -79t-47.5 -65t-75 -46t-99 -22l-6 -107h-10v186zM185 -12q-28 0 -47.5 19t-19.5 47t19.5 47.5t47.5 19.5t47.5 -19.5t19.5 -47.5t-19.5 -47t-47.5 -19z" />
    <glyph glyph-name="A" unicode="A" horiz-adv-x="680" 
d="M-24 7q14 1 31.5 5t31.5 12q18 11 32 32.5t25 47.5q27 64 56.5 137.5t60 150t61 153.5t59.5 149h18q38 -97 77 -193t73.5 -179t61 -148t40.5 -100q6 -15 14.5 -28.5t26.5 -24.5q14 -8 30.5 -10.5t30.5 -3.5v-7h-315v7q13 1 30.5 3t33.5 6t28 10t14 15q2 7 0 14.5t-4 13.5
l-71 183h-248q-7 -17 -14.5 -37t-14.5 -39.5t-12.5 -36.5t-8.5 -28q-5 -17 -9.5 -33t-4.5 -27q0 -14 14 -22t33.5 -12.5t40.5 -6.5t34 -3v-7h-255v7zM415 266l-119 301l-118 -301h237z" />
    <glyph glyph-name="B" unicode="B" horiz-adv-x="667" 
d="M43 7q7 0 17.5 1.5t21.5 3.5t20.5 4t14.5 4q18 7 24.5 19t6.5 29v541q0 17 -6.5 30.5t-24.5 21.5q-16 7 -36 10.5t-34 4.5v7h342q28 0 62 -6.5t64 -22t50 -42t20 -66.5q0 -42 -14.5 -71.5t-39 -49.5t-58 -32.5t-71.5 -20.5v-9q31 -2 69 -12t71.5 -31.5t56 -55.5t22.5 -83
q0 -48 -22.5 -82.5t-57 -56t-74.5 -32t-76 -10.5h-348v7zM348 12q45 0 74 18t46 46t23.5 61.5t6.5 63.5t-10.5 58t-30.5 49.5t-49.5 34.5t-68.5 13h-18.5t-24.5 -0.5t-24.5 -1t-18.5 -0.5v-281q5 -34 24.5 -47.5t70.5 -13.5zM316 368q41 0 69.5 13t46 35t25.5 50.5t8 60.5
q0 37 -11.5 64t-30 45t-41.5 26.5t-46 8.5h-16.5h-22.5t-23.5 -0.5t-20.5 -0.5v-302h63z" />
    <glyph glyph-name="C" unicode="C" horiz-adv-x="653" 
d="M368 -15q-74 0 -135 24.5t-104.5 70t-67.5 109.5t-24 144q0 77 26.5 143.5t74 115t112 76.5t139.5 28q64 0 108 -18t67 -39l38 54h9l4 -247h-9q-14 43 -35 85.5t-51 76t-69 54t-87 20.5q-46 0 -84 -21.5t-65.5 -64t-42.5 -106.5t-15 -149q0 -68 16.5 -126.5t47.5 -101
t75.5 -67t100.5 -24.5q46 0 82.5 12.5t65 33.5t49.5 49.5t36 61.5l11 -6q-15 -35 -38.5 -68.5t-56.5 -60t-77 -43t-101 -16.5z" />
    <glyph glyph-name="D" unicode="D" horiz-adv-x="779" 
d="M43 7q7 0 18 1t21.5 2.5t20 3t14.5 3.5q18 7 24.5 19.5t6.5 29.5v543q0 17 -6.5 31.5t-24.5 22.5t-37 10t-33 3v7h322q34 0 75 -6.5t82.5 -22t80.5 -41.5t69 -64.5t48 -91t18 -120.5q0 -87 -34.5 -151t-90 -105t-126 -61t-142.5 -20h-306v7zM363 12q66 0 114 24
t79.5 67.5t47 103.5t15.5 131q0 72 -20 133t-56 106t-87.5 70t-114.5 25h-20.5t-23.5 -0.5t-23.5 -1t-19.5 -0.5v-581q5 -37 28 -57t81 -20z" />
    <glyph glyph-name="E" unicode="E" horiz-adv-x="666" 
d="M38 7q7 0 18 1.5t22.5 3t22 3.5t16.5 4q18 7 24.5 19.5t6.5 29.5v541q0 17 -6 30.5t-25 21.5q-7 3 -18 5.5t-22 4.5t-21.5 3.5t-17.5 1.5v7h551v-155h-9q-4 16 -16 39.5t-28 45t-34 37.5t-34 18q-18 2 -47.5 3t-53.5 1h-113v-312h100q21 0 35 3.5t23.5 8t15 10l10.5 10.5
q6 6 11.5 18.5t11 27t9 29t4.5 24.5h9v-279h-9q-1 11 -5 26.5t-9.5 31.5t-11.5 28.5t-10 17.5l-11 11t-15.5 10.5t-23.5 7.5t-34 3h-100v-245q0 -31 4.5 -49t17 -27.5t36 -12t61.5 -2.5h52.5t49.5 2t41 7t27 14q11 12 25.5 33.5t27.5 45.5t23.5 45.5t14.5 32.5h9l-13 -192
h-592v7z" />
    <glyph glyph-name="F" unicode="F" horiz-adv-x="612" 
d="M38 7q7 0 18 1t23 2.5t22.5 3t15.5 3.5q18 7 24.5 19.5t6.5 29.5v543q0 17 -6 30.5t-25 21.5q-7 3 -18 5.5t-22 4.5t-21.5 3.5t-17.5 1.5v7h558v-162h-9q-5 16 -18.5 40.5t-30.5 47.5t-36 40t-35 19q-18 2 -46 3t-52 1h-115v-314h101q38 0 58.5 11t30.5 20q5 5 11 16
t11 24.5t8.5 29t5.5 29.5h10v-281h-10q-1 11 -4.5 27t-9 32t-11.5 29.5t-11 18.5q-10 10 -32 21t-57 11h-101v-279q0 -17 7 -29t24 -20q4 -2 14 -4t21.5 -3.5t22.5 -2.5t18 -1v-7h-323v7z" />
    <glyph glyph-name="G" unicode="G" horiz-adv-x="746" 
d="M590 39q-59 -23 -121 -38.5t-125 -15.5q-55 0 -109.5 22t-98.5 65t-71.5 107t-27.5 147q0 78 28.5 145.5t79 117.5t119.5 78.5t150 28.5q30 0 58.5 -5.5t53.5 -14t44 -19.5t31 -21l35 57h9l5 -240h-8q-13 41 -36 81.5t-55.5 73t-75 53t-94.5 20.5q-53 0 -94 -23.5
t-69.5 -68.5t-43.5 -109.5t-15 -146.5q0 -69 14.5 -129.5t43 -105t70 -70.5t96.5 -26q45 0 76 10.5t51.5 28.5t30.5 40.5t13 46.5v91q0 20 -6.5 35.5t-26.5 23.5q-9 3 -23 6t-28.5 5t-27.5 3.5t-20 1.5v8h331v-8q-14 -2 -35.5 -5t-35.5 -9q-18 -8 -24 -21.5t-6 -30.5v-247
l-7 -3z" />
    <glyph glyph-name="H" unicode="H" horiz-adv-x="853" 
d="M47 7q14 1 37 3.5t33 6.5q18 7 24.5 19.5t6.5 29.5v543q0 17 -6.5 30.5t-24.5 21.5q-13 5 -34.5 9.5t-35.5 5.5v7h310v-7q-14 -1 -36 -4.5t-36 -8.5q-19 -6 -25 -19t-6 -30v-252h345v247q0 17 -7 30.5t-24 21.5q-13 5 -35.5 9.5t-36.5 5.5v7h310v-7q-14 -1 -35 -4.5
t-35 -8.5q-19 -6 -25 -19t-6 -30v-543q0 -17 7 -30.5t24 -21.5q4 -2 13 -4t19.5 -3.5t20.5 -3t17 -1.5v-7h-310v7q7 0 17 1t20.5 2.5t20 3t14.5 3.5q18 7 24.5 19.5t6.5 29.5v282h-345v-277q0 -17 7 -30.5t24 -21.5q4 -2 13.5 -4t20 -3.5l21 -3t17.5 -1.5v-7h-310v7z" />
    <glyph glyph-name="I" unicode="I" horiz-adv-x="406" 
d="M46 7q7 0 17.5 1t21 2.5t20 3t14.5 3.5q18 7 24.5 19.5t6.5 29.5v543q0 17 -6.5 30.5t-24.5 21.5q-13 5 -36 9.5t-37 5.5v7h314v-7q-14 -1 -36.5 -4.5t-36.5 -8.5q-19 -6 -25 -19t-6 -30v-543q0 -17 7 -30.5t24 -21.5q4 -2 13.5 -4t20.5 -3.5t21.5 -3t17.5 -1.5v-7h-314
v7z" />
    <glyph glyph-name="J" unicode="J" horiz-adv-x="494" 
d="M138 -17q-40 0 -66.5 9t-42.5 23t-22.5 30.5t-6.5 31.5q0 29 19 50.5t50 21.5t48 -18.5t17 -45.5q0 -30 -17 -48t-44 -28v-5q8 -4 24 -6.5t24 -2.5q50 0 77 16t40 43.5t15 66t2 83.5v408q0 17 -6.5 29t-24.5 20q-17 8 -41.5 11t-39.5 4v7h325v-7q-14 -1 -38 -4.5
t-38 -8.5q-19 -6 -25 -19t-6 -30v-428q0 -27 -14 -62t-42 -66.5t-70 -53t-97 -21.5z" />
    <glyph glyph-name="K" unicode="K" horiz-adv-x="738" 
d="M47 7q14 1 37 3.5t33 6.5q18 7 24.5 19.5t6.5 29.5v543q0 17 -6.5 30t-24.5 21q-13 5 -34.5 10t-35.5 6v7h310v-7q-14 -1 -36 -4.5t-36 -8.5q-19 -6 -25 -19t-6 -30v-264h11q49 39 98 82.5t89 83.5t65 73t25 51q0 11 -12 18t-28 11t-31.5 5.5t-22.5 1.5v7h264v-7
q-7 0 -22 -1t-33.5 -5.5t-39.5 -14t-39 -28.5q-32 -33 -59.5 -61.5t-55 -55.5t-56 -53.5t-61.5 -54.5q78 -81 142.5 -158t127.5 -156q14 -17 34 -35.5t49 -31.5q14 -6 36 -9.5t36 -4.5v-7h-366v7q15 1 32 2.5t31.5 6t23.5 13t9 22.5q0 9 -13 30t-33.5 48t-46 57.5t-51 59.5
t-49 53.5t-38.5 40.5h-16v-269q0 -17 7 -29t24 -20q4 -2 13.5 -4.5t20 -4.5l21 -4t17.5 -2v-7h-310v7z" />
    <glyph glyph-name="L" unicode="L" horiz-adv-x="629" 
d="M44 7q7 0 17 1.5t20.5 3t20 3.5t15.5 4q18 7 24.5 19.5t6.5 29.5v543q0 17 -6 29.5t-25 20.5q-14 6 -36 10t-36 5v7h313v-7q-14 -1 -36.5 -3t-36.5 -7q-19 -6 -25 -19.5t-6 -30.5v-513q0 -31 4.5 -49t17 -27.5t36 -12t61.5 -2.5h50.5t45 2t36 7t24.5 14q11 12 25.5 34
t27.5 46t23.5 46t14.5 33h9l-13 -194h-572v7z" />
    <glyph glyph-name="M" unicode="M" horiz-adv-x="959" 
d="M18 7q6 1 18 2t25.5 3t27 6t22.5 10q18 13 25.5 42.5t7.5 87.5v408q0 60 -31 85q-18 14 -44 19t-46 6v7h219l248 -524l185 439q12 28 17 52.5t6 32.5h218v-7q-14 -1 -37 -4.5t-37 -8.5q-19 -6 -25 -19t-6 -30v-543q0 -17 7 -29t24 -20q4 -2 14 -4.5t21 -5t22 -4t18 -1.5
v-7h-330v7q7 0 19.5 1.5t25.5 3t25 3.5t17 5q32 17 32 51v562l-263 -622h-11q-9 29 -24 68t-29 71l-221 472v-464q0 -57 8.5 -86t25.5 -43q6 -5 20.5 -9t30.5 -7t30.5 -4.5t21.5 -1.5v-7h-277v7z" />
    <glyph glyph-name="N" unicode="N" horiz-adv-x="776" 
d="M158 585v-409q0 -65 8.5 -96t25.5 -43q8 -6 22.5 -11.5t30 -9.5t29.5 -6.5t21 -2.5v-7h-277v7q7 0 20.5 3t27.5 7t27 8.5t18 8.5q18 14 25.5 46t7.5 91v392q0 22 -11 48t-26 38q-9 7 -22.5 12t-27.5 8t-28 5t-24 2v7h206l431 -529v348q0 54 -8.5 94.5t-25.5 54.5
q-9 7 -23 11.5t-28.5 7.5t-28 4.5t-22.5 1.5v7h275v-7q-7 0 -19 -2t-25.5 -5t-26.5 -7t-21 -10q-10 -7 -16.5 -22t-10 -35t-5 -44t-1.5 -49v-509h-17z" />
    <glyph glyph-name="O" unicode="O" horiz-adv-x="775" 
d="M384 -16q-69 0 -129.5 24t-109.5 70q-50 47 -78.5 110.5t-28.5 145.5q0 164 97 261q51 52 115.5 78t137.5 26q71 0 134 -24.5t120 -79.5q45 -45 70 -110t25 -139q0 -78 -24 -145.5t-80 -120.5q-48 -46 -109.5 -71t-139.5 -25zM388 -4q58 0 101 26.5t71 73.5t42 110
t14 137q0 65 -12.5 127t-39.5 110t-70.5 77.5t-105.5 29.5q-53 0 -95.5 -24t-72 -69t-45.5 -109.5t-16 -145.5q0 -71 14 -133t42 -109t71 -74t102 -27z" />
    <glyph glyph-name="P" unicode="P" horiz-adv-x="621" 
d="M45 7q7 0 17 1t20.5 2.5t20 3.5t14.5 4q18 7 24.5 20t6.5 30v543q0 17 -6 31t-25 20t-40.5 9.5t-35.5 4.5v7h335q44 0 83 -11t68 -31.5t46 -50.5t17 -69q0 -51 -22 -90t-58.5 -65t-83 -39.5t-94.5 -13.5h-78v-245q0 -17 6.5 -30t24.5 -20q10 -4 35 -7t44 -4v-7h-319v7z
M303 325q54 0 86 20t49.5 48t22.5 56.5t5 46.5q0 28 -6.5 59t-23 56.5t-44 42t-70.5 16.5h-68v-345h49z" />
    <glyph glyph-name="Q" unicode="Q" horiz-adv-x="783" 
d="M649 -147q-28 0 -56.5 7t-53.5 24t-45.5 44.5t-31.5 69.5q-20 -6 -40 -9t-38 -3q-69 0 -129.5 23t-109.5 69q-50 47 -78.5 110.5t-28.5 145.5q0 164 97 261q51 52 115.5 78t137.5 26q71 0 134 -24.5t120 -79.5q45 -45 70 -110t25 -139q0 -94 -41 -170t-132 -130
q8 -38 26 -63t40 -40t46.5 -21.5t46.5 -6.5q21 0 40 7t35.5 17.5t30 23.5t21.5 26l7 -5q-10 -15 -30 -37.5t-47 -43.5t-60.5 -35.5t-70.5 -14.5zM554 71q35 43 48.5 115t13.5 157q0 64 -12.5 125.5t-39.5 110t-70.5 78.5t-105.5 30q-53 0 -95.5 -24.5t-72 -69.5
t-45.5 -109.5t-16 -144.5q0 -73 14.5 -139.5t48.5 -111.5q13 34 31.5 57.5t40.5 38.5t45.5 21.5t46.5 6.5q27 0 53.5 -10t48.5 -28.5t39.5 -44.5t26.5 -58zM388 0q18 0 37.5 3t33.5 6q-8 54 -17.5 88.5t-22.5 55t-30 28.5t-40 8q-12 0 -28 -6t-32.5 -19t-32 -34t-26.5 -52
q32 -37 72 -57.5t86 -20.5z" />
    <glyph glyph-name="R" unicode="R" horiz-adv-x="737" 
d="M607 -11q-60 0 -90 42t-41 127q-4 30 -10.5 62t-21.5 59t-41.5 44.5t-69.5 17.5h-79v-273q0 -17 6.5 -30t24.5 -20q5 -2 14.5 -4t20 -3.5t21 -2.5t17.5 -1v-7h-313v7q7 0 17 1t20.5 2.5t20 3.5t14.5 4q18 7 24.5 20t6.5 30v544q0 17 -6 30.5t-25 19.5q-14 5 -36 9t-36 5
v7h349q38 0 76 -8.5t69 -27.5t50 -48t19 -70t-19 -70.5t-48 -50.5t-63.5 -33.5t-64.5 -19.5v-10q24 -3 49 -9t47 -18t39 -31t25 -46q11 -42 18.5 -82.5t17.5 -77.5q4 -17 10.5 -26.5t13.5 -14t14 -5.5t13 -1q27 0 45.5 26t18.5 77v15h13v-15q0 -70 -32.5 -109t-97.5 -39z
M316 355q33 0 63.5 8t54 26t37.5 47.5t14 72.5t-11.5 73.5t-31.5 50t-46 28.5t-54 9h-88v-315h62z" />
    <glyph glyph-name="S" unicode="S" horiz-adv-x="547" 
d="M284 -13q-33 0 -62.5 5t-54 13.5t-43 18t-29.5 18.5l-35 -52h-9l-7 234h9q18 -47 39 -87.5t49 -71t63 -48t82 -17.5q37 0 63.5 12t43 31.5t24.5 45.5t8 54q0 46 -27.5 79.5t-72.5 51.5q-21 9 -38.5 15.5t-33.5 13t-33 14t-38 16.5q-58 26 -88 68.5t-30 109.5
q0 40 15 73.5t42 58.5t63.5 39t79.5 14q54 0 98.5 -16.5t70.5 -36.5l35 50h8l5 -227h-9q-12 41 -29.5 80t-42.5 69.5t-59.5 49t-80.5 18.5q-21 0 -41.5 -7.5t-37.5 -22.5t-27.5 -37.5t-10.5 -51.5q0 -46 24 -74.5t66 -51.5q37 -20 69.5 -31t66.5 -27q32 -15 58 -31t44.5 -37
t28.5 -49t10 -68q0 -46 -17 -84t-47.5 -65.5t-72 -43t-89.5 -15.5z" />
    <glyph glyph-name="T" unicode="T" horiz-adv-x="642" 
d="M155 7q7 0 18.5 1.5t24 3t23.5 3.5t16 4q18 7 24.5 20t6.5 30v602h-57q-17 0 -40 -1t-41 -3q-16 -2 -34 -21t-34.5 -44t-28.5 -51t-16 -42h-9v174h626v-174h-9q-4 16 -16 42t-28.5 51t-34.5 44t-34 21q-18 2 -39.5 3t-41.5 1h-57v-600q0 -17 7 -29.5t24 -20.5q4 -2 15 -4
t23.5 -4.5t24.5 -4t19 -1.5v-7h-332v7z" />
    <glyph glyph-name="U" unicode="U" horiz-adv-x="791" 
d="M400 -16q-66 0 -115.5 16t-82.5 43t-50 62.5t-17 74.5v433q0 17 -7 29t-24 21q-14 7 -36 9.5t-34 3.5v7h311v-7q-14 -1 -36 -4.5t-36 -8.5q-19 -6 -25 -19t-6 -30v-421q0 -27 6.5 -57.5t26 -56t55 -42.5t94.5 -17q60 0 101.5 16.5t68 43t38.5 58.5t12 64v311
q0 112 -34 134q-26 17 -55.5 22.5t-46.5 6.5v7h275v-7q-7 0 -19 -2t-25.5 -5.5t-26.5 -7.5t-21 -9q-20 -13 -26.5 -49.5t-6.5 -83.5v-321q0 -61 -26.5 -102t-65.5 -66t-84 -35.5t-82 -10.5z" />
    <glyph glyph-name="V" unicode="V" horiz-adv-x="676" 
d="M324 -8q-35 97 -72.5 193t-71 178.5t-60 147t-39.5 98.5q-6 16 -14.5 28t-26.5 23q-14 8 -30.5 11.5t-30.5 4.5v7h310v-7q-42 -2 -72 -10.5t-30 -26.5q0 -12 5 -25q6 -16 24.5 -62t45.5 -112t58.5 -146t62.5 -164l169 402q16 38 20 61t4 32q0 25 -32 36t-90 15v7h249v-7
q-14 -1 -29 -5.5t-29 -12.5q-20 -11 -31.5 -31.5t-22.5 -43.5q-10 -24 -27 -64t-38.5 -90t-45.5 -107t-48.5 -114.5t-48 -113t-42.5 -102.5h-17v0z" />
    <glyph glyph-name="W" unicode="W" horiz-adv-x="973" 
d="M275 -8q-30 97 -60 193t-56.5 179t-47 147t-30.5 98q-5 16 -12.5 27.5t-24.5 21.5q-14 8 -30 12.5t-30 5.5v7h305v-7q-13 -1 -31 -3.5t-34 -7t-27.5 -11t-11.5 -15.5q0 -5 1 -12.5t3 -12.5l149 -470l144 392q-3 12 -8 30t-12 36t-16 33t-19 22q-12 8 -35 13t-37 6v7h301
v-7q-13 -1 -30.5 -3.5t-33 -7t-26.5 -11t-11 -15.5q0 -5 1 -12.5t3 -12.5q5 -16 19.5 -59.5t35 -106.5t46.5 -140.5t53 -161.5q21 58 40.5 114.5t37 106.5t31 92.5t22.5 72.5q11 39 15.5 58t4.5 32t-12 22.5t-29.5 16.5t-38 10.5t-37.5 4.5v7h249v-7q-14 -1 -30 -6.5
t-30 -13.5q-20 -11 -31.5 -30t-20.5 -43q-17 -46 -42 -115t-53.5 -149t-58 -165t-56.5 -162h-23q-47 156 -90 288.5t-74 227.5l-189 -516h-23v0z" />
    <glyph glyph-name="X" unicode="X" horiz-adv-x="762" 
d="M-4 7q14 1 34.5 4.5t34.5 9.5q29 13 48.5 31.5t33.5 35.5q45 54 89.5 109t98.5 122q-54 75 -106 147.5t-95 128.5q-12 17 -30 36.5t-40 30.5q-11 5 -31.5 9t-34.5 5v7h365v-7q-15 -1 -34.5 -2t-37 -5t-29 -12t-11.5 -22t22 -50.5t54 -81.5q19 -27 39 -54.5t39 -53.5
q33 39 63.5 77.5t53.5 70.5t37 55.5t14 33.5q0 14 -11 22.5t-27 13t-35 6t-34 2.5v7h271v-7q-14 -1 -35 -4.5t-35 -9.5q-29 -13 -48.5 -31.5t-33.5 -35.5q-40 -48 -81.5 -101t-87.5 -111q33 -46 65 -89.5t60 -82t51 -70.5t40 -53q13 -17 30 -36t40 -33q9 -5 30 -8t35 -4v-7
h-365v7q15 1 35 2.5t37 6t29 13t12 22.5q0 13 -19.5 45t-48.5 72q-25 35 -52 71.5t-49 66.5q-30 -37 -65 -80t-64 -81q-26 -33 -42 -58.5t-16 -35.5q0 -14 11 -22.5t27.5 -13t35.5 -6t34 -2.5v-7h-271v7z" />
    <glyph glyph-name="Y" unicode="Y" horiz-adv-x="635" 
d="M148 7q7 0 18.5 1.5t24 3t23.5 3.5t16 4q18 7 24.5 20t6.5 30v189q0 15 -7.5 33.5t-18.5 41.5q-35 68 -72.5 135.5t-69.5 122.5q-13 23 -27.5 40.5t-32.5 28.5q-14 8 -32.5 11.5t-32.5 4.5v7h322v-7q-13 -1 -30.5 -3t-33 -6t-26.5 -10.5t-11 -15.5q0 -5 13 -31.5
t36 -68.5q25 -46 58 -105t68 -122q37 61 71 118t58 102q20 36 31 60.5t11 33.5q0 12 -11.5 21t-29 14.5t-38 8.5t-37.5 4v7h241v-7q-9 -1 -23 -5t-22 -9q-20 -11 -31 -21t-25 -30q-17 -24 -37 -56.5t-41 -69t-43 -75.5t-43 -76q-9 -17 -14.5 -29.5t-8.5 -25t-4 -26t-1 -31.5
v-151q0 -17 7 -29.5t24 -20.5q4 -2 15 -4t23.5 -4.5t24.5 -4t19 -1.5v-7h-332v7z" />
    <glyph glyph-name="Z" unicode="Z" horiz-adv-x="626" 
d="M4 12l480 659h-205q-26 0 -46 -1t-35 -4q-20 -4 -42.5 -23.5t-42.5 -45t-36 -52.5t-23 -46h-9l21 184h539v-12l-480 -659h227q22 0 45 1t43 4t35.5 8t23.5 13q16 15 33 37t32 45.5t27 46t18 38.5h9l-23 -205h-591v12z" />
    <glyph glyph-name="grave" unicode="`" horiz-adv-x="500" 
d="M344 524q-30 24 -53 41.5t-40.5 30.5t-31 23t-24.5 19q-18 14 -27 25t-9 30q0 14 12 26t29 12q19 0 33 -9t28 -34q17 -28 38 -68.5t50 -91.5l-5 -4v0z" />
    <glyph glyph-name="a" unicode="a" horiz-adv-x="490" 
d="M153 -12q-52 0 -84 29t-32 77q0 31 8.5 51.5t22 35t31 23.5t36.5 16q43 17 89.5 30.5t78.5 30.5v71q0 7 -2 24t-10 34.5t-25.5 31t-48.5 13.5q-29 0 -42.5 -9.5t-20.5 -17.5q0 -20 5.5 -40.5t5.5 -37.5q0 -16 -15.5 -29.5t-42.5 -13.5q-25 0 -35 16t-10 36
q0 22 14.5 41.5t37.5 34t51.5 22.5t57.5 8q37 0 68.5 -4.5t54.5 -19.5t36 -44.5t13 -79.5q0 -33 -1 -68.5t-1.5 -67.5t-1.5 -57.5t-1 -37.5q0 -6 2.5 -14.5t8.5 -16.5t15 -14t21 -6t21.5 8t15.5 20t9.5 27t4.5 29h10q-5 -70 -32 -99.5t-74 -29.5q-35 0 -55.5 16t-32.5 51h-3
q-27 -32 -65 -50.5t-83 -18.5zM202 23q33 0 56.5 12.5t41.5 35.5l4 196q-38 -12 -69 -25.5t-53.5 -32t-35 -43t-12.5 -57.5q0 -42 18 -64t50 -22z" />
    <glyph glyph-name="b" unicode="b" horiz-adv-x="551" 
d="M78 -19q2 30 3 80.5t1 104.5v497q-2 24 -8.5 34.5t-18.5 18.5q-9 6 -28 9t-38 4v6l180 11l4 -4v-337l3 -1q9 9 22 20t30.5 20t38 15t44.5 6q43 0 81 -15.5t66 -45.5t44.5 -75t16.5 -105q0 -51 -19 -95t-50.5 -75.5t-72.5 -49.5t-85 -18q-25 0 -48.5 5t-44 12.5
t-37.5 16.5t-28 16l-48 -57zM284 -4q28 0 52.5 16t42.5 46t28 72t10 93q0 37 -7.5 75t-24.5 68t-43.5 49t-64.5 19q-36 0 -61 -13t-43 -34v-299q4 -12 12.5 -28t22 -30t32 -24t44.5 -10z" />
    <glyph glyph-name="c" unicode="c" horiz-adv-x="435" 
d="M249 -12q-54 0 -95 18t-68 50t-40.5 76t-13.5 96q0 46 15.5 89t44 76t70 52.5t92.5 19.5q39 0 68 -9.5t48.5 -25.5t29 -37t9.5 -44q0 -25 -15.5 -40.5t-40.5 -15.5q-8 0 -17 2.5t-16.5 8t-13 15t-5.5 24.5q0 16 3.5 27t7.5 19.5t7.5 15.5t3.5 14q-3 17 -23 26.5t-46 9.5
q-25 0 -47 -13t-38.5 -39.5t-26 -67.5t-9.5 -98q0 -48 9.5 -87.5t27.5 -68t44 -44t59 -15.5q54 0 90.5 23.5t61.5 67.5l9 -6q-28 -50 -76.5 -84.5t-108.5 -34.5z" />
    <glyph glyph-name="d" unicode="d" horiz-adv-x="565" 
d="M245 -12q-44 0 -82.5 17t-67.5 48.5t-46 77t-17 101.5q0 51 19 94t50.5 74t73 48t85.5 17q48 0 80 -11.5t41 -15.5v225q-2 24 -8.5 33.5t-18.5 17.5q-5 3 -15.5 5.5t-23 4.5t-26 3.5t-22.5 1.5v6l201 11l4 -4v-665q3 -33 26 -49q9 -6 27 -9t32 -4v-6l-168 -11l-7 7v41
l-3 1q-8 -9 -21 -19t-30.5 -19t-38 -15t-44.5 -6zM279 17q36 0 59 12.5t43 33.5v307q-4 13 -12.5 27.5t-22 27t-33 21t-45.5 8.5q-32 0 -56.5 -17t-42 -48t-26.5 -74t-9 -94q0 -38 7.5 -74.5t24.5 -65t44.5 -46.5t68.5 -18z" />
    <glyph glyph-name="e" unicode="e" horiz-adv-x="456" 
d="M253 -12q-57 0 -98.5 19t-68.5 52t-40.5 77t-13.5 94q0 45 14 87.5t41 75t66 52.5t89 20q51 0 87 -15.5t58 -41t32 -59.5t10 -70v-9h-298v-17q0 -48 7 -91t24.5 -74.5t46 -50t71.5 -18.5q29 0 51 6.5t39.5 18.5t32 29.5t28.5 40.5l8 -5q-26 -54 -74.5 -87.5t-111.5 -33.5
zM332 282q0 30 -3.5 61t-13.5 55.5t-28 40.5t-46 16q-24 0 -43.5 -12.5t-34 -36t-23 -55.5t-9.5 -71z" />
    <glyph glyph-name="f" unicode="f" horiz-adv-x="318" 
d="M33 7q14 1 23.5 2.5t20.5 4.5q14 5 20.5 16.5t6.5 28.5v377h-102v16h102v29q0 63 15.5 114.5t52.5 90.5q31 33 70 47t77 14q28 0 48 -7.5t33 -20t19 -28.5t6 -32q0 -17 -15 -34.5t-41 -17.5q-20 0 -38 13t-18 39q0 12 1.5 20t4 14t4 12t1.5 14q-3 9 -12 12.5t-17 3.5
q-48 0 -71.5 -49t-27.5 -164v-15t-0.5 -19t-0.5 -20v-16h126v-16h-126v-372q0 -16 6.5 -28t20.5 -17q11 -5 31 -8t34 -4v-7h-254v7z" />
    <glyph glyph-name="g" unicode="g" horiz-adv-x="508" 
d="M236 -226q-59 0 -100.5 8.5t-67.5 24t-38 38t-12 51.5q0 42 44 71.5t124 31.5v7q-18 4 -38 11t-37.5 18t-28.5 26.5t-11 36.5q0 18 9.5 31.5t23 22.5t29 15.5t27.5 11.5v6q-53 21 -83 54.5t-30 78.5q0 34 14 61.5t38.5 46.5t57 29t69.5 10q26 0 48.5 -4.5t40.5 -10.5
t30.5 -10.5t17.5 -4.5q14 9 25.5 14.5t23 9t24 5t28.5 1.5q18 0 32.5 -14t14.5 -34q0 -22 -11 -35.5t-31 -13.5q-25 0 -35 18t-8 56q-25 0 -39.5 -5.5t-25.5 -13.5v-7q18 -20 29.5 -43t11.5 -60q0 -33 -15 -59t-39 -44.5t-54 -28.5t-61 -10h-68q-14 -7 -24.5 -16.5
t-10.5 -26.5q0 -18 11.5 -28t28.5 -14.5t38 -5t39 -1.5q11 0 27 -1l32 -2t30.5 -2t22.5 -1q22 -1 45 -10.5t41.5 -27t30 -42.5t11.5 -56q0 -35 -15 -64.5t-46 -51.5t-78.5 -34.5t-111.5 -12.5zM253 -216q73 0 117.5 33.5t44.5 92.5q0 9 -2 20t-8 21.5t-17 20t-29 15.5
q-17 2 -53.5 4.5t-104.5 2.5q-54 -11 -79.5 -34t-25.5 -70q0 -15 7 -33.5t24.5 -34.5t48 -27t77.5 -11zM224 180q22 0 38 11.5t26.5 30.5t15.5 43.5t5 50.5q0 25 -4.5 49.5t-15 44.5t-26.5 32.5t-40 12.5t-40 -12t-25 -31.5t-13 -43.5t-4 -49q0 -27 4.5 -52t14.5 -44.5
t26 -31t38 -11.5z" />
    <glyph glyph-name="h" unicode="h" horiz-adv-x="575" 
d="M23 7q14 1 23.5 2.5t20.5 4.5q14 5 20.5 16.5t6.5 28.5v604q-2 16 -8.5 30.5t-18.5 22.5q-5 3 -13.5 5.5t-18 4t-19 2.5t-16.5 1v6l181 11l4 -4v-359h2q14 14 29 28.5t34 26.5t43 19.5t56 7.5q70 0 103 -43t33 -115v-244q0 -17 6 -29.5t20 -18.5q11 -5 20.5 -6t23.5 -2
v-7h-236v7q28 2 47 7q14 5 20.5 16.5t6.5 28.5v260q0 52 -25.5 79.5t-57.5 27.5q-27 0 -48.5 -7t-37 -17.5t-25.5 -21.5t-14 -20v-296q0 -17 6.5 -29.5t20.5 -18.5q11 -5 22.5 -6.5t24.5 -2.5v-7h-236v7z" />
    <glyph glyph-name="i.001" horiz-adv-x="286" 
d="M33 7q14 1 23.5 2.5t20.5 4.5q14 5 20.5 16.5t6.5 28.5v316q-2 16 -8.5 30.5t-18.5 22.5q-9 6 -27 9t-32 4v6l173 11l4 -4v-390q0 -17 6.5 -29.5t20.5 -18.5q11 -5 22.5 -6.5t24.5 -2.5v-7h-236v7zM151 496q-17 0 -30 13t-13 30q0 18 13 31.5t30 13.5q20 0 32.5 -12.5
t12.5 -29.5q0 -19 -12.5 -32.5t-32.5 -13.5z" />
    <glyph glyph-name="j.001" horiz-adv-x="291" 
d="M16 -226q-50 0 -74 20.5t-24 51.5q0 17 14.5 33.5t38.5 16.5q20 0 37 -10.5t17 -35.5q0 -14 -5.5 -33t-5.5 -30q2 -1 11 -1.5t11 -0.5q23 0 38.5 12t25.5 37.5t14 66t4 98.5v376q-2 16 -8.5 30.5t-18.5 22.5q-5 3 -15.5 5.5t-23 4t-24.5 2.5t-19 1v6l196 11l4 -4v-413
q0 -63 -13 -115t-50 -90q-31 -32 -61 -47t-69 -15zM159 496q-17 0 -30 13t-13 30q0 18 13 31.5t30 13.5q20 0 32.5 -12.5t12.5 -29.5q0 -19 -12.5 -32.5t-32.5 -13.5z" />
    <glyph glyph-name="k" unicode="k" horiz-adv-x="534" 
d="M23 7q14 1 23.5 2.5t20.5 4.5q14 5 20.5 16.5t6.5 28.5v604q-2 16 -8.5 30.5t-18.5 22.5q-5 3 -13.5 5.5t-18 4t-19 2.5t-16.5 1v6l181 11l4 -4v-517q17 16 41 38t49 46t48 47t39 40q4 4 8.5 10.5t4.5 11.5q0 6 -9 11t-21.5 8t-26 5t-23.5 3v7h201v-6q-36 -8 -66.5 -23
t-66.5 -47q-20 -17 -40 -36.5t-45 -44.5q40 -18 69 -45.5t51.5 -60t41 -69.5t36.5 -75q5 -11 11.5 -18t19.5 -12t24.5 -7t14.5 -2v-6h-159q-9 29 -26.5 68t-40 74.5t-48 60.5t-49.5 25q-13 0 -22.5 -5t-15.5 -10v-149q0 -17 6.5 -29.5t20.5 -18.5q11 -5 22.5 -6.5t24.5 -2.5
v-7h-236v7z" />
    <glyph glyph-name="l" unicode="l" horiz-adv-x="279" 
d="M24 7q14 1 23.5 2.5t20.5 4.5q14 5 20.5 16.5t6.5 28.5v604q-2 16 -8.5 30.5t-18.5 22.5q-5 3 -13.5 5.5t-18.5 4t-20 2.5t-17 1v6l183 11l4 -4v-678q0 -17 6.5 -29.5t20.5 -18.5q11 -5 21 -6.5t23 -2.5v-7h-233v7z" />
    <glyph glyph-name="m" unicode="m" horiz-adv-x="874" 
d="M32 7q14 1 23.5 2.5t20.5 4.5q14 5 20.5 16.5t6.5 28.5v316q-2 16 -8.5 30.5t-18.5 22.5q-9 6 -22 9t-27 4v6l163 11l4 -4v-71h2q15 14 29.5 28.5t33 26.5t42.5 19.5t56 7.5q47 0 79.5 -23.5t49.5 -62.5h2q29 35 68 60.5t96 25.5q35 0 60 -12t41 -33.5t23.5 -51
t7.5 -63.5v-243q0 -35 26 -47q11 -5 20.5 -6t23.5 -2v-7h-232v7q14 1 23 2.5t20 4.5q14 5 20.5 16.5t6.5 28.5v258q0 52 -24 80.5t-61 28.5q-25 0 -45 -6.5t-34.5 -16.5t-24.5 -20.5t-14 -18.5v-302q0 -34 26 -46q11 -5 20.5 -6.5t23.5 -2.5v-7h-230v7q14 1 22.5 2.5
t19.5 4.5q14 5 20.5 16.5t6.5 28.5v265q0 52 -25 77t-57 25q-27 0 -48 -7.5t-36 -18t-24.5 -21.5t-13.5 -19v-296q0 -17 6.5 -29.5t20.5 -18.5q11 -5 21.5 -6.5t23.5 -2.5v-7h-234v7z" />
    <glyph glyph-name="n" unicode="n" horiz-adv-x="584" 
d="M32 7q14 1 23.5 2.5t20.5 4.5q14 5 20.5 16.5t6.5 28.5v316q-2 16 -8.5 30.5t-18.5 22.5q-9 6 -22 9t-27 4v6l163 11l4 -4v-71h2q14 14 29 28.5t34 26.5t43 19.5t56 7.5q70 0 103 -43t33 -115v-244q0 -17 6 -29.5t20 -18.5q11 -5 20.5 -6t23.5 -2v-7h-236v7q28 2 47 7
q14 5 20.5 16.5t6.5 28.5v260q0 52 -25.5 79.5t-57.5 27.5q-27 0 -48.5 -7t-37 -17.5t-25.5 -21.5t-14 -20v-296q0 -17 6.5 -29.5t20.5 -18.5q11 -5 22.5 -6.5t24.5 -2.5v-7h-236v7z" />
    <glyph glyph-name="o" unicode="o" 
d="M257 -14q-45 0 -86 16.5t-72 47.5t-49.5 75t-18.5 99q0 53 16.5 97.5t47.5 76.5t73.5 49.5t95.5 17.5q52 0 94.5 -18t72 -49.5t45.5 -74t16 -92.5t-15.5 -94.5t-45.5 -78t-73.5 -53t-100.5 -19.5zM263 -4q33 0 57.5 18.5t40 50t23 74t7.5 91.5q0 43 -6.5 83.5t-21.5 72
t-39.5 50.5t-60.5 19q-39 0 -64.5 -20t-40 -52t-20.5 -72t-6 -79q0 -48 7 -91t23 -75.5t41 -51t60 -18.5z" />
    <glyph glyph-name="p" unicode="p" horiz-adv-x="566" 
d="M13 -219q14 1 29 3.5t26 5.5q14 5 20 17.5t6 29.5v540q-3 34 -26 50q-9 6 -25 9.5t-30 4.5v6l167 11l4 -5v-52l4 -1q9 9 22 20.5t30.5 21.5t38 16.5t44.5 6.5q43 0 81 -17.5t66 -49t44.5 -76.5t16.5 -100q0 -51 -19 -94t-50.5 -74t-72.5 -48.5t-85 -17.5t-71 9t-44 22h-4
v-176q0 -17 7 -29.5t21 -17.5q6 -2 15 -4.5t18.5 -5t19 -4t16.5 -1.5v-7h-269v7zM296 -3q65 0 99 61.5t34 164.5q0 41 -7.5 79t-24.5 66.5t-43.5 45.5t-64.5 17q-36 0 -61 -13t-43 -34v-308q4 -12 12.5 -26t22 -25.5t32.5 -19.5t44 -8z" />
    <glyph glyph-name="q" unicode="q" horiz-adv-x="551" 
d="M298 -219q14 1 29.5 3.5t26.5 5.5q15 5 21 17.5t6 29.5v208l-3 1q-8 -9 -21 -19t-30 -18.5t-37.5 -14.5t-44.5 -6q-44 0 -82.5 17t-67.5 49t-46 77t-17 101q0 51 19.5 94t51.5 74t73.5 48t85.5 17q30 0 54 -5.5t43 -13.5t32.5 -16t21.5 -12l61 58l6 -1q-1 -15 -2 -38.5
t-2.5 -48.5t-2.5 -48.5t-1 -39.5v-462q0 -35 27 -47q12 -5 28.5 -6.5t30.5 -3.5v-7h-260v7zM279 17q36 0 59 12.5t43 33.5v307q-4 13 -12.5 27.5t-22 27t-33 21t-45.5 8.5q-32 0 -56.5 -17t-42 -48t-26.5 -74t-9 -94q0 -38 7.5 -74.5t24.5 -65t44.5 -46.5t68.5 -18z" />
    <glyph glyph-name="r" unicode="r" horiz-adv-x="395" 
d="M32 7q14 1 23.5 2.5t20.5 4.5q14 5 20.5 16.5t6.5 28.5v316q-2 16 -8.5 30.5t-18.5 22.5q-9 6 -22 9t-27 4v6l163 11l4 -4v-71h2q32 42 67.5 61t67.5 19q28 0 45.5 -18t17.5 -43q0 -28 -13.5 -45.5t-39.5 -17.5q-24 0 -39 13t-15 39q0 13 11 40q-18 0 -34.5 -7.5
t-30.5 -18t-24.5 -22.5t-14.5 -20v-302q0 -35 27 -45q13 -5 32 -6.5t33 -2.5v-7h-254v7z" />
    <glyph glyph-name="s" unicode="s" horiz-adv-x="401" 
d="M199 -14q-48 0 -85 15t-50 28l-17 -34h-10l-5 155h8q6 -18 21 -44.5t36.5 -51t49 -41.5t57.5 -17q52 0 76 28.5t24 65.5q0 19 -6 33.5t-20 26.5t-37.5 21.5t-59.5 20.5q-24 7 -48.5 18t-44 28t-31.5 40.5t-12 55.5q0 28 10.5 52t30 41.5t47 27.5t62.5 10q40 0 69 -7
t48 -20l17 28h9l7 -138h-8q-8 21 -21 43.5t-31 41t-40.5 30.5t-49.5 12q-23 0 -39 -8t-26.5 -20t-15.5 -26.5t-5 -28.5q0 -21 7.5 -35t22.5 -24.5t38 -19t54 -18.5t56 -22.5t43 -30t27.5 -40t9.5 -53.5q0 -33 -13 -59.5t-35.5 -45t-53.5 -28.5t-66 -10z" />
    <glyph glyph-name="t" unicode="t" horiz-adv-x="345" 
d="M216 -10q-62 0 -91.5 35.5t-29.5 102.5v308h-96v16h98v153h87v-153h137v-16h-136v-296q0 -21 3.5 -39.5t12 -32t23.5 -21.5t38 -8q17 0 29.5 8t21.5 20.5t14.5 27.5t7.5 29h10q-3 -27 -13 -51.5t-26.5 -42.5t-39 -29t-50.5 -11z" />
    <glyph glyph-name="u" unicode="u" horiz-adv-x="567" 
d="M220 -12q-35 0 -59.5 12t-40.5 34t-23 52t-7 65v223q-3 34 -26 50q-9 6 -22.5 10.5t-27.5 5.5v6l161 12l7 -7v-328q0 -52 23.5 -77.5t55.5 -25.5q27 0 47.5 7.5t35.5 18.5t24 22.5t14 19.5v289q-3 34 -26 50q-9 6 -27 9t-38 4v6l175 12l7 -7v-375q2 -16 6.5 -28.5
t16.5 -20.5q9 -6 23 -8.5t28 -3.5v-6l-157 -11l-7 7v61h-3q-14 -14 -29 -28t-33 -25t-42 -18t-56 -7z" />
    <glyph glyph-name="v" unicode="v" horiz-adv-x="467" 
d="M235 -7q-29 64 -53 117.5t-45 101.5t-41 93t-40 91q-9 21 -23 34t-46 15v7h222v-9q-23 -1 -42.5 -5t-19.5 -16q0 -4 7 -21q9 -20 23 -54t31.5 -74t36 -82t35.5 -79q29 69 57 133t57 137q2 5 4 13.5t1 14.5q-1 8 -8.5 14t-19 10.5t-25 7t-26.5 4.5v6h167v-5
q-19 -3 -38 -14t-33 -42q-32 -69 -63 -140.5t-64 -149.5q-11 -26 -20 -50.5t-19 -57.5h-15v0z" />
    <glyph glyph-name="w" unicode="w" horiz-adv-x="714" 
d="M223 -7q-27 67 -47.5 119t-39.5 97.5t-37 89.5t-39 96q-10 24 -25.5 35.5t-42.5 14.5v7h216v-9q-9 0 -19 -1.5t-18.5 -3.5t-14.5 -6t-6 -10q0 -4 7 -21q7 -19 20 -51.5t28.5 -72t32.5 -82.5t34 -83q23 60 44.5 113t44.5 107l-16 38t-14 32q-10 22 -25 31.5t-36 11.5v7
h207v-8q-9 0 -19 -1t-18.5 -3t-14 -6t-5.5 -10q0 -1 1.5 -7.5t5.5 -15.5q7 -19 19.5 -53t27.5 -74t32 -83t32 -80q30 78 56.5 145.5t47.5 129.5q5 15 5 26q0 9 -10 15.5t-22.5 10.5t-25 6t-18.5 2v6h167v-6q-21 -2 -44.5 -18t-33.5 -42q-17 -41 -30 -75t-26 -67t-26.5 -67.5
t-30.5 -77.5q-11 -26 -19 -49.5t-19 -56.5h-18q-33 91 -63.5 170.5t-59.5 153.5q-22 -49 -43.5 -105.5t-43.5 -112.5q-10 -26 -18.5 -49.5t-19.5 -56.5h-20v0z" />
    <glyph glyph-name="x" unicode="x" horiz-adv-x="471" 
d="M0 5q31 8 48 22t37 40q7 9 20.5 24.5t29.5 35t33.5 41t32.5 41.5q-14 20 -30.5 45t-34 51t-34.5 50.5t-30 44.5q-20 29 -34 37t-31 8v7h206v-7q-21 0 -38 -4t-17 -10q0 -5 2.5 -10t6.5 -12l94 -142q24 32 49 64.5t48 67.5q2 3 4.5 8t1.5 10q-2 10 -18 15.5t-48 13.5v6
h161v-5q-19 -5 -32 -10.5t-22.5 -13t-17 -16t-15.5 -17.5q-16 -19 -42 -52t-62 -81q18 -26 37 -54t36.5 -54t33 -49.5t27.5 -40.5q14 -21 28 -35.5t41 -15.5v-8h-217v8q10 1 21 2.5t20 4t15 6t6 8.5q0 4 -2.5 9.5t-11.5 20.5q-5 9 -15.5 24t-23.5 33.5t-27.5 39.5t-27.5 42
q-11 -14 -25 -31t-29 -35.5t-29 -36.5t-25 -34q-10 -15 -10 -23q0 -15 20 -21.5t52 -9.5v-7h-162v5z" />
    <glyph glyph-name="y" unicode="y" horiz-adv-x="462" 
d="M62 -226q-10 0 -23 3.5t-24 11.5t-19 21t-8 32q0 20 15.5 39t41.5 19q20 0 38 -12t18 -42l-8 -54q13 1 26.5 10t26 23.5t24 32.5t21.5 36q23 43 44 96q-53 128 -98 226t-82 180q-9 21 -23.5 32.5t-44.5 16.5v7h219v-9q-9 0 -19.5 -1.5t-19.5 -3.5t-15 -6t-6 -10
q0 -4 7 -21q9 -23 24.5 -57.5t33.5 -75t37.5 -82t35.5 -77.5q29 69 54.5 133.5t54.5 139.5q2 6 4 14t2 14q0 15 -24.5 23.5t-51.5 12.5v6h160v-5q-23 -4 -41 -19t-28 -37q-12 -28 -32.5 -76.5t-44 -105.5t-47.5 -116.5t-43 -107.5q-29 -71 -53 -113t-45.5 -63.5t-43 -28
t-43.5 -6.5z" />
    <glyph glyph-name="z" unicode="z" horiz-adv-x="437" 
d="M24 9l284 432h-83q-35 0 -62.5 -1.5t-38.5 -6.5q-8 -3 -17.5 -15.5t-20 -29t-20 -34.5t-16.5 -32h-8v130h367v-9l-282 -432q25 -1 47.5 -1h42.5q37 0 91 3q10 0 18.5 6t15.5 14t12.5 17.5t9.5 16.5q10 20 21 41.5t20 42.5h8v-151h-389v9z" />
    <glyph glyph-name="bullet" unicode="&#x2022;" horiz-adv-x="412" 
d="M206 191q-28 0 -52.5 10.5t-43 28.5t-29.5 42.5t-11 52.5t11 52.5t29.5 43t43 29.5t52.5 11t52.5 -11t43 -29.5t29.5 -43t11 -52.5t-11 -52.5t-29.5 -42.5t-43 -28.5t-52.5 -10.5z" />
    <glyph glyph-name="registered" unicode="&#xae;" horiz-adv-x="474" 
d="M313 423q-37 0 -43 51q-2 17 -10 34t-34 17h-17v-75q0 -11 9 -15q3 -2 9 -2.5t11 -0.5v-6h-94v6q4 0 11 1t9 2q9 4 9 15v156q0 12 -9 15q-5 2 -10.5 3t-9.5 1v6h105q11 0 23 -2.5t21.5 -8t15.5 -14.5t6 -21t-6 -21t-15 -15t-19 -10t-18 -6v-3q11 -2 26 -8.5t20 -23.5
q3 -12 5 -23t5 -22q2 -8 6 -10.5t8 -2.5q6 0 11.5 4.5t5.5 20.5h6q0 -22 -8.5 -32t-28.5 -10zM237 339q-39 0 -72 14t-57.5 38.5t-38.5 57.5t-14 72t14 72t38.5 57.5t57.5 38.5t72 14t72 -14t57.5 -38.5t38.5 -57.5t14 -72t-14 -72t-38.5 -57.5t-57.5 -38.5t-72 -14z
M237 355q35 0 64.5 13t51.5 35.5t34 52.5t12 65t-12 65t-34 52.5t-51.5 35.5t-64.5 13t-64.5 -13t-51.5 -35.5t-34 -52.5t-12 -65t12 -65t34 -52.5t51.5 -35.5t64.5 -13zM225 532q20 0 34.5 10.5t14.5 36.5t-12 35.5t-29 9.5h-24v-92h16z" />
    <glyph glyph-name="copyright" unicode="&#xa9;" horiz-adv-x="950" 
d="M482 13q-54 0 -98 16.5t-75.5 46.5t-48.5 73.5t-17 97.5q0 52 18.5 96.5t52.5 77t80 51t102 18.5q38 0 73 -10.5t53 -23.5l24 41h8l4 -181h-8q-9 28 -21 57t-30 52.5t-43.5 38.5t-62.5 15q-30 0 -57.5 -15t-48.5 -44t-33.5 -71.5t-12.5 -96.5q0 -45 10.5 -83t30.5 -66.5
t50.5 -44.5t69.5 -16q31 0 55.5 10t44 26t34 37t25.5 43l12 -5q-12 -26 -28.5 -51t-40 -45t-53.5 -32t-69 -12zM476 -181q-91 0 -170.5 34t-139 92.5t-93.5 137.5t-34 168q0 88 34 166.5t93.5 137t139 92.5t170.5 34q90 0 169.5 -34t138.5 -92.5t93 -137t34 -166.5
q0 -89 -34 -168t-93 -137.5t-138.5 -92.5t-169.5 -34zM476 -155q84 0 157 32t127 87t85 129t31 158q0 83 -31 156.5t-85 128t-127 86.5t-157 32t-157.5 -32t-127.5 -86.5t-85.5 -128t-31.5 -156.5q0 -84 31.5 -158t85.5 -129t127.5 -87t157.5 -32z" />
    <glyph glyph-name="trademark" unicode="&#x2122;" horiz-adv-x="652" 
d="M293 438q5 1 17.5 2.5t19.5 6.5q12 9 12 49v143q0 12 -3 18.5t-8 11.5q-8 5 -18 6.5t-17 1.5v6h99l71 -173l55 140q6 17 8 33h101v-6q-5 0 -15.5 -2t-15.5 -4q-10 -4 -10 -17v-192q0 -13 10 -17q4 -2 15.5 -4t16.5 -3v-5h-135v5q5 1 19 2.5t18 3.5q10 6 10 18v202h-6
l-88 -228h-6q-4 11 -8.5 24t-10.5 28l-65 171h-6v-160q0 -21 3.5 -32.5t8.5 -16.5q3 -2 8.5 -4t11.5 -3.5t11.5 -3t7.5 -1.5v-5h-111v5zM81 438q5 1 16.5 2t16.5 3q12 4 12 16v214h-22h-14t-15 -1q-6 -1 -12 -8.5t-11.5 -18t-9.5 -20.5t-5 -16h-5v74h233v-74h-5
q-2 6 -5.5 16t-8.5 20.5t-11 18t-12 8.5q-7 1 -14 1h-15h-21v-212q0 -12 11 -17l32 -6v-5h-135v5z" />
    <glyph glyph-name="acute" unicode="&#xb4;" horiz-adv-x="500" 
d="M151 529q31 54 51 92.5t37 66.5q14 23 28 33t33 10q17 0 28.5 -12t11.5 -26q0 -19 -9 -30t-27 -25q-11 -9 -24.5 -19t-31 -23t-40 -30.5t-52.5 -41.5z" />
    <glyph glyph-name="dieresis" unicode="&#xa8;" horiz-adv-x="500" 
d="M140 588q-23 0 -40 17t-17 40q0 24 17 41.5t40 17.5q26 0 43 -16.5t17 -38.5q0 -25 -17 -43t-43 -18zM358 588q-24 0 -41 17t-17 40q0 24 17 41.5t41 17.5q26 0 42.5 -16.5t16.5 -38.5q0 -25 -17 -43t-42 -18z" />
    <glyph glyph-name="ellipsis" unicode="&#x2026;" horiz-adv-x="822" 
d="M137 -8q-26 0 -45 18.5t-19 44.5t19 45t45 19t45 -19t19 -45t-19 -44.5t-45 -18.5zM411 -8q-26 0 -45 18.5t-19 44.5t19 45t45 19t45 -19t19 -45t-19 -44.5t-45 -18.5zM685 -8q-26 0 -45 18.5t-19 44.5t19 45t45 19t45 -19t19 -45t-19 -44.5t-45 -18.5z" />
    <glyph glyph-name="endash" unicode="&#x2013;" horiz-adv-x="544" 
d="M50 284h444v-59h-444v59z" />
    <glyph glyph-name="emdash" unicode="&#x2014;" horiz-adv-x="884" 
d="M50 284h784v-59h-784v59z" />
    <glyph glyph-name="quotedblleft" unicode="&#x201c;" horiz-adv-x="353" 
d="M100 476q-42 0 -60 27.5t-18 72.5q0 32 14 57.5t34 45t42 34t39 23.5l6 -10q-40 -23 -67 -56.5t-29 -78.5h32q37 0 51 -18.5t14 -40.5q0 -20 -15.5 -38t-42.5 -18zM268 476q-42 0 -60 27.5t-18 72.5q0 32 14 57.5t34 45t42 34t39 23.5l6 -10q-40 -23 -67 -56.5t-29 -78.5
h32q37 0 51 -18.5t14 -40.5q0 -20 -15.5 -38t-42.5 -18z" />
    <glyph glyph-name="quotedblright" unicode="&#x201d;" horiz-adv-x="353" 
d="M39 487q40 23 67 56.5t29 78.5h-32q-37 0 -51 18.5t-14 40.5q0 20 15.5 38t42.5 18q42 0 60 -27.5t18 -72.5q0 -32 -14 -57.5t-34 -45t-42.5 -34t-38.5 -23.5zM207 487q40 23 67 56.5t29 78.5h-32q-37 0 -51 18.5t-14 40.5q0 20 15.5 38t42.5 18q42 0 60 -27.5t18 -72.5
q0 -32 -14 -57.5t-34 -45t-42.5 -34t-38.5 -23.5z" />
    <glyph glyph-name="quoteleft" unicode="&#x2018;" horiz-adv-x="185" 
d="M100 476q-42 0 -60 27.5t-18 72.5q0 32 14 57.5t34 45t42 34t39 23.5l6 -10q-40 -23 -67 -56.5t-29 -78.5h32q37 0 51 -18.5t14 -40.5q0 -20 -15.5 -38t-42.5 -18z" />
    <glyph glyph-name="quoteright" unicode="&#x2019;" horiz-adv-x="185" 
d="M39 487q40 23 67 56.5t29 78.5h-32q-37 0 -51 18.5t-14 40.5q0 20 15.5 38t42.5 18q42 0 60 -27.5t18 -72.5q0 -32 -14 -57.5t-34 -45t-42.5 -34t-38.5 -23.5z" />
    <glyph glyph-name="periodcentered" unicode="&#xb7;" horiz-adv-x="250" 
d="M125 206q-28 0 -47.5 19t-19.5 47t19.5 47.5t47.5 19.5t47.5 -19.5t19.5 -47.5t-19.5 -47t-47.5 -19z" />
    <glyph glyph-name="periodcentered" unicode="&#x2219;" horiz-adv-x="250" 
d="M125 206q-28 0 -47.5 19t-19.5 47t19.5 47.5t47.5 19.5t47.5 -19.5t19.5 -47.5t-19.5 -47t-47.5 -19z" />
    <glyph glyph-name="circumflex" unicode="&#x2c6;" horiz-adv-x="500" 
d="M93 540q40 58 68 100.5t46 70.5q10 14 16 18t28 4q11 0 17 -0.5t10 -3t7 -6.5t7 -10q19 -27 47 -70.5t68 -102.5l-7 -6l-151 128l-149 -128z" />
    <glyph glyph-name="tilde" unicode="&#x2dc;" horiz-adv-x="500" 
d="M55 559q6 17 17.5 39t27 41t36 32t44.5 13q29 0 51.5 -9t41 -20t36 -20t35.5 -9q34 0 55 17.5t36 49.5l9 -3q-5 -18 -16.5 -40t-28 -40.5t-38 -31.5t-45.5 -13q-30 0 -52 8.5t-40.5 19t-35.5 19.5t-38 9q-29 0 -47.5 -16t-38.5 -50z" />
    <glyph glyph-name="macron" unicode="&#xaf;" horiz-adv-x="500" 
d="M85 658h330v-62h-330v62z" />
    <glyph glyph-name="macron" unicode="&#x304;" horiz-adv-x="500" 
d="M85 658h330v-62h-330v62z" />
    <glyph glyph-name="breve" unicode="&#x2d8;" horiz-adv-x="500" 
d="M250 539q-20 0 -41.5 9t-42 30t-38.5 55.5t-32 86.5l11 4q23 -51 60 -80t83 -29t83.5 29t60.5 80l10 -4q-14 -52 -32 -86.5t-38.5 -55.5t-42 -30t-41.5 -9z" />
    <glyph glyph-name="dotaccent" unicode="&#x2d9;" horiz-adv-x="500" 
d="M250 598q-24 0 -41 17t-17 40q0 24 17 41.5t41 17.5q26 0 42.5 -16.5t16.5 -38.5q0 -25 -17 -43t-42 -18z" />
    <glyph glyph-name="ring" unicode="&#x2da;" horiz-adv-x="500" 
d="M250 531q-52 0 -82 26.5t-30 71.5q0 44 32.5 71t79.5 27q49 0 80.5 -26.5t31.5 -71.5q0 -43 -30.5 -70.5t-81.5 -27.5zM250 540q32 0 46 27.5t14 61.5q0 16 -3.5 32t-10.5 28.5t-18.5 20.5t-27.5 8t-27 -7.5t-18.5 -20t-11 -28.5t-3.5 -33t3.5 -32.5t10.5 -28.5
t18.5 -20.5t27.5 -7.5z" />
    <glyph glyph-name="cedilla" unicode="&#xb8;" horiz-adv-x="500" 
d="M141 -218q23 0 47.5 2t44.5 8.5t33 19t13 33.5q0 13 -8 21t-20 12.5t-27 5.5t-30 1v115h13v-58q27 0 53 -3t45.5 -11t31.5 -23t12 -39q0 -33 -18 -52t-47.5 -28.5t-66.5 -12.5t-76 -3v12z" />
    <glyph glyph-name="hungarumlaut" unicode="&#x2dd;" horiz-adv-x="500" 
d="M62 540q18 30 31 53t23.5 42t19 34t16.5 29q14 25 27 34t30 9q15 0 24.5 -12t9.5 -26q0 -19 -9.5 -30t-26.5 -25q-11 -9 -23 -19t-28.5 -23t-38 -30.5t-49.5 -41.5zM243 540q18 30 31 53.5t23.5 42t19 33.5t16.5 29q14 25 27 34t30 9q15 0 24.5 -12t9.5 -26
q0 -19 -9.5 -30t-26.5 -25q-11 -9 -23 -19t-28.5 -23t-38 -30.5t-49.5 -41.5z" />
    <glyph glyph-name="ogonek" unicode="&#x2db;" horiz-adv-x="500" 
d="M339 -226q-91 1 -141.5 18.5t-50.5 64.5q0 21 11.5 40t31 36t46 33.5t57.5 33.5h9q-45 -35 -60.5 -71t-15.5 -65q0 -16 4.5 -30t17 -24.5t34.5 -17t57 -9.5v-9v0z" />
    <glyph glyph-name="caron" unicode="&#x2c7;" horiz-adv-x="500" 
d="M249 539q-11 0 -17 0.5t-10 3t-7 6.5t-7 10q-19 27 -47 70.5t-68 102.5l7 6l151 -128l149 128l7 -6q-40 -58 -68 -100.5t-46 -70.5q-10 -14 -16 -18t-28 -4z" />
    <glyph glyph-name="Eth" unicode="&#xd0;" horiz-adv-x="779" 
d="M43 7q7 0 18 1t21.5 2.5t20 3t14.5 3.5q18 7 24.5 19.5t6.5 29.5v285h-100v21h100v237q0 17 -6.5 31.5t-24.5 22.5t-37 10t-33 3v7h322q34 0 75 -6.5t82.5 -22t80.5 -41.5t69 -64.5t48 -91t18 -120.5q0 -87 -34.5 -151t-90 -105t-126 -61t-142.5 -20h-306v7zM363 12
q66 0 114 24t79.5 67.5t47 103.5t15.5 131q0 72 -20 133t-56 106t-87.5 70t-114.5 25h-20.5t-23.5 -0.5t-23.5 -1t-19.5 -0.5v-298h147v-21h-147v-262q5 -37 28 -57t81 -20z" />
    <glyph glyph-name="eth" unicode="&#xf0;" 
d="M264 -14q-45 0 -87 14.5t-74.5 44.5t-52 75.5t-19.5 107.5q0 54 18 98t50 75t74.5 47.5t92.5 16.5q43 0 73.5 -16.5t46.5 -39.5l4 1q-10 79 -34.5 136t-54.5 96l-113 -73l-10 16l110 72q-20 25 -42 47t-40 35l4 7q21 -11 50 -28.5t58 -41.5l90 60l10 -17l-85 -56
q30 -27 58.5 -62.5t51 -81.5t36.5 -103t14 -126q0 -59 -14 -113.5t-42.5 -97t-71.5 -68t-101 -25.5zM263 -4q33 0 57.5 18.5t40 50t23 74t7.5 91.5q0 43 -6.5 83.5t-21.5 72t-39.5 50.5t-60.5 19q-39 0 -64.5 -20t-40 -52t-20.5 -72t-6 -79q0 -48 7 -91t23 -75.5t41 -51
t60 -18.5z" />
    <glyph glyph-name="Lslash" unicode="&#x141;" horiz-adv-x="629" 
d="M44 7q7 0 17 1.5t20.5 3t20 3.5t15.5 4q18 7 24.5 19.5t6.5 29.5v239l-92 -33l-7 19l99 36v282q0 17 -6 29.5t-25 20.5q-14 6 -36 10t-36 5v7h313v-7q-14 -1 -36.5 -3t-36.5 -7q-19 -6 -25 -19.5t-6 -30.5v-251l139 51l8 -19l-147 -54v-240q0 -31 4.5 -49t17 -27.5
t36 -12t61.5 -2.5h50.5t45 2t36 7t24.5 14q11 12 25.5 34t27.5 46t23.5 46t14.5 33h9l-13 -194h-572v7z" />
    <glyph glyph-name="lslash" unicode="&#x142;" horiz-adv-x="298" 
d="M34 7q14 1 23.5 2.5t20.5 4.5q14 5 20.5 16.5t6.5 28.5v254l-87 -31l-6 19l93 33v329q-2 16 -8.5 30.5t-18.5 22.5q-5 3 -13.5 5.5t-18.5 4t-20 2.5t-17 1v6l183 11l4 -4v-377l84 31l7 -19l-91 -33v-280q0 -17 6.5 -29.5t20.5 -18.5q11 -5 21 -6.5t23 -2.5v-7h-233v7z
" />
    <glyph glyph-name="Scaron" unicode="&#x160;" horiz-adv-x="547" 
d="M284 -13q-33 0 -62.5 5t-54 13.5t-43 18t-29.5 18.5l-35 -52h-9l-7 234h9q18 -47 39 -87.5t49 -71t63 -48t82 -17.5q37 0 63.5 12t43 31.5t24.5 45.5t8 54q0 46 -27.5 79.5t-72.5 51.5q-21 9 -38.5 15.5t-33.5 13t-33 14t-38 16.5q-58 26 -88 68.5t-30 109.5
q0 40 15 73.5t42 58.5t63.5 39t79.5 14q54 0 98.5 -16.5t70.5 -36.5l35 50h8l5 -227h-9q-12 41 -29.5 80t-42.5 69.5t-59.5 49t-80.5 18.5q-21 0 -41.5 -7.5t-37.5 -22.5t-27.5 -37.5t-10.5 -51.5q0 -46 24 -74.5t66 -51.5q37 -20 69.5 -31t66.5 -27q32 -15 58 -31t44.5 -37
t28.5 -49t10 -68q0 -46 -17 -84t-47.5 -65.5t-72 -43t-89.5 -15.5zM272 739q-11 0 -17 0.5t-10 3t-7 6.5t-7 10q-19 27 -47 70.5t-68 102.5l7 6l151 -128l149 128l7 -6q-40 -58 -68 -100.5t-46 -70.5q-10 -14 -16 -18t-28 -4z" />
    <glyph glyph-name="scaron" unicode="&#x161;" horiz-adv-x="401" 
d="M199 -14q-48 0 -85 15t-50 28l-17 -34h-10l-5 155h8q6 -18 21 -44.5t36.5 -51t49 -41.5t57.5 -17q52 0 76 28.5t24 65.5q0 19 -6 33.5t-20 26.5t-37.5 21.5t-59.5 20.5q-24 7 -48.5 18t-44 28t-31.5 40.5t-12 55.5q0 28 10.5 52t30 41.5t47 27.5t62.5 10q40 0 69 -7
t48 -20l17 28h9l7 -138h-8q-8 21 -21 43.5t-31 41t-40.5 30.5t-49.5 12q-23 0 -39 -8t-26.5 -20t-15.5 -26.5t-5 -28.5q0 -21 7.5 -35t22.5 -24.5t38 -19t54 -18.5t56 -22.5t43 -30t27.5 -40t9.5 -53.5q0 -33 -13 -59.5t-35.5 -45t-53.5 -28.5t-66 -10zM200 539
q-11 0 -17 0.5t-10 3t-7 6.5t-7 10q-19 27 -47 70.5t-68 102.5l7 6l151 -128l149 128l7 -6q-40 -58 -68 -100.5t-46 -70.5q-10 -14 -16 -18t-28 -4z" />
    <glyph glyph-name="Yacute" unicode="&#xdd;" horiz-adv-x="635" 
d="M148 0h332v7q-7 0 -19 1.5t-24.5 4t-23.5 4.5t-15 4q-17 8 -24 20.5t-7 29.5v151q0 18 1 31.5t4 26t8.5 25t14.5 29.5q21 37 43 76t43 75.5t41 69t37 56.5q14 20 25 30t31 21q8 5 22 9t23 5v7h-241v-7q17 -1 37.5 -4t38 -8.5t29 -14.5t11.5 -21q0 -9 -11 -33.5t-31 -60.5
q-24 -45 -58 -102t-71 -118q-35 63 -68 122t-58 105q-23 42 -36 68.5t-13 31.5q0 9 11 15.5t26.5 10.5t33 6t30.5 3v7h-322v-7q14 -1 32.5 -4.5t32.5 -11.5q18 -11 32.5 -28.5t27.5 -40.5q32 -55 69.5 -122.5t72.5 -135.5q11 -23 18.5 -41.5t7.5 -33.5v-189q0 -17 -6.5 -30
t-24.5 -20q-5 -2 -16 -4t-23.5 -3.5t-24 -3t-18.5 -1.5v-7zM291 738l-4 3q23 41 39.5 74t30.5 56q11 20 23 27t26 7t24 -9t10 -22q0 -15 -7.5 -24t-21.5 -20q-18 -14 -45 -33.5t-75 -58.5z" />
    <glyph glyph-name="yacute" unicode="&#xfd;" horiz-adv-x="462" 
d="M62 -226q22 0 43.5 6.5t43 28t45.5 63.5t53 113q19 48 43 107.5t47.5 116.5t44 105.5t32.5 76.5q10 22 28 37t41 19v5h-160v-6q27 -4 51.5 -12.5t24.5 -23.5q0 -6 -2 -14t-4 -14q-29 -75 -54.5 -139.5t-54.5 -133.5q-16 36 -35.5 77.5t-37.5 82t-33.5 75t-24.5 57.5
q-7 17 -7 21q0 6 6 10t15 6t19.5 3.5t19.5 1.5v9h-219v-7q30 -5 44.5 -16.5t23.5 -32.5q37 -82 82 -180t98 -226q-21 -53 -44 -96q-10 -18 -21.5 -36t-24 -32.5t-26 -23.5t-26.5 -10l8 54q0 30 -18 42t-38 12q-26 0 -41.5 -19t-15.5 -39q0 -19 8 -32t19 -21t24 -11.5
t23 -3.5zM212 503l-4 3q23 41 39.5 74t30.5 56q11 20 23 27t26 7t24 -9t10 -22q0 -15 -7.5 -24t-21.5 -20q-18 -14 -45 -33.5t-75 -58.5z" />
    <glyph glyph-name="Thorn" unicode="&#xde;" horiz-adv-x="621" 
d="M45 7q7 0 17 1t20.5 2.5t20 3.5t14.5 4q18 7 24.5 20t6.5 30v543q0 17 -6 31t-25 20t-40.5 9.5t-35.5 4.5v7h317v-7q-14 -1 -36.5 -3.5t-36.5 -7.5q-18 -6 -24.5 -18t-6.5 -29v-83h128q42 0 79.5 -11t66 -32t45.5 -51.5t17 -69.5q0 -51 -22.5 -89.5t-59 -64.5t-82.5 -39
t-93 -13h-79v-97q0 -17 6.5 -30t24.5 -20q10 -4 35 -7t44 -4v-7h-319v7zM303 177q54 0 86 20t49.5 48t22.5 56.5t5 46.5q0 28 -6.5 59t-23 56.5t-44 42t-70.5 16.5h-68v-345h49z" />
    <glyph glyph-name="thorn" unicode="&#xfe;" horiz-adv-x="566" 
d="M11 -219q14 1 29 3.5t26 5.5q14 5 20 17.5t6 29.5v828q-3 34 -26 50q-9 6 -25 9.5t-30 4.5v6l167 11l4 -5v-340l4 -1q9 9 22 20.5t30.5 21.5t38 16.5t44.5 6.5q43 0 81 -17.5t66 -49t44.5 -76.5t16.5 -100q0 -51 -19 -94t-50.5 -74t-72.5 -48.5t-85 -17.5t-71 9t-44 22
h-4v-176q0 -17 7 -29.5t21 -17.5q6 -2 15 -4.5t18.5 -5t19 -4t16.5 -1.5v-7h-269v7zM294 -3q65 0 99 61.5t34 164.5q0 41 -7.5 79t-24.5 66.5t-43.5 45.5t-64.5 17q-36 0 -61 -13t-43 -34v-308q4 -12 12.5 -26t22 -25.5t32.5 -19.5t44 -8z" />
    <glyph glyph-name="Zcaron" unicode="&#x17d;" horiz-adv-x="626" 
d="M4 12l480 659h-205q-26 0 -46 -1t-35 -4q-20 -4 -42.5 -23.5t-42.5 -45t-36 -52.5t-23 -46h-9l21 184h539v-12l-480 -659h227q22 0 45 1t43 4t35.5 8t23.5 13q16 15 33 37t32 45.5t27 46t18 38.5h9l-23 -205h-591v12zM327 739q-11 0 -17 0.5t-10 3t-7 6.5t-7 10
q-19 27 -47 70.5t-68 102.5l7 6l151 -128l149 128l7 -6q-40 -58 -68 -100.5t-46 -70.5q-10 -14 -16 -18t-28 -4z" />
    <glyph glyph-name="zcaron" unicode="&#x17e;" horiz-adv-x="437" 
d="M24 9l284 432h-83q-35 0 -62.5 -1.5t-38.5 -6.5q-8 -3 -17.5 -15.5t-20 -29t-20 -34.5t-16.5 -32h-8v130h367v-9l-282 -432q25 -1 47.5 -1h42.5q37 0 91 3q10 0 18.5 6t15.5 14t12.5 17.5t9.5 16.5q10 20 21 41.5t20 42.5h8v-151h-389v9zM218 539q-11 0 -17 0.5t-10 3
t-7 6.5t-7 10q-19 27 -47 70.5t-68 102.5l7 6l151 -128l149 128l7 -6q-40 -58 -68 -100.5t-46 -70.5q-10 -14 -16 -18t-28 -4z" />
    <glyph glyph-name="onehalf" unicode="&#xbd;" horiz-adv-x="563" 
d="M119 -200q33 21 59.5 38t49 32.5t42 30.5t37.5 32q22 21 36 40t22 37.5t11 37.5t3 40q0 38 -21.5 61.5t-61.5 23.5q-28 0 -51 -11t-39.5 -28t-25.5 -37.5t-9 -39.5t11 -34.5t40 -15.5q15 0 27.5 5.5t23 14t18.5 18.5t13 18l6 -5q-8 -13 -19.5 -27.5t-27 -27t-35.5 -20.5
t-45 -8q-31 0 -49 16.5t-18 48.5q0 24 14.5 49t40 45.5t60 34t74.5 13.5q71 0 113 -31t42 -77q0 -32 -11.5 -58.5t-37 -50t-65.5 -46.5t-97 -48q-4 -2 -12 -7t-17 -10.5t-17.5 -11.5t-12.5 -9h213q26 0 43.5 23.5t36.5 52.5l5 -3l-62 -133h-307v27zM155 346q6 0 16 1t20.5 2
t19.5 2t14 2q11 3 17.5 11.5t6.5 20.5v318q-7 -2 -13.5 -2.5t-17.5 -0.5q-20 0 -43 7.5t-46 24.5l2 4q14 -5 36 -10.5t42 -5.5q41 0 72 10t49 19h5q-5 -22 -7 -47.5t-2 -54.5v-260q0 -22 23 -31q4 -2 13 -3.5t19.5 -3t20 -2.5t14.5 -1v-7h-261v7zM44 271h474v-25h-474v25z
" />
    <glyph glyph-name="onequarter" unicode="&#xbc;" horiz-adv-x="563" 
d="M226 -220q10 1 26.5 2.5t23.5 3.5q10 3 15.5 11t5.5 19v91h-212v21l258 256h26v-247q31 0 52.5 0.5t32.5 8.5q9 7 14.5 22t5.5 27h7v-149h-7q-1 14 -6 30t-16 24q-8 7 -29.5 7h-53.5v-87q0 -11 4.5 -19t15.5 -12q8 -3 23.5 -5.5t26.5 -3.5v-7h-213v7zM155 346q6 0 16 1
t20.5 2t19.5 2t14 2q11 3 17.5 11.5t6.5 20.5v318q-7 -2 -13.5 -2.5t-17.5 -0.5q-20 0 -43 7.5t-46 24.5l2 4q14 -5 36 -10.5t42 -5.5q41 0 72 10t49 19h5q-5 -22 -7 -47.5t-2 -54.5v-260q0 -22 23 -31q4 -2 13 -3.5t19.5 -3t20 -2.5t14.5 -1v-7h-261v7zM44 271h474v-25
h-474v25zM297 -63v185l-186 -185h186z" />
    <glyph glyph-name="onesuperior" unicode="&#xb9;" horiz-adv-x="340" 
d="M44 346q6 0 16 1t20.5 2t19.5 2t14 2q11 3 17.5 11.5t6.5 20.5v318q-7 -2 -13.5 -2.5t-17.5 -0.5q-20 0 -43 7.5t-46 24.5l2 4q14 -5 36 -10.5t42 -5.5q41 0 72 10t49 19h5q-5 -22 -7 -47.5t-2 -54.5v-260q0 -22 23 -31q4 -2 13 -3.5t19.5 -3t20 -2.5t14.5 -1v-7h-261v7z
" />
    <glyph glyph-name="threequarters" unicode="&#xbe;" horiz-adv-x="563" 
d="M234 332q-24 0 -49 5.5t-45 17t-33 29t-13 40.5q0 26 17.5 42.5t39.5 16.5q17 0 27.5 -10t10.5 -28q0 -13 -6.5 -20t-14 -12t-14 -10t-6.5 -13q0 -19 21.5 -34.5t63.5 -15.5q28 0 52.5 11.5t43.5 31t30 44t11 50.5q0 31 -12.5 56t-46.5 25q-19 0 -40 -15.5t-40 -31.5
l-10 15q31 16 57.5 30.5t46 30t30.5 34.5t11 43q0 32 -19.5 52.5t-52.5 20.5q-14 0 -31.5 -6.5t-33.5 -18t-27 -27.5t-11 -35q0 -17 9.5 -29t31.5 -12q21 0 34.5 10t21.5 17l3 -4q-14 -17 -39 -33t-53 -16q-35 0 -51 14.5t-16 37.5q0 21 15.5 40.5t41 35.5t58.5 25.5t68 9.5
q36 0 60.5 -8t39.5 -20t21.5 -27t6.5 -29q0 -28 -31.5 -54.5t-98.5 -40.5q27 1 52 -3t44 -14.5t30.5 -28t11.5 -43.5q0 -33 -17.5 -59.5t-47 -46t-69 -30t-83.5 -10.5zM226 -220q10 1 26.5 2.5t23.5 3.5q10 3 15.5 11t5.5 19v91h-212v21l258 256h26v-247q31 0 52.5 0.5
t32.5 8.5q9 7 14.5 22t5.5 27h7v-149h-7q-1 14 -6 30t-16 24q-8 7 -29.5 7h-53.5v-87q0 -11 4.5 -19t15.5 -12q8 -3 23.5 -5.5t26.5 -3.5v-7h-213v7zM44 271h474v-25h-474v25zM297 -63v185l-186 -185h186z" />
    <glyph glyph-name="threesuperior" unicode="&#xb3;" horiz-adv-x="454" 
d="M188 332q-24 0 -49 5.5t-45 17t-33 29t-13 40.5q0 26 17.5 42.5t39.5 16.5q17 0 27.5 -10t10.5 -28q0 -13 -6.5 -20t-14 -12t-14 -10t-6.5 -13q0 -19 21.5 -34.5t63.5 -15.5q28 0 52.5 11.5t43.5 31t30 44t11 50.5q0 31 -12.5 56t-46.5 25q-19 0 -40 -15.5t-40 -31.5
l-10 15q31 16 57.5 30.5t46 30t30.5 34.5t11 43q0 32 -19.5 52.5t-52.5 20.5q-14 0 -31.5 -6.5t-33.5 -18t-27 -27.5t-11 -35q0 -17 9.5 -29t31.5 -12q21 0 34.5 10t21.5 17l3 -4q-14 -17 -39 -33t-53 -16q-35 0 -51 14.5t-16 37.5q0 21 15.5 40.5t41 35.5t58.5 25.5t68 9.5
q36 0 60.5 -8t39.5 -20t21.5 -27t6.5 -29q0 -28 -31.5 -54.5t-98.5 -40.5q27 1 52 -3t44 -14.5t30.5 -28t11.5 -43.5q0 -33 -17.5 -59.5t-47 -46t-69 -30t-83.5 -10.5z" />
    <glyph glyph-name="twosuperior" unicode="&#xb2;" horiz-adv-x="458" 
d="M72 364q33 21 59.5 38t49 32.5t42 30.5t37.5 32q22 21 36 40t22 37.5t11 37.5t3 40q0 38 -21.5 61.5t-61.5 23.5q-28 0 -51 -11t-39.5 -28t-25.5 -37.5t-9 -39.5t11 -34.5t40 -15.5q15 0 27.5 5.5t23 14t18.5 18.5t13 18l6 -5q-8 -13 -19.5 -27.5t-27 -27t-35.5 -20.5
t-45 -8q-31 0 -49 16.5t-18 48.5q0 24 14.5 49t40 45.5t60 34t74.5 13.5q71 0 113 -31t42 -77q0 -32 -12 -58.5t-38 -50t-66.5 -46.5t-97.5 -48q-4 -2 -11.5 -7t-16 -10.5t-16.5 -11.5l-12 -9h213q26 0 43.5 23.5t36.5 52.5l5 -3l-62 -133h-307v27z" />
    <glyph glyph-name="brokenbar" unicode="&#xa6;" horiz-adv-x="273" 
d="M122 185h30v-392h-30v392zM122 746h30v-383h-30v383z" />
    <glyph glyph-name="minus" unicode="&#x2212;" horiz-adv-x="559" 
d="M40 276h479v-33h-479v33z" />
    <glyph glyph-name="multiply" unicode="&#xd7;" horiz-adv-x="559" 
d="M58 60l199 198l-198 198l25 24l197 -197l197 197l22 -23l-197 -196l198 -198l-24 -25l-199 198l-197 -199z" />
    <glyph glyph-name="numbersign" unicode="#" horiz-adv-x="514" 
d="M183 163l-113 -28v78l113 27v123l-113 -28v77l113 28v187h10v-184l127 33v151h11v-148l113 28v-77l-113 -28v-123l113 28v-76l-113 -28v-210h-11v206l-127 -32v-174h-10v170zM320 276v123l-127 -33v-123z" />
    <glyph glyph-name="dollar" unicode="$" horiz-adv-x="601" 
d="M255 -5q-41 4 -76 16.5t-60 31t-39 42.5t-14 52q0 42 18.5 65.5t48.5 23.5q26 0 39 -16t13 -42q0 -18 -6.5 -27.5t-15 -16t-17.5 -12t-15 -15.5q0 -18 10 -33t27.5 -27t40 -19.5t46.5 -10.5v265q-35 4 -67 14t-56 28.5t-38.5 47t-14.5 71.5q0 32 11 61.5t33 54t55 42
t77 24.5v98h14v-96q7 1 21 2t22 1h20t21 -2v95h14v-96q76 -10 114.5 -44.5t38.5 -77.5q0 -35 -15.5 -57.5t-41.5 -22.5q-20 0 -36 12.5t-16 38.5q0 16 6.5 26.5t14.5 19.5t16.5 17.5t11.5 20.5q-5 16 -29.5 32.5t-63.5 23.5v-247q34 -6 65.5 -15.5t55.5 -28t38.5 -49
t14.5 -78.5q0 -27 -9 -56.5t-30 -55.5t-54 -46.5t-81 -30.5v-141h-14v139q-13 -2 -28 -3t-29 -1h-14t-13 1v-136h-14v137zM269 5q5 0 13.5 -0.5t13.5 -0.5q15 0 30.5 1.5t26.5 3.5v251q-17 3 -40 5.5t-44 4.5v-265zM353 607q-8 2 -18 2h-18q-9 0 -23.5 -1t-24.5 -3v-234
l84 -10v246zM367 13q25 7 42.5 21t29 31.5t16.5 37t5 36.5q0 48 -24 79t-69 39v-244zM255 602q-22 -6 -39 -17.5t-29 -27t-18 -33t-6 -35.5q0 -53 25 -80t67 -35v228z" />
    <glyph glyph-name="percent" unicode="%" horiz-adv-x="847" 
d="M219 302q-31 0 -59.5 9.5t-50 29t-34.5 48.5t-13 68q0 36 14 66t36.5 51.5t50.5 33.5t56 12q31 0 60.5 -9t52.5 -28.5t37 -50.5t14 -74q0 -33 -14 -61.5t-37 -49.5t-52.5 -33t-60.5 -12zM223 310q37 0 61 41t24 105q0 68 -22 112t-65 44q-23 0 -39 -12.5t-26 -33t-15 -48
t-5 -57.5t4.5 -57.5t15 -48.5t27 -33t40.5 -12zM621 -14q-31 0 -59.5 10t-50 29.5t-34.5 48.5t-13 67q0 36 14 65.5t36.5 51.5t50.5 34t56 12q31 0 60.5 -9t52.5 -28.5t37 -50.5t14 -74q0 -33 -14 -61.5t-37 -49.5t-52.5 -33t-60.5 -12zM626 -7q17 0 32.5 11.5t27 31.5
t18 46.5t6.5 57.5q0 33 -5.5 61.5t-16 49.5t-27 33t-37.5 12q-23 0 -39 -13t-26.5 -34t-15.5 -48t-5 -56q0 -30 5 -57.5t15.5 -48.5t27 -33.5t40.5 -12.5zM200 -87l428 774l18 -9l-430 -774z" />
    <glyph glyph-name="asterisk" unicode="*" horiz-adv-x="382" 
d="M192 396q-13 0 -19 6.5t-6 17.5q0 7 2.5 21t6.5 31t7 35.5t5 34.5q-26 -17 -50 -40.5t-40 -35.5q-21 -17 -35 3q-8 12 -3.5 21.5t15.5 14.5q17 9 46.5 17.5t65.5 24.5q-36 16 -66.5 24.5t-48.5 18.5q-11 6 -14.5 15.5t3.5 20.5q8 11 18.5 10.5t18.5 -7.5q8 -6 18.5 -15.5
t22 -20t24 -21.5t25.5 -20q-2 16 -5 35t-7 36t-6.5 30.5t-2.5 20.5q0 24 25 24q14 0 19.5 -7t5.5 -17q0 -6 -2.5 -20t-6.5 -31.5t-7.5 -36t-5.5 -34.5q27 20 51 43.5t40 34.5q10 7 19 6t15 -11q8 -12 3.5 -20.5t-12.5 -13.5q-16 -10 -47.5 -19t-67.5 -25q33 -14 63 -23
t49 -19q12 -6 15.5 -15.5t-3.5 -20.5q-8 -11 -17.5 -11t-17.5 6q-16 12 -40 35.5t-50 42.5q2 -16 5.5 -34.5t7.5 -36t6.5 -31.5t2.5 -20q0 -10 -6.5 -17t-18.5 -7z" />
    <glyph glyph-name="plus" unicode="+" horiz-adv-x="559" 
d="M262 242h-224v35h224v224h35v-224h223v-35h-223v-223h-35v223z" />
    <glyph glyph-name="slash" unicode="/" horiz-adv-x="403" 
d="M31 -200l313 952l27 -8l-313 -952z" />
    <glyph glyph-name="less" unicode="&#x3c;" horiz-adv-x="559" 
d="M54 247v26l442 213v-36l-397 -190l397 -190v-36z" />
    <glyph glyph-name="equal" unicode="=" horiz-adv-x="559" 
d="M58 191h442v-34h-442v34zM58 363h442v-34h-442v34z" />
    <glyph glyph-name="greater" unicode="&#x3e;" horiz-adv-x="559" 
d="M62 70l397 190l-397 190v36l442 -213v-26l-442 -213v36z" />
    <glyph glyph-name="at" unicode="@" horiz-adv-x="996" 
d="M509 -215q-78 0 -153.5 25t-134.5 74.5t-95.5 123t-36.5 171.5q0 96 37.5 182.5t102.5 152t153.5 104t189.5 38.5q78 0 139 -25.5t103 -69.5t63.5 -102.5t21.5 -124.5q0 -62 -20.5 -116.5t-54 -95.5t-77.5 -65t-91 -24q-38 0 -65.5 21t-27.5 65l-3 1q-20 -34 -51.5 -59.5
t-66.5 -25.5q-15 0 -33 5.5t-34 20.5t-26.5 41t-10.5 66q0 31 15 75.5t43.5 85t69.5 69t93 28.5q27 0 49.5 -15.5t26.5 -47.5h3l22 57h61l-93 -266q-5 -12 -8 -28.5t-3 -27.5q0 -24 10 -39.5t36 -15.5q37 0 76 21t70.5 59.5t52 93.5t20.5 123q0 63 -22 117.5t-62.5 94
t-97.5 62t-128 22.5t-141.5 -30.5t-126.5 -88.5t-91.5 -142t-35.5 -191q0 -91 27.5 -160.5t74.5 -116.5t108.5 -71t130.5 -24q75 0 141 20t120.5 58.5t96 96t67.5 132.5l8 -3q-24 -80 -68.5 -141.5t-103.5 -103.5t-128 -64t-142 -22zM452 54q40 0 67 28t49 69l64 190
q-7 43 -27.5 58t-48.5 15q-21 0 -40.5 -13t-36.5 -35t-31.5 -50.5t-24.5 -58.5t-15.5 -60.5t-5.5 -55.5q0 -29 5 -46t12.5 -26t16 -12t16.5 -3z" />
    <glyph glyph-name="bracketleft" unicode="[" horiz-adv-x="549" 
d="M476 -196q6 6 12.5 18.5t6.5 25.5q0 6 -1.5 14t-10 15.5t-27.5 12.5t-53 5q-36 0 -70.5 -3t-70.5 -9t-76 -14.5t-88 -19.5l-23 -8v886l23 -8q48 -11 88 -19.5t76 -14.5t70.5 -9t70.5 -3q34 0 53 4t27.5 11t10 15.5t1.5 16.5q0 13 -5 24t-11 19l5 3q8 -6 17 -23.5t9 -36.5
q0 -50 -31 -81t-99 -31q-40 0 -73.5 9.5t-65 25.5t-65 36.5t-73.5 42.5v-848q40 22 73.5 42.5t65 36.5t65 25.5t73.5 9.5q68 0 99 -31t31 -81q0 -21 -11 -37.5t-18 -23.5z" />
    <glyph glyph-name="backslash" unicode="\" horiz-adv-x="403" 
d="M31 744l27 8l313 -952l-27 -8z" />
    <glyph glyph-name="bracketright" unicode="]" horiz-adv-x="549" 
d="M71 -199q-7 7 -18 23.5t-11 37.5q0 50 31 81t98 31q40 0 73.5 -9.5t65.5 -25.5t65.5 -36.5t73.5 -42.5v848q-40 -22 -73.5 -42.5t-65.5 -36.5t-65.5 -25.5t-73.5 -9.5q-67 0 -98 31t-31 81q0 19 9 36.5t17 23.5l5 -3q-6 -8 -11 -19t-5 -24q0 -8 1.5 -16.5t10 -15.5
t27 -11t53.5 -4q36 0 70 3t70 9t76 14.5t88 19.5l23 8v-886l-23 8q-48 11 -88 19.5t-76 14.5t-70 9t-70 3q-35 0 -53.5 -5t-27 -12.5t-10 -15.5t-1.5 -14q0 -13 6.5 -25.5t12.5 -18.5l-5 -3v0z" />
    <glyph glyph-name="asciicircum" unicode="^" horiz-adv-x="444" 
d="M55 410l-5 5q23 36 40 61t30 44.5t24.5 36.5t24.5 38q9 14 20.5 19t31.5 5t32 -5t22 -19q13 -19 25 -36t25 -37t29.5 -45.5t39.5 -61.5l-5 -5l-167 134z" />
    <glyph glyph-name="underscore" unicode="_" horiz-adv-x="597" 
d="M-7 -109h610v-35h-610v35z" />
    <glyph glyph-name="braceleft" unicode="{" horiz-adv-x="414" 
d="M387 -169q-52 0 -92 6.5t-67.5 25t-41.5 52t-14 87.5q0 31 8 64t8 65q0 40 -11.5 64t-32 38t-49.5 19.5t-64 8.5v53q36 3 65 9t49.5 19.5t31.5 37.5t11 64q0 32 -8 65t-8 64q0 54 14 87.5t41.5 52t67.5 25t92 6.5v-7q-21 -1 -43 -5.5t-40 -18.5t-29 -39.5t-11 -68.5
q0 -30 4.5 -58t4.5 -58q0 -53 -15 -85t-39.5 -50.5t-57 -27t-68.5 -14.5v-49q35 -6 67.5 -14.5t57.5 -27t40 -51t15 -84.5q0 -30 -4.5 -58t-4.5 -58q0 -44 11.5 -69.5t29 -39t39.5 -18t43 -5.5v-7v0z" />
    <glyph glyph-name="bar" unicode="|" horiz-adv-x="273" 
d="M122 746h30v-953h-30v953z" />
    <glyph glyph-name="braceright" unicode="}" horiz-adv-x="414" 
d="M27 -162q21 1 43 5.5t39.5 18t29 39t11.5 69.5q0 30 -4.5 58t-4.5 58q0 52 15 84.5t40 51t57.5 27t67.5 14.5v49q-36 6 -68.5 14.5t-57 27t-39.5 50.5t-15 85q0 30 4.5 58t4.5 58q0 43 -11.5 68.5t-29 39.5t-39.5 18.5t-43 5.5v7q52 0 92 -6.5t67.5 -25t41.5 -52
t14 -87.5q0 -31 -8 -64t-8 -65q0 -40 11 -64t31.5 -37.5t49.5 -19.5t65 -9v-53q-35 -3 -64 -8.5t-49.5 -19.5t-32 -38t-11.5 -64q0 -32 8 -65t8 -64q0 -54 -14 -87.5t-41.5 -52t-67.5 -25t-92 -6.5v7z" />
    <glyph glyph-name="asciitilde" unicode="~" horiz-adv-x="524" 
d="M52 194q6 23 19 45.5t31 40t40.5 28.5t47.5 11q28 0 51.5 -7t44.5 -15.5t40.5 -15.5t38.5 -7q38 0 61.5 16t40.5 48l5 -2q-7 -24 -18.5 -47t-28 -41t-37 -29t-45.5 -11q-30 0 -54 7t-44.5 15.5t-39 15.5t-37.5 7q-38 0 -65.5 -14.5t-44.5 -46.5z" />
    <glyph glyph-name="Adieresis" unicode="&#xc4;" horiz-adv-x="680" 
d="M-24 7q14 1 31.5 5t31.5 12q18 11 32 32.5t25 47.5q27 64 56.5 137.5t60 150t61 153.5t59.5 149h18q38 -97 77 -193t73.5 -179t61 -148t40.5 -100q6 -15 14.5 -28.5t26.5 -24.5q14 -8 30.5 -10.5t30.5 -3.5v-7h-315v7q13 1 30.5 3t33.5 6t28 10t14 15q2 7 0 14.5t-4 13.5
l-71 183h-248q-7 -17 -14.5 -37t-14.5 -39.5t-12.5 -36.5t-8.5 -28q-5 -17 -9.5 -33t-4.5 -27q0 -14 14 -22t33.5 -12.5t40.5 -6.5t34 -3v-7h-255v7zM415 266l-119 301l-118 -301h237zM230 763q-23 0 -40 17t-17 40q0 24 17 41.5t40 17.5q26 0 43 -16.5t17 -38.5
q0 -25 -17 -43t-43 -18zM448 763q-24 0 -41 17t-17 40q0 24 17 41.5t41 17.5q26 0 42.5 -16.5t16.5 -38.5q0 -25 -17 -43t-42 -18z" />
    <glyph glyph-name="Aring" unicode="&#xc5;" horiz-adv-x="680" 
d="M-24 7q14 1 31.5 5t31.5 12q18 11 32 32.5t25 47.5q27 64 56.5 137.5t60 150t61 153.5t59.5 149h18q38 -97 77 -193t73.5 -179t61 -148t40.5 -100q6 -15 14.5 -28.5t26.5 -24.5q14 -8 30.5 -10.5t30.5 -3.5v-7h-315v7q13 1 30.5 3t33.5 6t28 10t14 15q2 7 0 14.5t-4 13.5
l-71 183h-248q-7 -17 -14.5 -37t-14.5 -39.5t-12.5 -36.5t-8.5 -28q-5 -17 -9.5 -33t-4.5 -27q0 -14 14 -22t33.5 -12.5t40.5 -6.5t34 -3v-7h-255v7zM415 266l-119 301l-118 -301h237zM340 731q-52 0 -82 26.5t-30 71.5q0 44 32.5 71t79.5 27q49 0 80.5 -26.5t31.5 -71.5
q0 -43 -30.5 -70.5t-81.5 -27.5zM340 740q32 0 46 27.5t14 61.5q0 16 -3.5 32t-10.5 28.5t-18.5 20.5t-27.5 8t-27 -7.5t-18.5 -20t-11 -28.5t-3.5 -33t3.5 -32.5t10.5 -28.5t18.5 -20.5t27.5 -7.5z" />
    <glyph glyph-name="Ccedilla" unicode="&#xc7;" horiz-adv-x="653" 
d="M368 -15q-7 0 -13 0.5t-12 0.5v-44q27 0 53 -3t45.5 -11t31.5 -23t12 -39q0 -33 -18 -52t-47.5 -28.5t-66.5 -12.5t-76 -3v12q23 0 47.5 2t44.5 8.5t33 19t13 33.5q0 13 -8 21t-20 12.5t-27 5.5t-30 1v102q-66 6 -120 33t-92.5 72t-59.5 106t-21 135q0 77 26.5 143.5
t74 115t112 76.5t139.5 28q64 0 108 -18t67 -39l38 54h9l4 -247h-9q-14 43 -35 85.5t-51 76t-69 54t-87 20.5q-46 0 -84 -21.5t-65.5 -64t-42.5 -106.5t-15 -149q0 -68 16.5 -126.5t47.5 -101t75.5 -67t100.5 -24.5q46 0 82.5 12.5t65 33.5t49.5 49.5t36 61.5l11 -6
q-15 -35 -38.5 -68.5t-56.5 -60t-77 -43t-101 -16.5z" />
    <glyph glyph-name="Eacute" unicode="&#xc9;" horiz-adv-x="666" 
d="M38 0h592l13 192h-9q-4 -11 -14.5 -32.5t-23.5 -45.5t-27.5 -45.5t-25.5 -33.5q-9 -9 -27 -14t-41 -7t-49.5 -2h-52.5q-38 0 -61.5 2.5t-36 12t-17 27.5t-4.5 49v245h100q20 0 34 -3t23.5 -7.5t15.5 -10.5l11 -11q4 -5 10 -17.5t11.5 -28.5t9.5 -31.5t5 -26.5h9v279h-9
q-1 -10 -4.5 -24.5t-9 -29t-11 -27t-11.5 -18.5l-10.5 -10.5t-15 -10t-23.5 -8t-35 -3.5h-100v312h113q24 0 53.5 -1t47.5 -3q16 -2 34 -18t34 -37.5t28 -45t16 -39.5h9v155h-551v-7q7 0 17.5 -1.5t21.5 -3.5t22 -4.5t18 -5.5q19 -8 25 -21.5t6 -30.5v-541q0 -17 -6.5 -29.5
t-24.5 -19.5q-6 -2 -16.5 -4t-22 -3.5t-22.5 -3t-18 -1.5v-7zM330 738l-4 3q23 41 39.5 74t30.5 56q11 20 23 27t26 7t24 -9t10 -22q0 -15 -7.5 -24t-21.5 -20q-18 -14 -45 -33.5t-75 -58.5z" />
    <glyph glyph-name="Ntilde" unicode="&#xd1;" horiz-adv-x="776" 
d="M158 585v-409q0 -65 8.5 -96t25.5 -43q8 -6 22.5 -11.5t30 -9.5t29.5 -6.5t21 -2.5v-7h-277v7q7 0 20.5 3t27.5 7t27 8.5t18 8.5q18 14 25.5 46t7.5 91v392q0 22 -11 48t-26 38q-9 7 -22.5 12t-27.5 8t-28 5t-24 2v7h206l431 -529v348q0 54 -8.5 94.5t-25.5 54.5
q-9 7 -23 11.5t-28.5 7.5t-28 4.5t-22.5 1.5v7h275v-7q-7 0 -19 -2t-25.5 -5t-26.5 -7t-21 -10q-10 -7 -16.5 -22t-10 -35t-5 -44t-1.5 -49v-509h-17zM220 759q6 17 17.5 39t27 41t36 32t44.5 13q29 0 51.5 -9t41 -20t36 -20t35.5 -9q34 0 55 17.5t36 49.5l9 -3
q-5 -18 -16.5 -40t-28 -40.5t-38 -31.5t-45.5 -13q-30 0 -52 8.5t-40.5 19t-35.5 19.5t-38 9q-29 0 -47.5 -16t-38.5 -50z" />
    <glyph glyph-name="Odieresis" unicode="&#xd6;" horiz-adv-x="775" 
d="M384 -16q-69 0 -129.5 24t-109.5 70q-50 47 -78.5 110.5t-28.5 145.5q0 164 97 261q51 52 115.5 78t137.5 26q71 0 134 -24.5t120 -79.5q45 -45 70 -110t25 -139q0 -78 -24 -145.5t-80 -120.5q-48 -46 -109.5 -71t-139.5 -25zM388 -4q58 0 101 26.5t71 73.5t42 110
t14 137q0 65 -12.5 127t-39.5 110t-70.5 77.5t-105.5 29.5q-53 0 -95.5 -24t-72 -69t-45.5 -109.5t-16 -145.5q0 -71 14 -133t42 -109t71 -74t102 -27zM277 764q-23 0 -40 17t-17 40q0 24 17 41.5t40 17.5q26 0 43 -16.5t17 -38.5q0 -25 -17 -43t-43 -18zM495 764
q-24 0 -41 17t-17 40q0 24 17 41.5t41 17.5q26 0 42.5 -16.5t16.5 -38.5q0 -25 -17 -43t-42 -18z" />
    <glyph glyph-name="Udieresis" unicode="&#xdc;" horiz-adv-x="791" 
d="M400 -16q-66 0 -115.5 16t-82.5 43t-50 62.5t-17 74.5v433q0 17 -7 29t-24 21q-14 7 -36 9.5t-34 3.5v7h311v-7q-14 -1 -36 -4.5t-36 -8.5q-19 -6 -25 -19t-6 -30v-421q0 -27 6.5 -57.5t26 -56t55 -42.5t94.5 -17q60 0 101.5 16.5t68 43t38.5 58.5t12 64v311
q0 112 -34 134q-26 17 -55.5 22.5t-46.5 6.5v7h275v-7q-7 0 -19 -2t-25.5 -5.5t-26.5 -7.5t-21 -9q-20 -13 -26.5 -49.5t-6.5 -83.5v-321q0 -61 -26.5 -102t-65.5 -66t-84 -35.5t-82 -10.5zM319 764q-23 0 -40 17t-17 40q0 24 17 41.5t40 17.5q26 0 43 -16.5t17 -38.5
q0 -25 -17 -43t-43 -18zM537 764q-24 0 -41 17t-17 40q0 24 17 41.5t41 17.5q26 0 42.5 -16.5t16.5 -38.5q0 -25 -17 -43t-42 -18z" />
    <glyph glyph-name="aacute" unicode="&#xe1;" horiz-adv-x="490" 
d="M153 -12q45 0 83 18.5t65 50.5h3q12 -35 32.5 -51t55.5 -16q47 0 74 29.5t32 99.5h-10q-1 -14 -4.5 -29t-9.5 -27t-15.5 -20t-21.5 -8t-21 6t-15 14t-8.5 16.5t-2.5 14.5q0 12 1 37.5t1.5 57.5t1.5 67.5t1 68.5q0 50 -13 79.5t-36 44.5t-54.5 19.5t-68.5 4.5
q-29 0 -57.5 -8t-51.5 -22.5t-37.5 -34t-14.5 -41.5q0 -20 10 -36t35 -16q27 0 42.5 13.5t15.5 29.5q0 17 -5.5 37.5t-5.5 40.5q7 8 20.5 17.5t42.5 9.5q31 0 48.5 -13.5t25.5 -31t10 -34.5t2 -24v-71q-32 -17 -78.5 -30.5t-89.5 -30.5q-19 -7 -36.5 -16t-31 -23.5t-22 -35
t-8.5 -51.5q0 -48 32 -77t84 -29zM202 23q-32 0 -50 22t-18 64q0 33 12.5 57.5t35 43t53.5 32t69 25.5l-4 -196q-18 -23 -41.5 -35.5t-56.5 -12.5zM211 503l-4 3q23 41 39.5 74t30.5 56q11 20 23 27t26 7t24 -9t10 -22q0 -15 -7.5 -24t-21.5 -20q-18 -14 -45 -33.5
t-75 -58.5z" />
    <glyph glyph-name="agrave" unicode="&#xe0;" horiz-adv-x="490" 
d="M153 -12q-52 0 -84 29t-32 77q0 31 8.5 51.5t22 35t31 23.5t36.5 16q43 17 89.5 30.5t78.5 30.5v71q0 7 -2 24t-10 34.5t-25.5 31t-48.5 13.5q-29 0 -42.5 -9.5t-20.5 -17.5q0 -20 5.5 -40.5t5.5 -37.5q0 -16 -15.5 -29.5t-42.5 -13.5q-25 0 -35 16t-10 36
q0 22 14.5 41.5t37.5 34t51.5 22.5t57.5 8q37 0 68.5 -4.5t54.5 -19.5t36 -44.5t13 -79.5q0 -33 -1 -68.5t-1.5 -67.5t-1.5 -57.5t-1 -37.5q0 -6 2.5 -14.5t8.5 -16.5t15 -14t21 -6t21.5 8t15.5 20t9.5 27t4.5 29h10q-5 -70 -32 -99.5t-74 -29.5q-35 0 -55.5 16t-32.5 51h-3
q-27 -32 -65 -50.5t-83 -18.5zM202 23q33 0 56.5 12.5t41.5 35.5l4 196q-38 -12 -69 -25.5t-53.5 -32t-35 -43t-12.5 -57.5q0 -42 18 -64t50 -22zM307 503q-48 39 -75 58.5t-45 33.5q-14 11 -21 20t-7 24q0 13 9 22t24 9q14 0 26 -7t23 -27q14 -23 31 -56t40 -74z" />
    <glyph glyph-name="acircumflex" unicode="&#xe2;" horiz-adv-x="490" 
d="M153 -12q-52 0 -84 29t-32 77q0 31 8.5 51.5t22 35t31 23.5t36.5 16q43 17 89.5 30.5t78.5 30.5v71q0 7 -2 24t-10 34.5t-25.5 31t-48.5 13.5q-29 0 -42.5 -9.5t-20.5 -17.5q0 -20 5.5 -40.5t5.5 -37.5q0 -16 -15.5 -29.5t-42.5 -13.5q-25 0 -35 16t-10 36
q0 22 14.5 41.5t37.5 34t51.5 22.5t57.5 8q37 0 68.5 -4.5t54.5 -19.5t36 -44.5t13 -79.5q0 -33 -1 -68.5t-1.5 -67.5t-1.5 -57.5t-1 -37.5q0 -6 2.5 -14.5t8.5 -16.5t15 -14t21 -6t21.5 8t15.5 20t9.5 27t4.5 29h10q-5 -70 -32 -99.5t-74 -29.5q-35 0 -55.5 16t-32.5 51h-3
q-27 -32 -65 -50.5t-83 -18.5zM202 23q33 0 56.5 12.5t41.5 35.5l4 196q-38 -12 -69 -25.5t-53.5 -32t-35 -43t-12.5 -57.5q0 -42 18 -64t50 -22zM125 508q32 46 54.5 75t36.5 51q7 10 12 13.5t23 3.5q17 0 21.5 -3t10.5 -13q15 -21 38 -50.5t55 -76.5l-6 -5l-121 83
l-119 -83z" />
    <glyph glyph-name="adieresis" unicode="&#xe4;" horiz-adv-x="490" 
d="M153 -12q-52 0 -84 29t-32 77q0 31 8.5 51.5t22 35t31 23.5t36.5 16q43 17 89.5 30.5t78.5 30.5v71q0 7 -2 24t-10 34.5t-25.5 31t-48.5 13.5q-29 0 -42.5 -9.5t-20.5 -17.5q0 -20 5.5 -40.5t5.5 -37.5q0 -16 -15.5 -29.5t-42.5 -13.5q-25 0 -35 16t-10 36
q0 22 14.5 41.5t37.5 34t51.5 22.5t57.5 8q37 0 68.5 -4.5t54.5 -19.5t36 -44.5t13 -79.5q0 -33 -1 -68.5t-1.5 -67.5t-1.5 -57.5t-1 -37.5q0 -6 2.5 -14.5t8.5 -16.5t15 -14t21 -6t21.5 8t15.5 20t9.5 27t4.5 29h10q-5 -70 -32 -99.5t-74 -29.5q-35 0 -55.5 16t-32.5 51h-3
q-27 -32 -65 -50.5t-83 -18.5zM202 23q33 0 56.5 12.5t41.5 35.5l4 196q-38 -12 -69 -25.5t-53.5 -32t-35 -43t-12.5 -57.5q0 -42 18 -64t50 -22zM135 555q-23 0 -40 17t-17 40q0 24 17 41.5t40 17.5q26 0 43 -16.5t17 -38.5q0 -25 -17 -43t-43 -18zM353 555q-24 0 -41 17
t-17 40q0 24 17 41.5t41 17.5q26 0 42.5 -16.5t16.5 -38.5q0 -25 -17 -43t-42 -18z" />
    <glyph glyph-name="atilde" unicode="&#xe3;" horiz-adv-x="490" 
d="M153 -12q-52 0 -84 29t-32 77q0 31 8.5 51.5t22 35t31 23.5t36.5 16q43 17 89.5 30.5t78.5 30.5v71q0 7 -2 24t-10 34.5t-25.5 31t-48.5 13.5q-29 0 -42.5 -9.5t-20.5 -17.5q0 -20 5.5 -40.5t5.5 -37.5q0 -16 -15.5 -29.5t-42.5 -13.5q-25 0 -35 16t-10 36
q0 22 14.5 41.5t37.5 34t51.5 22.5t57.5 8q37 0 68.5 -4.5t54.5 -19.5t36 -44.5t13 -79.5q0 -33 -1 -68.5t-1.5 -67.5t-1.5 -57.5t-1 -37.5q0 -6 2.5 -14.5t8.5 -16.5t15 -14t21 -6t21.5 8t15.5 20t9.5 27t4.5 29h10q-5 -70 -32 -99.5t-74 -29.5q-35 0 -55.5 16t-32.5 51h-3
q-27 -32 -65 -50.5t-83 -18.5zM202 23q33 0 56.5 12.5t41.5 35.5l4 196q-38 -12 -69 -25.5t-53.5 -32t-35 -43t-12.5 -57.5q0 -42 18 -64t50 -22zM136 530q4 12 11 26t17.5 26t24 20.5t28.5 8.5q19 0 33.5 -5t26.5 -10.5t23 -10.5t23 -5q21 0 33 8.5t23 28.5l9 -2
q-3 -11 -10.5 -25t-18.5 -26t-24.5 -20.5t-29.5 -8.5q-20 0 -34 5t-26 11t-23 11t-24 5q-18 0 -29 -8t-24 -31z" />
    <glyph glyph-name="aring" unicode="&#xe5;" horiz-adv-x="490" 
d="M153 -12q-52 0 -84 29t-32 77q0 31 8.5 51.5t22 35t31 23.5t36.5 16q43 17 89.5 30.5t78.5 30.5v71q0 7 -2 24t-10 34.5t-25.5 31t-48.5 13.5q-29 0 -42.5 -9.5t-20.5 -17.5q0 -20 5.5 -40.5t5.5 -37.5q0 -16 -15.5 -29.5t-42.5 -13.5q-25 0 -35 16t-10 36
q0 22 14.5 41.5t37.5 34t51.5 22.5t57.5 8q37 0 68.5 -4.5t54.5 -19.5t36 -44.5t13 -79.5q0 -33 -1 -68.5t-1.5 -67.5t-1.5 -57.5t-1 -37.5q0 -6 2.5 -14.5t8.5 -16.5t15 -14t21 -6t21.5 8t15.5 20t9.5 27t4.5 29h10q-5 -70 -32 -99.5t-74 -29.5q-35 0 -55.5 16t-32.5 51h-3
q-27 -32 -65 -50.5t-83 -18.5zM202 23q33 0 56.5 12.5t41.5 35.5l4 196q-38 -12 -69 -25.5t-53.5 -32t-35 -43t-12.5 -57.5q0 -42 18 -64t50 -22zM245 531q-52 0 -82 26.5t-30 71.5q0 44 32.5 71t79.5 27q49 0 80.5 -26.5t31.5 -71.5q0 -43 -30.5 -70.5t-81.5 -27.5z
M245 540q32 0 46 27.5t14 61.5q0 16 -3.5 32t-10.5 28.5t-18.5 20.5t-27.5 8t-27 -7.5t-18.5 -20t-11 -28.5t-3.5 -33t3.5 -32.5t10.5 -28.5t18.5 -20.5t27.5 -7.5z" />
    <glyph glyph-name="ccedilla" unicode="&#xe7;" horiz-adv-x="435" 
d="M137 -218q23 0 47.5 2t44.5 8.5t33 19t13 33.5q0 13 -8 21t-20 12.5t-27 5.5t-30 1v109q-40 9 -69.5 30t-49 51.5t-29.5 69.5t-10 83q0 46 15.5 89t44 76t70 52.5t92.5 19.5q39 0 68 -9.5t48.5 -25.5t29 -37t9.5 -44q0 -25 -15.5 -40.5t-40.5 -15.5q-8 0 -17 2.5t-16.5 8
t-13 15t-5.5 24.5q0 16 3.5 27t7.5 19.5t7.5 15.5t3.5 14q-3 17 -23 26.5t-46 9.5q-25 0 -47 -13t-38.5 -39.5t-26 -67.5t-9.5 -98q0 -48 9.5 -87.5t27.5 -68t44 -44t59 -15.5q54 0 90.5 23.5t61.5 67.5l9 -6q-28 -50 -76.5 -84.5t-108.5 -34.5q-12 0 -23.5 1t-22.5 3v-50
q27 0 53 -3t45.5 -11t31.5 -23t12 -39q0 -33 -18 -52t-47.5 -28.5t-66.5 -12.5t-76 -3v12z" />
    <glyph glyph-name="eacute" unicode="&#xe9;" horiz-adv-x="456" 
d="M253 -12q63 0 111.5 33.5t74.5 87.5l-8 5q-14 -23 -28.5 -40.5t-32 -29.5t-39.5 -18.5t-51 -6.5q-43 0 -71.5 18.5t-46 50t-24.5 74.5t-7 91v17h298v9q0 36 -10 70t-32 59.5t-58 41t-87 15.5q-50 0 -89 -20t-66 -52.5t-41 -75t-14 -87.5q0 -50 13.5 -94t40.5 -77
t68.5 -52t98.5 -19zM131 280q1 39 9.5 71t23 55.5t34 36t43.5 12.5q28 0 46 -16t28 -40.5t13.5 -55.5t3.5 -61zM208 503l-4 3q23 41 39.5 74t30.5 56q11 20 23 27t26 7t24 -9t10 -22q0 -15 -7.5 -24t-21.5 -20q-18 -14 -45 -33.5t-75 -58.5z" />
    <glyph glyph-name="egrave" unicode="&#xe8;" horiz-adv-x="456" 
d="M253 -12q-57 0 -98.5 19t-68.5 52t-40.5 77t-13.5 94q0 45 14 87.5t41 75t66 52.5t89 20q51 0 87 -15.5t58 -41t32 -59.5t10 -70v-9h-298v-17q0 -48 7 -91t24.5 -74.5t46 -50t71.5 -18.5q29 0 51 6.5t39.5 18.5t32 29.5t28.5 40.5l8 -5q-26 -54 -74.5 -87.5t-111.5 -33.5
zM332 282q0 30 -3.5 61t-13.5 55.5t-28 40.5t-46 16q-24 0 -43.5 -12.5t-34 -36t-23 -55.5t-9.5 -71zM307 503q-48 39 -75 58.5t-45 33.5q-14 11 -21 20t-7 24q0 13 9 22t24 9q14 0 26 -7t23 -27q14 -23 31 -56t40 -74z" />
    <glyph glyph-name="ecircumflex" unicode="&#xea;" horiz-adv-x="456" 
d="M253 -12q-57 0 -98.5 19t-68.5 52t-40.5 77t-13.5 94q0 45 14 87.5t41 75t66 52.5t89 20q51 0 87 -15.5t58 -41t32 -59.5t10 -70v-9h-298v-17q0 -48 7 -91t24.5 -74.5t46 -50t71.5 -18.5q29 0 51 6.5t39.5 18.5t32 29.5t28.5 40.5l8 -5q-26 -54 -74.5 -87.5t-111.5 -33.5
zM332 282q0 30 -3.5 61t-13.5 55.5t-28 40.5t-46 16q-24 0 -43.5 -12.5t-34 -36t-23 -55.5t-9.5 -71zM123 508q32 46 54.5 75t36.5 51q7 10 12 13.5t23 3.5q17 0 21.5 -3t10.5 -13q15 -21 38 -50.5t55 -76.5l-6 -5l-121 83l-119 -83z" />
    <glyph glyph-name="edieresis" unicode="&#xeb;" horiz-adv-x="456" 
d="M253 -12q-57 0 -98.5 19t-68.5 52t-40.5 77t-13.5 94q0 45 14 87.5t41 75t66 52.5t89 20q51 0 87 -15.5t58 -41t32 -59.5t10 -70v-9h-298v-17q0 -48 7 -91t24.5 -74.5t46 -50t71.5 -18.5q29 0 51 6.5t39.5 18.5t32 29.5t28.5 40.5l8 -5q-26 -54 -74.5 -87.5t-111.5 -33.5
zM332 282q0 30 -3.5 61t-13.5 55.5t-28 40.5t-46 16q-24 0 -43.5 -12.5t-34 -36t-23 -55.5t-9.5 -71zM128 555q-23 0 -40 17t-17 40q0 24 17 41.5t40 17.5q26 0 43 -16.5t17 -38.5q0 -25 -17 -43t-43 -18zM346 555q-24 0 -41 17t-17 40q0 24 17 41.5t41 17.5
q26 0 42.5 -16.5t16.5 -38.5q0 -25 -17 -43t-42 -18z" />
    <glyph glyph-name="iacute" unicode="&#xed;" horiz-adv-x="281" 
d="M33 0h236v7q-13 1 -24.5 2.5t-22.5 6.5q-14 6 -20.5 18.5t-6.5 29.5v390l-4 4l-173 -11v-6q14 -1 32 -4t27 -9q12 -8 18.5 -22.5t8.5 -30.5v-316q0 -17 -6.5 -28.5t-20.5 -16.5q-11 -3 -20.5 -4.5t-23.5 -2.5v-7zM129 503l-4 3q23 41 39.5 74t30.5 56q11 20 23 27t26 7
t24 -9t10 -22q0 -15 -7.5 -24t-21.5 -20q-18 -14 -45 -33.5t-75 -58.5z" />
    <glyph glyph-name="igrave" unicode="&#xec;" horiz-adv-x="286" 
d="M33 7q14 1 23.5 2.5t20.5 4.5q14 5 20.5 16.5t6.5 28.5v316q-2 16 -8.5 30.5t-18.5 22.5q-9 6 -27 9t-32 4v6l173 11l4 -4v-390q0 -17 6.5 -29.5t20.5 -18.5q11 -5 22.5 -6.5t24.5 -2.5v-7h-236v7zM182 503q-48 39 -75 58.5t-45 33.5q-14 11 -21 20t-7 24q0 13 9 22t24 9
q14 0 26 -7t23 -27q14 -23 31 -56t40 -74z" />
    <glyph glyph-name="icircumflex" unicode="&#xee;" horiz-adv-x="286" 
d="M-3 535q28 54 50.5 100.5t39.5 78.5q6 11 16 16.5t29 5.5q17 0 27.5 -4.5t15.5 -15.5q15 -29 37.5 -75.5t52.5 -105.5l-6 -4l-128 130l-129 -130zM33 7q14 1 23.5 2.5t20.5 4.5q14 5 20.5 16.5t6.5 28.5v316q-2 16 -8.5 30.5t-18.5 22.5q-9 6 -27 9t-32 4v6l173 11l4 -4
v-390q0 -17 6.5 -29.5t20.5 -18.5q11 -5 22.5 -6.5t24.5 -2.5v-7h-236v7z" />
    <glyph glyph-name="idieresis" unicode="&#xef;" horiz-adv-x="286" 
d="M34 555q-23 0 -39.5 16.5t-16.5 39.5q0 24 16.5 41t39.5 17q25 0 41.5 -16t16.5 -39q0 -24 -16.5 -41.5t-41.5 -17.5zM226 555q-24 0 -40.5 16.5t-16.5 39.5q0 24 16.5 41t40.5 17t40.5 -16t16.5 -39q0 -24 -16.5 -41.5t-40.5 -17.5zM33 7q14 1 23.5 2.5t20.5 4.5
q14 5 20.5 16.5t6.5 28.5v316q-2 16 -8.5 30.5t-18.5 22.5q-9 6 -27 9t-32 4v6l173 11l4 -4v-390q0 -17 6.5 -29.5t20.5 -18.5q11 -5 22.5 -6.5t24.5 -2.5v-7h-236v7z" />
    <glyph glyph-name="ntilde" unicode="&#xf1;" horiz-adv-x="584" 
d="M32 7q14 1 23.5 2.5t20.5 4.5q14 5 20.5 16.5t6.5 28.5v316q-2 16 -8.5 30.5t-18.5 22.5q-9 6 -22 9t-27 4v6l163 11l4 -4v-71h2q14 14 29 28.5t34 26.5t43 19.5t56 7.5q70 0 103 -43t33 -115v-244q0 -17 6 -29.5t20 -18.5q11 -5 20.5 -6t23.5 -2v-7h-236v7q28 2 47 7
q14 5 20.5 16.5t6.5 28.5v260q0 52 -25.5 79.5t-57.5 27.5q-27 0 -48.5 -7t-37 -17.5t-25.5 -21.5t-14 -20v-296q0 -17 6.5 -29.5t20.5 -18.5q11 -5 22.5 -6.5t24.5 -2.5v-7h-236v7zM97 559q6 17 17.5 39t27 41t36 32t44.5 13q29 0 51.5 -9t41 -20t36 -20t35.5 -9
q34 0 55 17.5t36 49.5l9 -3q-5 -18 -16.5 -40t-28 -40.5t-38 -31.5t-45.5 -13q-30 0 -52 8.5t-40.5 19t-35.5 19.5t-38 9q-29 0 -47.5 -16t-38.5 -50z" />
    <glyph glyph-name="oacute" unicode="&#xf3;" 
d="M257 -14q57 0 100.5 19.5t73.5 53t45.5 78t15.5 94.5t-16 92.5t-45.5 74t-72 49.5t-94.5 18q-53 0 -95.5 -17.5t-73.5 -49.5t-47.5 -76.5t-16.5 -97.5q0 -55 18.5 -99t49.5 -75t72 -47.5t86 -16.5zM263 -4q-35 0 -60 18.5t-41 51t-23 75.5t-7 91q0 39 6 79t20.5 72t40 52
t64.5 20q36 0 60.5 -19t39.5 -50.5t21.5 -72t6.5 -83.5q0 -49 -7.5 -91.5t-23 -74t-40 -50t-57.5 -18.5zM225 503l-4 3q23 41 39.5 74t30.5 56q11 20 23 27t26 7t24 -9t10 -22q0 -15 -7.5 -24t-21.5 -20q-18 -14 -45 -33.5t-75 -58.5z" />
    <glyph glyph-name="ograve" unicode="&#xf2;" 
d="M257 -14q-45 0 -86 16.5t-72 47.5t-49.5 75t-18.5 99q0 53 16.5 97.5t47.5 76.5t73.5 49.5t95.5 17.5q52 0 94.5 -18t72 -49.5t45.5 -74t16 -92.5t-15.5 -94.5t-45.5 -78t-73.5 -53t-100.5 -19.5zM263 -4q33 0 57.5 18.5t40 50t23 74t7.5 91.5q0 43 -6.5 83.5t-21.5 72
t-39.5 50.5t-60.5 19q-39 0 -64.5 -20t-40 -52t-20.5 -72t-6 -79q0 -48 7 -91t23 -75.5t41 -51t60 -18.5zM324 503q-48 39 -75 58.5t-45 33.5q-14 11 -21 20t-7 24q0 13 9 22t24 9q14 0 26 -7t23 -27q14 -23 31 -56t40 -74z" />
    <glyph glyph-name="ocircumflex" unicode="&#xf4;" 
d="M257 -14q-45 0 -86 16.5t-72 47.5t-49.5 75t-18.5 99q0 53 16.5 97.5t47.5 76.5t73.5 49.5t95.5 17.5q52 0 94.5 -18t72 -49.5t45.5 -74t16 -92.5t-15.5 -94.5t-45.5 -78t-73.5 -53t-100.5 -19.5zM263 -4q33 0 57.5 18.5t40 50t23 74t7.5 91.5q0 43 -6.5 83.5t-21.5 72
t-39.5 50.5t-60.5 19q-39 0 -64.5 -20t-40 -52t-20.5 -72t-6 -79q0 -48 7 -91t23 -75.5t41 -51t60 -18.5zM141 508q32 46 54.5 75t36.5 51q7 10 12 13.5t23 3.5q17 0 21.5 -3t10.5 -13q15 -21 38 -50.5t55 -76.5l-6 -5l-121 83l-119 -83z" />
    <glyph glyph-name="odieresis" unicode="&#xf6;" 
d="M257 -14q-45 0 -86 16.5t-72 47.5t-49.5 75t-18.5 99q0 53 16.5 97.5t47.5 76.5t73.5 49.5t95.5 17.5q52 0 94.5 -18t72 -49.5t45.5 -74t16 -92.5t-15.5 -94.5t-45.5 -78t-73.5 -53t-100.5 -19.5zM263 -4q33 0 57.5 18.5t40 50t23 74t7.5 91.5q0 43 -6.5 83.5t-21.5 72
t-39.5 50.5t-60.5 19q-39 0 -64.5 -20t-40 -52t-20.5 -72t-6 -79q0 -48 7 -91t23 -75.5t41 -51t60 -18.5zM151 555q-23 0 -40 17t-17 40q0 24 17 41.5t40 17.5q26 0 43 -16.5t17 -38.5q0 -25 -17 -43t-43 -18zM369 555q-24 0 -41 17t-17 40q0 24 17 41.5t41 17.5
q26 0 42.5 -16.5t16.5 -38.5q0 -25 -17 -43t-42 -18z" />
    <glyph glyph-name="otilde" unicode="&#xf5;" 
d="M257 -14q-45 0 -86 16.5t-72 47.5t-49.5 75t-18.5 99q0 53 16.5 97.5t47.5 76.5t73.5 49.5t95.5 17.5q52 0 94.5 -18t72 -49.5t45.5 -74t16 -92.5t-15.5 -94.5t-45.5 -78t-73.5 -53t-100.5 -19.5zM263 -4q33 0 57.5 18.5t40 50t23 74t7.5 91.5q0 43 -6.5 83.5t-21.5 72
t-39.5 50.5t-60.5 19q-39 0 -64.5 -20t-40 -52t-20.5 -72t-6 -79q0 -48 7 -91t23 -75.5t41 -51t60 -18.5zM140 530q4 12 11 26t17.5 26t24 20.5t28.5 8.5q19 0 33.5 -5t26.5 -10.5t23 -10.5t23 -5q21 0 33 8.5t23 28.5l9 -2q-3 -11 -10.5 -25t-18.5 -26t-24.5 -20.5
t-29.5 -8.5q-20 0 -34 5t-26 11t-23 11t-24 5q-18 0 -29 -8t-24 -31z" />
    <glyph glyph-name="uacute" unicode="&#xfa;" horiz-adv-x="567" 
d="M220 -12q32 0 56 7t42 18t33 25t29 28h3v-61l7 -7l157 11v6q-14 1 -28 3.5t-23 8.5q-12 8 -16.5 20.5t-6.5 28.5v375l-7 7l-175 -12v-6q20 -1 38 -4t27 -9q23 -16 26 -50v-289q-5 -8 -14 -19.5t-24 -22.5t-35.5 -18.5t-47.5 -7.5q-32 0 -55.5 25.5t-23.5 77.5v328l-7 7
l-161 -12v-6q14 -1 27.5 -5.5t22.5 -10.5q23 -16 26 -50v-223q0 -35 7 -65t23 -52t40.5 -34t59.5 -12zM236 503l-4 3q23 41 39.5 74t30.5 56q11 20 23 27t26 7t24 -9t10 -22q0 -15 -7.5 -24t-21.5 -20q-18 -14 -45 -33.5t-75 -58.5z" />
    <glyph glyph-name="ugrave" unicode="&#xf9;" horiz-adv-x="567" 
d="M220 -12q-35 0 -59.5 12t-40.5 34t-23 52t-7 65v223q-3 34 -26 50q-9 6 -22.5 10.5t-27.5 5.5v6l161 12l7 -7v-328q0 -52 23.5 -77.5t55.5 -25.5q27 0 47.5 7.5t35.5 18.5t24 22.5t14 19.5v289q-3 34 -26 50q-9 6 -27 9t-38 4v6l175 12l7 -7v-375q2 -16 6.5 -28.5
t16.5 -20.5q9 -6 23 -8.5t28 -3.5v-6l-157 -11l-7 7v61h-3q-14 -14 -29 -28t-33 -25t-42 -18t-56 -7zM324 503q-48 39 -75 58.5t-45 33.5q-14 11 -21 20t-7 24q0 13 9 22t24 9q14 0 26 -7t23 -27q14 -23 31 -56t40 -74z" />
    <glyph glyph-name="ucircumflex" unicode="&#xfb;" horiz-adv-x="567" 
d="M220 -12q-35 0 -59.5 12t-40.5 34t-23 52t-7 65v223q-3 34 -26 50q-9 6 -22.5 10.5t-27.5 5.5v6l161 12l7 -7v-328q0 -52 23.5 -77.5t55.5 -25.5q27 0 47.5 7.5t35.5 18.5t24 22.5t14 19.5v289q-3 34 -26 50q-9 6 -27 9t-38 4v6l175 12l7 -7v-375q2 -16 6.5 -28.5
t16.5 -20.5q9 -6 23 -8.5t28 -3.5v-6l-157 -11l-7 7v61h-3q-14 -14 -29 -28t-33 -25t-42 -18t-56 -7zM116 540q40 58 68 100.5t46 70.5q10 14 16 18t28 4q11 0 17 -0.5t10 -3t7 -6.5t7 -10q19 -27 47 -70.5t68 -102.5l-7 -6l-151 128l-149 -128z" />
    <glyph glyph-name="udieresis" unicode="&#xfc;" horiz-adv-x="567" 
d="M220 -12q-35 0 -59.5 12t-40.5 34t-23 52t-7 65v223q-3 34 -26 50q-9 6 -22.5 10.5t-27.5 5.5v6l161 12l7 -7v-328q0 -52 23.5 -77.5t55.5 -25.5q27 0 47.5 7.5t35.5 18.5t24 22.5t14 19.5v289q-3 34 -26 50q-9 6 -27 9t-38 4v6l175 12l7 -7v-375q2 -16 6.5 -28.5
t16.5 -20.5q9 -6 23 -8.5t28 -3.5v-6l-157 -11l-7 7v61h-3q-14 -14 -29 -28t-33 -25t-42 -18t-56 -7zM163 555q-23 0 -40 17t-17 40q0 24 17 41.5t40 17.5q26 0 43 -16.5t17 -38.5q0 -25 -17 -43t-43 -18zM381 555q-24 0 -41 17t-17 40q0 24 17 41.5t41 17.5
q26 0 42.5 -16.5t16.5 -38.5q0 -25 -17 -43t-42 -18z" />
    <glyph glyph-name="dagger" unicode="&#x2020;" horiz-adv-x="413" 
d="M203 99q-2 42 -5 93t-6.5 103t-7.5 102t-7 91q-2 32 -18 32q-7 0 -13.5 -6.5t-14.5 -15.5q-10 -11 -22 -22t-26 -11q-20 0 -32.5 12t-12.5 32q0 13 7.5 22t21.5 9q24 0 32 -36q6 1 13 5t15 8.5t16 8t16 3.5q11 0 22.5 -4t19.5 -12q-2 18 -7 37.5l-10 39t-9.5 36.5
t-4.5 29q0 17 8 30.5t28 13.5q19 0 27 -13.5t8 -30.5q0 -12 -4.5 -29t-10 -36.5t-10.5 -39t-7 -37.5q19 16 43 16q7 0 15.5 -3.5t16.5 -8t15 -8.5t13 -5q4 17 14 26.5t23 9.5q14 0 20 -9t6 -22q0 -20 -13.5 -32t-33.5 -12q-14 0 -25.5 11t-21.5 22l-15 15t-14 7
q-16 0 -17 -32q-3 -41 -7.5 -91.5t-8 -103t-6.5 -103t-4 -91.5h-6v0z" />
    <glyph glyph-name="degree" unicode="&#xb0;" horiz-adv-x="382" 
d="M189 414q-30 0 -56.5 9.5t-47 27.5t-32 45t-11.5 63q0 33 12.5 60.5t33 48t47 31.5t54.5 11q30 0 57 -9t48 -27.5t33.5 -46.5t12.5 -67q0 -31 -12.5 -57.5t-33.5 -46t-48 -31t-57 -11.5zM192 422q18 0 33.5 11t26.5 29.5t17.5 43.5t6.5 52q0 29 -5 55t-15.5 46t-27 31.5
t-38.5 11.5t-38 -12t-26.5 -32t-15.5 -45t-5 -50q0 -27 5 -52t15.5 -45t27 -32t39.5 -12z" />
    <glyph glyph-name="cent" unicode="&#xa2;" horiz-adv-x="468" 
d="M144 -110l43 184q-66 23 -102 83t-36 146q0 46 15 89t43.5 76t69.5 52.5t92 19.5q8 0 14.5 -0.5t12.5 -1.5l31 132l14 -3l-30 -131q53 -10 81.5 -41.5t28.5 -69.5q0 -26 -12.5 -41t-37.5 -15q-8 0 -16.5 2.5t-16.5 8t-13 15t-5 23.5q0 16 2.5 27t6 19t6 14.5t2.5 13.5
q-3 13 -10.5 21t-18.5 13l-95 -401q14 -12 33 -19t39 -7q48 0 83 17.5t66 67.5l7 -4q-27 -58 -74 -87.5t-106 -29.5q-16 0 -31 2t-29 5l-44 -183zM295 530q-6 2 -12 2h-12q-24 0 -47 -13.5t-40.5 -41t-28 -69t-10.5 -97.5q0 -54 14.5 -100t42.5 -74z" />
    <glyph glyph-name="sterling" unicode="&#xa3;" horiz-adv-x="730" 
d="M65 -98q-62 0 -89.5 25.5t-27.5 62.5q0 23 14.5 42t39 32t56 20t66.5 7q29 0 66 -7t73 -16q5 27 5 57t-2 62h-169v12h169q-2 23 -3 48t-1 45h-159v13h159q2 89 23.5 161.5t58 124t87.5 79.5t112 28q50 0 86.5 -16t60.5 -40.5t35.5 -54.5t11.5 -58q0 -36 -12 -65.5
t-33 -51t-50 -33t-64 -11.5q-54 0 -84 34.5t-30 88.5q0 22 5 41t13 39l6 -2q-8 -20 -12 -39t-4 -33q0 -50 29.5 -77.5t73.5 -27.5q50 0 74.5 35.5t24.5 96.5q0 33 -7.5 63.5t-23 53.5t-39.5 36.5t-57 13.5q-39 0 -70 -16.5t-53.5 -53t-36 -93.5t-15.5 -138q-1 -23 -2 -45.5
t-3 -39.5h161v-13h-162q-3 -22 -9 -50t-11 -43h174v-12h-178q-11 -33 -25.5 -70t-28.5 -58q31 -11 60.5 -24t58.5 -24.5t58.5 -19.5t60.5 -8q39 0 64 14.5t40.5 37t23 50t11.5 52.5l7 -2q-5 -41 -18.5 -80t-40 -69t-68.5 -48.5t-105 -18.5q-48 0 -98 23t-99 47
q-15 -18 -35 -33.5t-43.5 -27.5t-49 -19t-50.5 -7zM64 -88q47 0 91.5 22.5t76.5 59.5q-53 25 -96 36.5t-87 11.5q-39 0 -62.5 -17t-23.5 -46q0 -25 24.5 -46t76.5 -21z" />
    <glyph glyph-name="section" unicode="&#xa7;" horiz-adv-x="526" 
d="M229 -227q-31 0 -54.5 11.5t-39 28t-23 34.5t-7.5 32q0 34 16 53.5t44 19.5q20 0 34.5 -14t14.5 -38q0 -14 -5.5 -23t-12.5 -16.5t-12.5 -14t-5.5 -16.5q0 -20 16 -35t41 -15q42 0 65 33.5t23 84.5q0 36 -16 64.5t-45 65.5q-15 19 -29.5 35.5t-30.5 33.5t-33 36t-38 44
q-37 43 -55.5 77.5t-18.5 79.5q0 30 11.5 52.5t30.5 39t42 26.5t47 14q-17 25 -29 56t-12 68q0 29 12.5 56t33.5 47.5t50 32.5t62 12q30 0 52 -11t36 -27.5t21 -34.5t7 -32q0 -34 -15.5 -53.5t-43.5 -19.5q-20 0 -34.5 13.5t-14.5 38.5q0 15 7.5 24t16.5 16t16.5 13t7.5 15
q0 20 -17 35.5t-49 15.5q-18 0 -34.5 -8t-28.5 -23t-19.5 -35.5t-7.5 -44.5q0 -18 4.5 -34t12.5 -31t19.5 -31t26.5 -35t29 -35.5t29 -33.5t32 -36t38 -44q38 -45 57.5 -80t19.5 -79q0 -30 -11.5 -52t-30.5 -37t-43 -24.5t-49 -13.5q19 -26 32 -59.5t13 -72.5q0 -29 -12 -56
t-33 -47.5t-49 -33t-61 -12.5zM334 61q77 20 77 92q0 25 -14 51.5t-33 49.5q-50 60 -96.5 113t-75.5 93q-31 -8 -54 -30t-23 -67q0 -22 15.5 -50.5t34.5 -51.5q48 -58 94 -108t75 -92z" />
    <glyph glyph-name="paragraph" unicode="&#xb6;" horiz-adv-x="609" 
d="M312 336h-30q-67 0 -110 15.5t-68 40t-35 54.5t-10 60q0 27 9.5 58.5t32 57.5t59 43.5t91.5 17.5h342v-14h-142v-794h-17v794h-105v-794h-17v461z" />
    <glyph glyph-name="germandbls" unicode="&#xdf;" horiz-adv-x="592" 
d="M409 -14q-35 0 -60.5 8.5t-42 22.5t-25 32.5t-8.5 39.5q0 27 12 45t38 18q23 0 32.5 -14t9.5 -34q0 -10 -3 -18t-7 -15t-7 -13.5t-3 -13.5q0 -15 17 -31.5t52 -16.5q21 0 38 8t28 21.5t17 31t6 35.5q0 16 -3.5 30t-14 29t-30 32.5t-51.5 40.5q-44 30 -73.5 63t-29.5 74
q0 22 8 39t20 31.5t26.5 29t27.5 32.5q12 17 19.5 41.5t7.5 56.5q0 71 -27.5 108.5t-74.5 37.5q-58 0 -84 -50t-29 -165v-522h-162v7q14 1 23.5 2t20.5 5q14 5 20.5 16.5t6.5 28.5v375h-102v16h102v31q0 63 16 114.5t51 88.5q31 33 68.5 48t82.5 15q32 0 60.5 -9t50.5 -25.5
t34.5 -40.5t12.5 -55q0 -46 -18 -74t-41 -46q-13 -10 -25.5 -18t-22 -15.5t-15.5 -15.5t-6 -18q0 -11 4.5 -22t16.5 -25.5t33 -33.5t55 -44q28 -21 48 -38.5t32.5 -36t18 -39.5t5.5 -49q0 -32 -11.5 -60.5t-32.5 -49.5t-49.5 -33.5t-62.5 -12.5z" />
    <glyph glyph-name="AE" unicode="&#xc6;" horiz-adv-x="983" 
d="M-28 7q14 1 35 6t35 13q19 11 39 36t38 55q8 13 29.5 49.5t51 87t63.5 109.5t66.5 115.5t60.5 105.5t45 81q-8 3 -22.5 4.5t-30 2.5t-29 2t-19.5 1v8h572v-155h-9q-4 16 -16 39.5t-28 45t-34 37.5t-34 18q-18 2 -47.5 3t-53.5 1h-113v-312h100q21 0 35 3.5t23.5 8t15 10
l10.5 10.5q6 6 11.5 18.5t11 27t9 29t4.5 24.5h9v-279h-9q-1 11 -5 26.5t-9.5 31.5t-11.5 28.5t-10 17.5l-11 11t-15.5 10.5t-23.5 7.5t-34 3h-100v-245q0 -31 4.5 -49t17 -27.5t36 -12t61.5 -2.5h52.5t49.5 2t41 7t27 14q11 12 25.5 33.5t27.5 45.5t23.5 45.5t14.5 32.5h9
l-13 -192h-592v7q7 0 18 1t22.5 2.5t21 3.5t15.5 4q18 7 25.5 18.5t7.5 30.5v214h-233q-14 -24 -29 -51.5t-28.5 -51t-22.5 -40.5t-11 -21q-11 -21 -15 -35t-4 -27t11.5 -21.5t28.5 -14t38 -8t41 -3.5v-8h-269v7zM465 295v369h-14q-2 -3 -23 -39.5t-52 -90.5t-67 -117.5
t-69 -121.5h225z" />
    <glyph glyph-name="Oslash" unicode="&#xd8;" horiz-adv-x="775" 
d="M45 -24l96 105q-48 46 -75.5 109t-27.5 144q0 164 97 261q51 52 115.5 78t137.5 26q66 0 125 -21t113 -69l92 101l11 -8l-93 -102q49 -48 75 -114t26 -140q0 -78 -24 -145.5t-80 -120.5q-48 -46 -109.5 -71t-139.5 -25q-66 0 -125 22.5t-107 65.5l-96 -105zM388 -4
q58 0 101 26.5t71 73.5t42 110t14 137q0 53 -8 103.5t-26 95.5l-382 -417q28 -60 74.5 -94.5t113.5 -34.5zM576 555q-26 59 -72 95.5t-116 36.5q-53 0 -95.5 -24t-72 -69t-45.5 -109.5t-16 -145.5q0 -57 8.5 -107.5t26.5 -93.5z" />
    <glyph glyph-name="lessequal" unicode="&#x2264;" horiz-adv-x="559" 
d="M55 283v26l442 211v-36l-397 -188l397 -188v-36zM56 32h447v-32h-447v32z" />
    <glyph glyph-name="greaterequal" unicode="&#x2265;" horiz-adv-x="559" 
d="M62 108l397 188l-397 188v36l442 -211v-26l-442 -211v36zM56 32h447v-32h-447v32z" />
    <glyph glyph-name="yen" unicode="&#xa5;" horiz-adv-x="567" 
d="M123 7q7 0 18 1t22 2.5t21.5 3t15.5 3.5q14 5 22.5 17.5t8.5 29.5v93h-155v13h155v82h-155v13h154l-30.5 61t-36 71.5t-36 69.5t-30.5 55q-24 46 -56 64q-11 7 -25 10t-27 4v7h273v-7q-11 -1 -25.5 -2.5t-27.5 -4.5t-21.5 -8t-8.5 -12q0 -6 12 -32.5t32.5 -65.5
t46.5 -87.5t54 -99.5q27 45 54 91t49.5 84t36.5 65t14 34q0 10 -9.5 16.5t-24 11t-31.5 7t-32 3.5v7h200v-7q-21 -2 -42.5 -15t-34.5 -31q-16 -23 -38 -57.5t-46.5 -74.5t-48.5 -81t-44 -76h161v-13h-162v-82h162v-13h-162v-88q0 -16 7.5 -29t21.5 -19q6 -3 15.5 -5t20 -4
t20.5 -3.5t17 -1.5v-7h-305v7z" />
    <glyph glyph-name="mu" unicode="&#xb5;" horiz-adv-x="571" 
d="M99 -226q-17 0 -29.5 13.5t-12.5 36.5q0 38 9.5 73.5t12.5 59.5t4 52t1 54v392h91v-319q0 -51 27.5 -79t65.5 -28q25 0 43.5 6t31 15t20.5 18.5t13 17.5v369h91v-362q0 -19 12.5 -35.5t37.5 -16.5q13 0 23 7t16.5 18t10 25t4.5 28h8q-5 -71 -29.5 -99.5t-72.5 -28.5
q-39 0 -63 20t-36 57h-3q-29 -35 -63.5 -56.5t-80.5 -21.5q-43 0 -75.5 18.5t-55.5 52.5h-2v-64q0 -24 6.5 -46t15 -43.5t15 -41.5t6.5 -39q0 -26 -13 -39.5t-29 -13.5z" />
    <glyph glyph-name="mu" unicode="&#x3bc;" horiz-adv-x="571" 
d="M99 -226q-17 0 -29.5 13.5t-12.5 36.5q0 38 9.5 73.5t12.5 59.5t4 52t1 54v392h91v-319q0 -51 27.5 -79t65.5 -28q25 0 43.5 6t31 15t20.5 18.5t13 17.5v369h91v-362q0 -19 12.5 -35.5t37.5 -16.5q13 0 23 7t16.5 18t10 25t4.5 28h8q-5 -71 -29.5 -99.5t-72.5 -28.5
q-39 0 -63 20t-36 57h-3q-29 -35 -63.5 -56.5t-80.5 -21.5q-43 0 -75.5 18.5t-55.5 52.5h-2v-64q0 -24 6.5 -46t15 -43.5t15 -41.5t6.5 -39q0 -26 -13 -39.5t-29 -13.5z" />
    <glyph glyph-name="ordfeminine" unicode="&#xaa;" horiz-adv-x="348" 
d="M121 336q-34 0 -53 18t-19 47q0 36 18 52t40 25q24 10 53.5 17t46.5 16v35q0 8 -1.5 19t-6.5 21.5t-14.5 17.5t-24.5 7q-14 0 -22 -5t-12 -10q0 -8 3 -21.5t3 -24.5q0 -10 -7.5 -19.5t-26.5 -9.5q-18 0 -25.5 10.5t-7.5 24.5t9.5 25.5t23.5 20t31.5 13.5t33.5 5
q21 0 40 -2.5t33.5 -11.5t23.5 -26.5t9 -47.5q0 -19 -0.5 -39.5t-1.5 -39t-1.5 -32.5t-0.5 -21t5 -19t21 -12q15 0 20 16.5t6 33.5h8q-2 -43 -18 -62.5t-45 -19.5q-21 0 -33.5 10.5t-19.5 30.5q-17 -19 -39.5 -30.5t-48.5 -11.5zM155 362q18 0 29.5 6.5t19.5 17.5l3 115
q-19 -7 -36 -15t-29.5 -18.5t-19.5 -24t-7 -31.5q0 -24 11.5 -37t28.5 -13zM54 261h254v-19h-254v19z" />
    <glyph glyph-name="ordmasculine" unicode="&#xba;" horiz-adv-x="362" 
d="M179 333q-26 0 -50.5 9.5t-44 28t-31 45t-11.5 60.5q0 33 11 59.5t30 45t44.5 29t54.5 10.5q30 0 55.5 -10.5t43.5 -29t28.5 -44.5t10.5 -57t-10 -58t-29 -46.5t-45 -30.5t-57 -11zM182 341q19 0 32.5 12t21 31.5t11 44.5t3.5 50q0 22 -3 45.5t-11 43t-21 31.5t-33 12
q-21 0 -34.5 -13t-21.5 -32.5t-11 -42.5t-3 -43q0 -25 3.5 -49.5t11.5 -44.5t21.5 -32.5t33.5 -12.5zM54 261h254v-19h-254v19z" />
    <glyph glyph-name="ae" unicode="&#xe6;" horiz-adv-x="721" 
d="M153 -12q-52 0 -84 29t-32 77q0 31 8.5 51.5t22 35t31 23.5t36.5 16q43 17 89.5 30.5t78.5 30.5v71q0 7 -2 24t-10 34.5t-25.5 31t-48.5 13.5q-29 0 -42.5 -9.5t-20.5 -17.5q0 -20 5.5 -40.5t5.5 -37.5q0 -16 -15.5 -29.5t-42.5 -13.5q-25 0 -35 16t-10 36
q0 22 14.5 41.5t37.5 34t51.5 22.5t57.5 8q48 0 85 -9.5t62 -44.5q9 9 21.5 18.5t30 17.5t38.5 13t47 5q51 0 87 -15.5t58 -41t32 -59.5t10 -70v-9h-298v-17q0 -48 7 -91t24.5 -74.5t46 -50t71.5 -18.5q29 0 51 6.5t39.5 18.5t32 29.5t28.5 40.5l8 -5q-26 -54 -74.5 -87.5
t-111.5 -33.5q-41 0 -72 9.5t-53.5 24.5t-38 33t-25.5 35q-18 -29 -39.5 -48.5t-45 -31.5t-47 -17t-44.5 -5zM202 23q33 0 56.5 11t41.5 34l4 199q-38 -12 -69 -25.5t-53.5 -32t-35 -43t-12.5 -57.5q0 -42 18 -64t50 -22zM597 282q0 30 -3.5 61t-13.5 55.5t-28 40.5t-46 16
q-24 0 -43.5 -12.5t-34 -36t-23 -55.5t-9.5 -71z" />
    <glyph glyph-name="oslash" unicode="&#xf8;" 
d="M42 -17l58 66q-32 31 -50.5 75t-18.5 100q0 53 16.5 97.5t47.5 76.5t73.5 49.5t95.5 17.5q47 0 85.5 -14t67.5 -40l72 82l9 -8l-72 -83q32 -32 49 -75.5t17 -95.5q0 -50 -15.5 -94.5t-45.5 -78t-73.5 -53t-100.5 -19.5q-85 0 -148 54l-57 -65zM263 -4q33 0 57.5 18.5
t40 50t23 74t7.5 91.5q0 31 -3 61t-11 56l-225 -258q15 -42 42 -67.5t69 -25.5zM373 361q-14 42 -40.5 68t-69.5 26q-39 0 -64.5 -20t-40 -52t-20.5 -72t-6 -79q0 -35 3.5 -68t11.5 -61z" />
    <glyph glyph-name="questiondown" unicode="&#xbf;" horiz-adv-x="482" 
d="M312 324q-37 -5 -66.5 -14.5t-50.5 -27t-32 -44t-11 -65.5q0 -47 9.5 -79.5t25.5 -53t38 -29.5t47 -9q20 0 41 8t30 19q-1 7 -3 13.5t-4.5 13.5t-4 17t-1.5 25q0 13 6 23t15 16.5t18.5 9.5t16.5 3q26 0 38.5 -16.5t12.5 -40.5q0 -19 -11.5 -37t-33 -32.5t-52.5 -23.5
t-70 -9q-53 0 -92.5 15t-66 42t-40 63.5t-13.5 79.5q0 42 16.5 79t47.5 65t75 45.5t99 22.5l6 107h10v-186zM305 702q28 0 47.5 -19t19.5 -47t-19.5 -47.5t-47.5 -19.5t-47.5 19.5t-19.5 47.5t19.5 47t47.5 19z" />
    <glyph glyph-name="exclamdown" unicode="&#xa1;" horiz-adv-x="322" 
d="M164 480q5 -66 14.5 -133t19 -125.5t16.5 -102t7 -61.5q0 -27 -16.5 -47.5t-44.5 -20.5t-44.5 20.5t-16.5 47.5q0 18 7 61t16.5 101.5t19.5 126t16 133.5h6zM161 700q27 0 46 -18.5t19 -46.5q0 -27 -19 -46.5t-46 -19.5q-28 0 -47 19.5t-19 46.5q0 28 19 46.5t47 18.5z
" />
    <glyph glyph-name="logicalnot" unicode="&#xac;" horiz-adv-x="559" 
d="M460 255h-418v34h453v-250h-35v216z" />
    <glyph glyph-name="florin" unicode="&#x192;" horiz-adv-x="512" 
d="M-37 -193q-54 0 -81.5 22t-27.5 58q0 23 13.5 39.5t36.5 16.5q21 0 38 -15.5t17 -44.5q0 -16 -9.5 -32.5t-18.5 -24.5q4 -5 15.5 -7.5t18.5 -2.5q54 0 89 55.5t58 167.5q10 46 17 84t12 72t10 64.5t10 62.5h-106l3 15h105q14 81 37.5 134.5t66.5 95.5q32 32 69.5 44.5
t74.5 12.5q22 0 42.5 -6.5t36.5 -18t25.5 -27t9.5 -33.5q0 -20 -12 -37.5t-37 -17.5q-21 0 -38 13t-17 40q0 14 6.5 31.5t14.5 33.5q-4 6 -13.5 9.5t-19.5 3.5q-45 0 -82 -55.5t-55 -163.5l-10 -59h124l-3 -15h-124q-7 -42 -12.5 -76.5t-10.5 -65t-10.5 -58t-11.5 -55.5
q-13 -57 -38 -109.5t-69 -90.5q-38 -32 -71 -46t-73 -14z" />
    <glyph glyph-name="guillemotleft" unicode="&#xab;" horiz-adv-x="549" 
d="M277 20q-21 16 -50.5 39.5t-60 47t-57.5 44.5t-42 33q-13 11 -18 18t-5 22q0 14 4.5 21t16.5 17q14 11 41.5 31.5t58.5 44.5t61.5 48t50.5 41l4 -4l-148 -201l148 -198zM488 20q-20 16 -49.5 39.5t-60 47t-57.5 44.5t-43 33q-13 11 -18 18t-5 22q0 14 4.5 21t16.5 17
q14 11 41.5 31.5t59 44.5t61.5 48t50 41l4 -4l-148 -201l148 -198z" />
    <glyph glyph-name="guillemotright" unicode="&#xbb;" horiz-adv-x="549" 
d="M57 24l148 198l-148 201l4 4q19 -17 49.5 -41t62 -48t59 -44.5t41.5 -31.5q12 -10 16.5 -17t4.5 -21q0 -15 -5 -22t-18 -18q-16 -12 -43 -33t-57 -44.5t-59.5 -47t-50.5 -39.5zM269 24l147 198l-147 201l3 4q20 -17 50.5 -41t61.5 -48t58.5 -44.5t41.5 -31.5
q12 -10 16.5 -17t4.5 -21q0 -15 -5 -22t-18 -18q-15 -12 -42 -33t-57.5 -44.5t-60 -47t-50.5 -39.5z" />
    <glyph glyph-name="nonbreakingspace" unicode="&#xa0;" horiz-adv-x="118" 
 />
    <glyph glyph-name="Agrave" unicode="&#xc0;" horiz-adv-x="680" 
d="M-24 7q14 1 31.5 5t31.5 12q18 11 32 32.5t25 47.5q27 64 56.5 137.5t60 150t61 153.5t59.5 149h18q38 -97 77 -193t73.5 -179t61 -148t40.5 -100q6 -15 14.5 -28.5t26.5 -24.5q14 -8 30.5 -10.5t30.5 -3.5v-7h-315v7q13 1 30.5 3t33.5 6t28 10t14 15q2 7 0 14.5t-4 13.5
l-71 183h-248q-7 -17 -14.5 -37t-14.5 -39.5t-12.5 -36.5t-8.5 -28q-5 -17 -9.5 -33t-4.5 -27q0 -14 14 -22t33.5 -12.5t40.5 -6.5t34 -3v-7h-255v7zM415 266l-119 301l-118 -301h237zM381 739q-48 39 -75 58.5t-45 33.5q-14 11 -21 20t-7 24q0 13 9 22t24 9q14 0 26 -7
t23 -27q14 -23 31 -56t40 -74z" />
    <glyph glyph-name="Atilde" unicode="&#xc3;" horiz-adv-x="680" 
d="M-24 7q14 1 31.5 5t31.5 12q18 11 32 32.5t25 47.5q27 64 56.5 137.5t60 150t61 153.5t59.5 149h18q38 -97 77 -193t73.5 -179t61 -148t40.5 -100q6 -15 14.5 -28.5t26.5 -24.5q14 -8 30.5 -10.5t30.5 -3.5v-7h-315v7q13 1 30.5 3t33.5 6t28 10t14 15q2 7 0 14.5t-4 13.5
l-71 183h-248q-7 -17 -14.5 -37t-14.5 -39.5t-12.5 -36.5t-8.5 -28q-5 -17 -9.5 -33t-4.5 -27q0 -14 14 -22t33.5 -12.5t40.5 -6.5t34 -3v-7h-255v7zM415 266l-119 301l-118 -301h237zM217 767q4 12 11 26t17.5 26t24 20.5t28.5 8.5q19 0 33.5 -5t26.5 -10.5t23 -10.5t23 -5
q21 0 33 8.5t23 28.5l9 -2q-3 -11 -10.5 -25t-18.5 -26t-24.5 -20.5t-29.5 -8.5q-20 0 -34 5t-26 11t-23 11t-24 5q-18 0 -29 -8t-24 -31z" />
    <glyph glyph-name="Otilde" unicode="&#xd5;" horiz-adv-x="775" 
d="M384 -16q-69 0 -129.5 24t-109.5 70q-50 47 -78.5 110.5t-28.5 145.5q0 164 97 261q51 52 115.5 78t137.5 26q71 0 134 -24.5t120 -79.5q45 -45 70 -110t25 -139q0 -78 -24 -145.5t-80 -120.5q-48 -46 -109.5 -71t-139.5 -25zM388 -4q58 0 101 26.5t71 73.5t42 110
t14 137q0 65 -12.5 127t-39.5 110t-70.5 77.5t-105.5 29.5q-53 0 -95.5 -24t-72 -69t-45.5 -109.5t-16 -145.5q0 -71 14 -133t42 -109t71 -74t102 -27zM284 767q4 12 11 26t17.5 26t24 20.5t28.5 8.5q19 0 33.5 -5t26.5 -10.5t23 -10.5t23 -5q21 0 33 8.5t23 28.5l9 -2
q-3 -11 -10.5 -25t-18.5 -26t-24.5 -20.5t-29.5 -8.5q-20 0 -34 5t-26 11t-23 11t-24 5q-18 0 -29 -8t-24 -31z" />
    <glyph glyph-name="OE" unicode="&#x152;" horiz-adv-x="1048" 
d="M402 0q-55 0 -119 16.5t-118.5 56t-90.5 106t-36 165.5q0 86 32.5 150t85.5 106t122 62.5t141 20.5h552v-155h-9q-4 16 -16 39.5t-28 45t-34 37.5t-34 18q-18 2 -47.5 3t-53.5 1h-113v-312h100q21 0 35 3.5t23.5 8t15 10l10.5 10.5q6 6 11.5 18.5t11 27t9 29t4.5 24.5h9
v-279h-9q-1 11 -5 26.5t-9.5 31.5t-11.5 28.5t-10 17.5l-11 11t-15.5 10.5t-23.5 7.5t-34 3h-100v-245q0 -31 4.5 -49t17 -27.5t36 -12t61.5 -2.5h52.5t49.5 2t41 7t27 14q11 12 25.5 33.5t27.5 45.5t23.5 45.5t14.5 32.5h9l-13 -192h-610zM431 10q29 0 46.5 4.5t27.5 12
t14.5 17t6.5 20.5q1 6 2 28t1.5 51.5t0.5 63.5v63.5v51v27.5v66.5v78.5t-0.5 70t-1.5 40q-4 35 -30.5 51.5t-85.5 16.5q-65 0 -112.5 -24t-79 -67.5t-46.5 -103.5t-15 -132q0 -71 19 -132t54 -106t85.5 -71t113.5 -26z" />
    <glyph glyph-name="oe" unicode="&#x153;" horiz-adv-x="815" 
d="M257 -14q-45 0 -86 16.5t-72 47.5t-49.5 75t-18.5 99q0 53 16.5 97.5t47.5 76.5t73.5 49.5t95.5 17.5q57 0 102 -21t75 -58q27 35 67 57t93 22q51 0 87 -15.5t58 -41t32 -59.5t10 -70v-9h-298v-17q0 -48 7 -91t24.5 -74.5t46 -50t71.5 -18.5q29 0 51 6.5t39.5 18.5
t32 29.5t28.5 40.5l8 -5q-26 -54 -74.5 -87.5t-111.5 -33.5q-60 0 -103 21.5t-71 57.5q-29 -38 -75 -59.5t-106 -21.5zM263 -4q33 0 57.5 18.5t40 50t23 74t7.5 91.5q0 43 -6.5 83.5t-21.5 72t-39.5 50.5t-60.5 19q-39 0 -64.5 -20t-40 -52t-20.5 -72t-6 -79q0 -48 7 -91
t23 -75.5t41 -51t60 -18.5zM691 282q0 30 -3.5 61t-13.5 55.5t-28 40.5t-46 16q-24 0 -43.5 -12.5t-34 -36t-23 -55.5t-9.5 -71z" />
    <glyph glyph-name="divide" unicode="&#xf7;" horiz-adv-x="559" 
d="M279 61q-21 0 -35.5 14.5t-14.5 36.5q0 21 14.5 36t35.5 15q22 0 37 -15t15 -36q0 -22 -15 -36.5t-37 -14.5zM279 356q-21 0 -35.5 14.5t-14.5 35.5q0 22 14.5 36.5t35.5 14.5q22 0 37 -14.5t15 -36.5q0 -21 -15 -35.5t-37 -14.5zM40 277h479v-35h-479v35z" />
    <glyph glyph-name="e.ordn" horiz-adv-x="385" 
d="M217 278q-41 0 -72 14t-52 37.5t-31.5 55t-10.5 67.5q0 32 11 62.5t32 54t50.5 37.5t65.5 14q37 0 64.5 -12t45.5 -32t26.5 -46t8.5 -53v-13h-231q1 -69 28 -110t89 -41q35 0 66.5 15t49.5 44l5 -4q-22 -38 -61 -64t-84 -26zM281 474q0 21 -2.5 45.5t-10.5 45t-22 34.5
t-37 14q-21 0 -36.5 -12t-25.5 -32t-15.5 -45t-6.5 -51z" />
    <glyph glyph-name="ydieresis" unicode="&#xff;" horiz-adv-x="462" 
d="M62 -226q-10 0 -23 3.5t-24 11.5t-19 21t-8 32q0 20 15.5 39t41.5 19q20 0 38 -12t18 -42l-8 -54q13 1 26.5 10t26 23.5t24 32.5t21.5 36q23 43 44 96q-53 128 -98 226t-82 180q-9 21 -23.5 32.5t-44.5 16.5v7h219v-9q-9 0 -19.5 -1.5t-19.5 -3.5t-15 -6t-6 -10
q0 -4 7 -21q9 -23 24.5 -57.5t33.5 -75t37.5 -82t35.5 -77.5q29 69 54.5 133.5t54.5 139.5q2 6 4 14t2 14q0 15 -24.5 23.5t-51.5 12.5v6h160v-5q-23 -4 -41 -19t-28 -37q-12 -28 -32.5 -76.5t-44 -105.5t-47.5 -116.5t-43 -107.5q-29 -71 -53 -113t-45.5 -63.5t-43 -28
t-43.5 -6.5zM139 555q-23 0 -40 17t-17 40q0 24 17 41.5t40 17.5q26 0 43 -16.5t17 -38.5q0 -25 -17 -43t-43 -18zM357 555q-24 0 -41 17t-17 40q0 24 17 41.5t41 17.5q26 0 42.5 -16.5t16.5 -38.5q0 -25 -17 -43t-42 -18z" />
    <glyph glyph-name="Ydieresis" unicode="&#x178;" horiz-adv-x="635" 
d="M148 7q7 0 18.5 1.5t24 3t23.5 3.5t16 4q18 7 24.5 20t6.5 30v189q0 15 -7.5 33.5t-18.5 41.5q-35 68 -72.5 135.5t-69.5 122.5q-13 23 -27.5 40.5t-32.5 28.5q-14 8 -32.5 11.5t-32.5 4.5v7h322v-7q-13 -1 -30.5 -3t-33 -6t-26.5 -10.5t-11 -15.5q0 -5 13 -31.5
t36 -68.5q25 -46 58 -105t68 -122q37 61 71 118t58 102q20 36 31 60.5t11 33.5q0 12 -11.5 21t-29 14.5t-38 8.5t-37.5 4v7h241v-7q-9 -1 -23 -5t-22 -9q-20 -11 -31 -21t-25 -30q-17 -24 -37 -56.5t-41 -69t-43 -75.5t-43 -76q-9 -17 -14.5 -29.5t-8.5 -25t-4 -26t-1 -31.5
v-151q0 -17 7 -29.5t24 -20.5q4 -2 15 -4t23.5 -4.5t24.5 -4t19 -1.5v-7h-332v7zM227 764q-23 0 -40 17t-17 40q0 24 17 41.5t40 17.5q26 0 43 -16.5t17 -38.5q0 -25 -17 -43t-43 -18zM445 764q-24 0 -41 17t-17 40q0 24 17 41.5t41 17.5q26 0 42.5 -16.5t16.5 -38.5
q0 -25 -17 -43t-42 -18z" />
    <glyph glyph-name="fraction" unicode="&#x2044;" horiz-adv-x="323" 
d="M-123 -191l508 941l22 -11l-510 -941z" />
    <glyph glyph-name="fraction" unicode="&#x2215;" horiz-adv-x="323" 
d="M-123 -191l508 941l22 -11l-510 -941z" />
    <glyph glyph-name="Euro" unicode="&#x20ac;" horiz-adv-x="571" 
d="M344 -14q-100 0 -164.5 65t-76.5 190h-74v13h73q-1 23 -1 44.5t2 41.5h-74v13h76q7 55 28.5 103.5t55.5 85t80 57.5t103 21q41 0 73 -10t53.5 -27t33 -38.5t11.5 -45.5q0 -37 -15 -54t-34 -17q-24 0 -36.5 15t-12.5 35q0 12 4 21t9 17.5t9 17.5t4 20q-4 25 -32.5 41
t-69.5 16q-35 0 -63 -18t-48.5 -52t-33 -81.5t-16.5 -106.5h227v-13h-228q-1 -23 -0.5 -45t1.5 -41h191v-13h-190q3 -45 14.5 -85t32 -70t50.5 -47.5t70 -17.5q32 0 57.5 9.5t46 26.5t36.5 40t29 50l8 -4q-15 -33 -33.5 -61.5t-43 -49.5t-57 -33.5t-75.5 -12.5z" />
    <glyph glyph-name="guilsinglleft" unicode="&#x2039;" horiz-adv-x="338" 
d="M277 20q-21 16 -50.5 39.5t-60 47t-57.5 44.5t-42 33q-13 11 -18 18t-5 22q0 14 4.5 21t16.5 17q14 11 41.5 31.5t58.5 44.5t61.5 48t50.5 41l4 -4l-148 -201l148 -198l-4 -4v0z" />
    <glyph glyph-name="guilsinglright" unicode="&#x203a;" horiz-adv-x="338" 
d="M57 24l148 198l-148 201l4 4q19 -17 49.5 -41t62 -48t59 -44.5t41.5 -31.5q12 -10 16.5 -17t4.5 -21q0 -15 -5 -22t-18 -18q-16 -12 -43 -33t-57 -44.5t-59.5 -47t-50.5 -39.5z" />
    <glyph glyph-name="daggerdbl" unicode="&#x2021;" horiz-adv-x="413" 
d="M207 5q-18 0 -26.5 13t-8.5 29q0 12 4 24.5t9.5 25t10.5 23.5t7 20q-8 -8 -21.5 -12t-24.5 -4q-17 0 -28.5 4t-21.5 6q-3 -15 -12.5 -24t-22.5 -9q-14 0 -20 10t-6 21q0 14 8.5 24t25.5 10q12 0 21.5 -5t18 -11.5t17.5 -11.5t21 -5q11 0 15.5 10.5t7.5 26.5q1 8 4.5 28.5
t7 45t6.5 50t4 42.5h6q1 -17 4.5 -42.5t7.5 -50t7 -45t4 -28.5q3 -16 7.5 -26.5t15.5 -10.5q12 0 20.5 5t16.5 11.5t17 11.5t21 5q18 0 27.5 -10t9.5 -24q0 -11 -7.5 -21t-21.5 -10q-13 0 -21 9t-12 24q-9 -2 -20.5 -6t-27.5 -4q-11 0 -24.5 4.5t-22.5 11.5q2 -10 7 -21
t10.5 -23t9.5 -24.5t4 -24.5q0 -16 -8.5 -29t-25.5 -13zM203 367q-1 17 -4.5 42.5t-7 50t-7 45t-4.5 28.5q-3 16 -7.5 26.5t-15.5 10.5q-12 0 -20.5 -5t-16.5 -11.5t-17 -11.5t-21 -5q-18 0 -27.5 10t-9.5 24q0 11 7.5 21t21.5 10q13 0 21 -9t12 -24q10 2 21.5 6t27.5 4
q11 0 24 -4.5t22 -11.5q-2 10 -7 21t-10.5 23t-9.5 24.5t-4 24.5q0 16 8.5 29t26.5 13q17 0 25.5 -13t8.5 -29q0 -12 -4 -24.5t-9.5 -25t-10.5 -23.5t-7 -20q8 8 22 12t25 4q17 0 28.5 -4t20.5 -6q4 15 13 24t23 9t19.5 -10t5.5 -21q0 -14 -8.5 -24t-25.5 -10q-12 0 -21.5 5
t-18 11.5t-17.5 11.5t-21 5q-10 0 -15 -10.5t-8 -26.5q-1 -8 -4 -28.5t-7 -45t-7 -50t-4 -42.5h-6z" />
    <glyph glyph-name="quotesinglbase" unicode="&#x201a;" horiz-adv-x="185" 
d="M21 -139q19 10 36.5 25.5t31.5 34t23 39.5t11 42h-34q-35 0 -50 19.5t-15 40.5q0 10 4 20t11.5 18t17.5 13.5t22 5.5q45 0 62 -27t17 -71q0 -47 -37 -92t-97 -74z" />
    <glyph glyph-name="quotedblbase" unicode="&#x201e;" horiz-adv-x="367" 
d="M21 -139q19 10 36.5 25.5t31.5 34t23 39.5t11 42h-34q-35 0 -50 19.5t-15 40.5q0 10 4 20t11.5 18t17.5 13.5t22 5.5q45 0 62 -27t17 -71q0 -47 -37 -92t-97 -74zM203 -139q19 10 36.5 25.5t31.5 34t23 39.5t11 42h-34q-35 0 -50 19.5t-15 40.5q0 10 4 20t11.5 18
t17.5 13.5t22 5.5q45 0 62 -27t17 -71q0 -47 -37 -92t-97 -74z" />
    <glyph glyph-name="perthousand" unicode="&#x2030;" horiz-adv-x="1228" 
d="M219 302q-31 0 -59.5 9.5t-50 29t-34.5 48.5t-13 68q0 36 14 66t36.5 51.5t50.5 33.5t56 12q31 0 60.5 -9t52.5 -28.5t37 -50.5t14 -74q0 -33 -14 -61.5t-37 -49.5t-52.5 -33t-60.5 -12zM223 310q37 0 61 41t24 105q0 68 -22 112t-65 44q-23 0 -39 -12.5t-26 -33t-15 -48
t-5 -57.5t4.5 -57.5t15 -48.5t27 -33t40.5 -12zM621 -14q-31 0 -59.5 10t-50 29.5t-34.5 48.5t-13 67q0 36 14 65.5t36.5 51.5t50.5 34t56 12q31 0 60.5 -9t52.5 -28.5t37 -50.5t14 -74q0 -33 -14 -61.5t-37 -49.5t-52.5 -33t-60.5 -12zM626 -7q17 0 32.5 11.5t27 31.5
t18 46.5t6.5 57.5q0 33 -5.5 61.5t-16 49.5t-27 33t-37.5 12q-23 0 -39 -13t-26.5 -34t-15.5 -48t-5 -56q0 -30 5 -57.5t15.5 -48.5t27 -33.5t40.5 -12.5zM1002 -14q-31 0 -59.5 10t-50 29.5t-34.5 48.5t-13 67q0 36 14 65.5t36.5 51.5t50.5 34t56 12q31 0 60.5 -9
t52.5 -28.5t37 -50.5t14 -74q0 -33 -14 -61.5t-37 -49.5t-52.5 -33t-60.5 -12zM1006 -7q18 0 33.5 11.5t27 31.5t18 46.5t6.5 57.5q0 33 -5.5 61.5t-16.5 49.5t-27 33t-38 12q-23 0 -39 -13t-26 -34t-15 -48t-5 -56q0 -30 5 -57.5t15.5 -48.5t27 -33.5t39.5 -12.5zM200 -87
l428 774l18 -9l-430 -774z" />
    <glyph glyph-name="Acircumflex" unicode="&#xc2;" horiz-adv-x="680" 
d="M-24 7q14 1 31.5 5t31.5 12q18 11 32 32.5t25 47.5q27 64 56.5 137.5t60 150t61 153.5t59.5 149h18q38 -97 77 -193t73.5 -179t61 -148t40.5 -100q6 -15 14.5 -28.5t26.5 -24.5q14 -8 30.5 -10.5t30.5 -3.5v-7h-315v7q13 1 30.5 3t33.5 6t28 10t14 15q2 7 0 14.5t-4 13.5
l-71 183h-248q-7 -17 -14.5 -37t-14.5 -39.5t-12.5 -36.5t-8.5 -28q-5 -17 -9.5 -33t-4.5 -27q0 -14 14 -22t33.5 -12.5t40.5 -6.5t34 -3v-7h-255v7zM415 266l-119 301l-118 -301h237zM216 744q32 46 54.5 75t36.5 51q7 10 12 13.5t23 3.5q17 0 21.5 -3t10.5 -13
q15 -21 38 -50.5t55 -76.5l-6 -5l-121 83l-119 -83z" />
    <glyph glyph-name="Ecircumflex" unicode="&#xca;" horiz-adv-x="666" 
d="M38 7q7 0 18 1.5t22.5 3t22 3.5t16.5 4q18 7 24.5 19.5t6.5 29.5v541q0 17 -6 30.5t-25 21.5q-7 3 -18 5.5t-22 4.5t-21.5 3.5t-17.5 1.5v7h551v-155h-9q-4 16 -16 39.5t-28 45t-34 37.5t-34 18q-18 2 -47.5 3t-53.5 1h-113v-312h100q21 0 35 3.5t23.5 8t15 10l10.5 10.5
q6 6 11.5 18.5t11 27t9 29t4.5 24.5h9v-279h-9q-1 11 -5 26.5t-9.5 31.5t-11.5 28.5t-10 17.5l-11 11t-15.5 10.5t-23.5 7.5t-34 3h-100v-245q0 -31 4.5 -49t17 -27.5t36 -12t61.5 -2.5h52.5t49.5 2t41 7t27 14q11 12 25.5 33.5t27.5 45.5t23.5 45.5t14.5 32.5h9l-13 -192
h-592v7zM246 744q32 46 54.5 75t36.5 51q7 10 12 13.5t23 3.5q17 0 21.5 -3t10.5 -13q15 -21 38 -50.5t55 -76.5l-6 -5l-121 83l-119 -83z" />
    <glyph glyph-name="Aacute" unicode="&#xc1;" horiz-adv-x="680" 
d="M-24 0h255v7q-13 1 -34 3t-40.5 6.5t-33.5 12.5t-14 22q0 11 4.5 27t9.5 33q3 11 8.5 28t12.5 36.5t14.5 39.5t14.5 37h248l71 -183q2 -6 4 -13.5t0 -14.5q-2 -9 -14 -15t-28 -10t-33.5 -6t-30.5 -3v-7h315v7q-14 1 -30.5 3.5t-30.5 10.5q-18 11 -26.5 24.5t-14.5 28.5
q-14 35 -40.5 100t-61 148t-73.5 179t-77 193h-18q-29 -72 -59.5 -149t-61 -153.5t-60 -150t-56.5 -137.5q-11 -26 -25 -47.5t-32 -32.5q-14 -8 -31.5 -12t-31.5 -5v-7zM178 266l118 301l119 -301h-237zM303 738l-4 3q23 41 39.5 74t30.5 56q11 20 23 27t26 7t24 -9t10 -22
q0 -15 -7.5 -24t-21.5 -20q-18 -14 -45 -33.5t-75 -58.5z" />
    <glyph glyph-name="Edieresis" unicode="&#xcb;" horiz-adv-x="666" 
d="M38 7q7 0 18 1.5t22.5 3t22 3.5t16.5 4q18 7 24.5 19.5t6.5 29.5v541q0 17 -6 30.5t-25 21.5q-7 3 -18 5.5t-22 4.5t-21.5 3.5t-17.5 1.5v7h551v-155h-9q-4 16 -16 39.5t-28 45t-34 37.5t-34 18q-18 2 -47.5 3t-53.5 1h-113v-312h100q21 0 35 3.5t23.5 8t15 10l10.5 10.5
q6 6 11.5 18.5t11 27t9 29t4.5 24.5h9v-279h-9q-1 11 -5 26.5t-9.5 31.5t-11.5 28.5t-10 17.5l-11 11t-15.5 10.5t-23.5 7.5t-34 3h-100v-245q0 -31 4.5 -49t17 -27.5t36 -12t61.5 -2.5h52.5t49.5 2t41 7t27 14q11 12 25.5 33.5t27.5 45.5t23.5 45.5t14.5 32.5h9l-13 -192
h-592v7zM223 764q-23 0 -40 17t-17 40q0 24 17 41.5t40 17.5q26 0 43 -16.5t17 -38.5q0 -25 -17 -43t-43 -18zM441 764q-24 0 -41 17t-17 40q0 24 17 41.5t41 17.5q26 0 42.5 -16.5t16.5 -38.5q0 -25 -17 -43t-42 -18z" />
    <glyph glyph-name="Egrave" unicode="&#xc8;" horiz-adv-x="666" 
d="M38 7q7 0 18 1.5t22.5 3t22 3.5t16.5 4q18 7 24.5 19.5t6.5 29.5v541q0 17 -6 30.5t-25 21.5q-7 3 -18 5.5t-22 4.5t-21.5 3.5t-17.5 1.5v7h551v-155h-9q-4 16 -16 39.5t-28 45t-34 37.5t-34 18q-18 2 -47.5 3t-53.5 1h-113v-312h100q21 0 35 3.5t23.5 8t15 10l10.5 10.5
q6 6 11.5 18.5t11 27t9 29t4.5 24.5h9v-279h-9q-1 11 -5 26.5t-9.5 31.5t-11.5 28.5t-10 17.5l-11 11t-15.5 10.5t-23.5 7.5t-34 3h-100v-245q0 -31 4.5 -49t17 -27.5t36 -12t61.5 -2.5h52.5t49.5 2t41 7t27 14q11 12 25.5 33.5t27.5 45.5t23.5 45.5t14.5 32.5h9l-13 -192
h-592v7zM440 739q-48 39 -75 58.5t-45 33.5q-14 11 -21 20t-7 24q0 13 9 22t24 9q14 0 26 -7t23 -27q14 -23 31 -56t40 -74z" />
    <glyph glyph-name="Iacute" unicode="&#xcd;" horiz-adv-x="406" 
d="M46 0h314v7q-7 0 -17.5 1.5t-21.5 3t-20.5 3.5t-13.5 4q-17 8 -24 21.5t-7 30.5v543q0 17 6 30t25 19q14 5 36.5 8.5t36.5 4.5v7h-314v-7q14 -1 37 -5.5t36 -9.5q18 -8 24.5 -21.5t6.5 -30.5v-543q0 -17 -6.5 -29.5t-24.5 -19.5q-5 -2 -14.5 -3.5t-20 -3t-21 -2.5
t-17.5 -1v-7zM159 738l-4 3q23 41 39.5 74t30.5 56q11 20 23 27t26 7t24 -9t10 -22q0 -15 -7.5 -24t-21.5 -20q-18 -14 -45 -33.5t-75 -58.5z" />
    <glyph glyph-name="Icircumflex" unicode="&#xce;" horiz-adv-x="406" 
d="M46 7q7 0 17.5 1t21 2.5t20 3t14.5 3.5q18 7 24.5 19.5t6.5 29.5v543q0 17 -6.5 30.5t-24.5 21.5q-13 5 -36 9.5t-37 5.5v7h314v-7q-14 -1 -36.5 -4.5t-36.5 -8.5q-19 -6 -25 -19t-6 -30v-543q0 -17 7 -30.5t24 -21.5q4 -2 13.5 -4t20.5 -3.5t21.5 -3t17.5 -1.5v-7h-314
v7zM46 740q40 58 68 100.5t46 70.5q10 14 16 18t28 4q11 0 17 -0.5t10 -3t7 -6.5t7 -10q19 -27 47 -70.5t68 -102.5l-7 -6l-151 128l-149 -128z" />
    <glyph glyph-name="Idieresis" unicode="&#xcf;" horiz-adv-x="406" 
d="M46 7q7 0 17.5 1t21 2.5t20 3t14.5 3.5q18 7 24.5 19.5t6.5 29.5v543q0 17 -6.5 30.5t-24.5 21.5q-13 5 -36 9.5t-37 5.5v7h314v-7q-14 -1 -36.5 -4.5t-36.5 -8.5q-19 -6 -25 -19t-6 -30v-543q0 -17 7 -30.5t24 -21.5q4 -2 13.5 -4t20.5 -3.5t21.5 -3t17.5 -1.5v-7h-314
v7zM93 764q-23 0 -40 17t-17 40q0 24 17 41.5t40 17.5q26 0 43 -16.5t17 -38.5q0 -25 -17 -43t-43 -18zM311 764q-24 0 -41 17t-17 40q0 24 17 41.5t41 17.5q26 0 42.5 -16.5t16.5 -38.5q0 -25 -17 -43t-42 -18z" />
    <glyph glyph-name="Igrave" unicode="&#xcc;" horiz-adv-x="406" 
d="M46 7q7 0 17.5 1t21 2.5t20 3t14.5 3.5q18 7 24.5 19.5t6.5 29.5v543q0 17 -6.5 30.5t-24.5 21.5q-13 5 -36 9.5t-37 5.5v7h314v-7q-14 -1 -36.5 -4.5t-36.5 -8.5q-19 -6 -25 -19t-6 -30v-543q0 -17 7 -30.5t24 -21.5q4 -2 13.5 -4t20.5 -3.5t21.5 -3t17.5 -1.5v-7h-314
v7zM248 739q-48 39 -75 58.5t-45 33.5q-14 11 -21 20t-7 24q0 13 9 22t24 9q14 0 26 -7t23 -27q14 -23 31 -56t40 -74z" />
    <glyph glyph-name="Oacute" unicode="&#xd3;" horiz-adv-x="775" 
d="M384 -16q78 0 139.5 25t109.5 71q56 53 80 120.5t24 145.5q0 74 -25 139t-70 110q-57 55 -120 79.5t-134 24.5q-73 0 -137.5 -26t-115.5 -78q-97 -97 -97 -261q0 -82 28.5 -145.5t78.5 -110.5q49 -46 109.5 -70t129.5 -24zM388 -4q-59 0 -102 27t-71 74t-42 109t-14 133
q0 81 16 145.5t45.5 109.5t72 69t95.5 24q62 0 105.5 -29.5t70.5 -77.5t39.5 -110t12.5 -127q0 -74 -14 -137t-42 -110t-71 -73.5t-101 -26.5zM342 738l-4 3q23 41 39.5 74t30.5 56q11 20 23 27t26 7t24 -9t10 -22q0 -15 -7.5 -24t-21.5 -20q-18 -14 -45 -33.5t-75 -58.5z
" />
    <glyph glyph-name="Ocircumflex" unicode="&#xd4;" horiz-adv-x="775" 
d="M384 -16q-69 0 -129.5 24t-109.5 70q-50 47 -78.5 110.5t-28.5 145.5q0 164 97 261q51 52 115.5 78t137.5 26q71 0 134 -24.5t120 -79.5q45 -45 70 -110t25 -139q0 -78 -24 -145.5t-80 -120.5q-48 -46 -109.5 -71t-139.5 -25zM388 -4q58 0 101 26.5t71 73.5t42 110
t14 137q0 65 -12.5 127t-39.5 110t-70.5 77.5t-105.5 29.5q-53 0 -95.5 -24t-72 -69t-45.5 -109.5t-16 -145.5q0 -71 14 -133t42 -109t71 -74t102 -27zM263 744q32 46 54.5 75t36.5 51q7 10 12 13.5t23 3.5q17 0 21.5 -3t10.5 -13q15 -21 38 -50.5t55 -76.5l-6 -5l-121 83
l-119 -83z" />
    <glyph glyph-name="apple" unicode="&#xf8ff;" horiz-adv-x="614" 
d="M376 -2q-30 0 -52.5 21.5t-22.5 53.5q0 12 3 22t6 21t6 23.5t3 27.5v11l-7 5q-5 -1 -10 -1h-10q-30 0 -56 18l-13 -1q-11 -16 -15 -31.5t-6 -29.5q-5 -32 -23 -57.5t-55 -25.5q-30 0 -53.5 22t-23.5 55q0 32 24 53.5t59 21.5q13 0 32.5 1t41.5 12l3 14q-10 22 -10 43
q0 13 3 25l-5 13q-7 2 -13.5 2.5t-13.5 0.5q-21 0 -35 -3.5t-29 -3.5q-33 0 -55 22.5t-22 53.5t22 54t54 23q27 0 43 -12.5t24 -29.5t14 -39.5t24 -41.5l15 1q28 30 69 30l11 7q0 20 -5.5 34.5t-11.5 27t-11.5 25t-5.5 27.5q0 33 22.5 53t53.5 20q33 0 53.5 -22.5
t20.5 -53.5q0 -24 -9.5 -37t-23 -23.5t-29 -22.5t-26.5 -33l4 -12q17 -9 30 -23.5t18 -34.5l12 -6q21 7 33.5 19t24 23.5t25 19.5t35.5 8q30 0 51.5 -22.5t21.5 -54.5t-21.5 -53t-53.5 -21q-18 0 -30.5 6.5t-24.5 15t-26 17t-35 11.5l-9 -8q-3 -18 -13.5 -33.5t-25.5 -26.5
l-1 -10q12 -16 25.5 -24.5t27.5 -14.5q23 -11 39 -29t16 -47q0 -15 -6 -29t-16.5 -24.5t-25 -16.5t-30.5 -6zM292 208q29 0 48 20.5t19 49.5t-19 48.5t-48 19.5t-48 -19.5t-19 -48.5t19 -49.5t48 -20.5z" />
    <glyph glyph-name="Ograve" unicode="&#xd2;" horiz-adv-x="775" 
d="M384 -16q-69 0 -129.5 24t-109.5 70q-50 47 -78.5 110.5t-28.5 145.5q0 164 97 261q51 52 115.5 78t137.5 26q71 0 134 -24.5t120 -79.5q45 -45 70 -110t25 -139q0 -78 -24 -145.5t-80 -120.5q-48 -46 -109.5 -71t-139.5 -25zM388 -4q58 0 101 26.5t71 73.5t42 110
t14 137q0 65 -12.5 127t-39.5 110t-70.5 77.5t-105.5 29.5q-53 0 -95.5 -24t-72 -69t-45.5 -109.5t-16 -145.5q0 -71 14 -133t42 -109t71 -74t102 -27zM465 739q-48 39 -75 58.5t-45 33.5q-14 11 -21 20t-7 24q0 13 9 22t24 9q14 0 26 -7t23 -27q14 -23 31 -56t40 -74z" />
    <glyph glyph-name="Uacute" unicode="&#xda;" horiz-adv-x="791" 
d="M400 -16q37 0 82 10.5t84 35.5t65.5 66t26.5 102v321q0 47 6.5 83.5t26.5 49.5q8 5 21 9t26.5 7.5t25.5 5.5t19 2v7h-275v-7q17 -1 46.5 -6.5t55.5 -22.5q34 -22 34 -134v-311q0 -32 -12 -64t-38.5 -58.5t-68 -43t-101.5 -16.5q-59 0 -94.5 17t-55 42.5t-26 56t-6.5 57.5
v421q0 17 6 30t25 19q14 5 36 8.5t36 4.5v7h-311v-7q12 -1 34 -3.5t36 -9.5q17 -9 24 -21t7 -29v-433q0 -39 17 -74.5t50 -62.5t82.5 -43t115.5 -16zM355 738l-4 3q23 41 39.5 74t30.5 56q11 20 23 27t26 7t24 -9t10 -22q0 -15 -7.5 -24t-21.5 -20q-18 -14 -45 -33.5
t-75 -58.5z" />
    <glyph glyph-name="Ucircumflex" unicode="&#xdb;" horiz-adv-x="791" 
d="M400 -16q-66 0 -115.5 16t-82.5 43t-50 62.5t-17 74.5v433q0 17 -7 29t-24 21q-14 7 -36 9.5t-34 3.5v7h311v-7q-14 -1 -36 -4.5t-36 -8.5q-19 -6 -25 -19t-6 -30v-421q0 -27 6.5 -57.5t26 -56t55 -42.5t94.5 -17q60 0 101.5 16.5t68 43t38.5 58.5t12 64v311
q0 112 -34 134q-26 17 -55.5 22.5t-46.5 6.5v7h275v-7q-7 0 -19 -2t-25.5 -5.5t-26.5 -7.5t-21 -9q-20 -13 -26.5 -49.5t-6.5 -83.5v-321q0 -61 -26.5 -102t-65.5 -66t-84 -35.5t-82 -10.5zM271 740q40 58 68 100.5t46 70.5q10 14 16 18t28 4q11 0 17 -0.5t10 -3t7 -6.5
t7 -10q19 -27 47 -70.5t68 -102.5l-7 -6l-151 128l-149 -128z" />
    <glyph glyph-name="Ugrave" unicode="&#xd9;" horiz-adv-x="791" 
d="M400 -16q-66 0 -115.5 16t-82.5 43t-50 62.5t-17 74.5v433q0 17 -7 29t-24 21q-14 7 -36 9.5t-34 3.5v7h311v-7q-14 -1 -36 -4.5t-36 -8.5q-19 -6 -25 -19t-6 -30v-421q0 -27 6.5 -57.5t26 -56t55 -42.5t94.5 -17q60 0 101.5 16.5t68 43t38.5 58.5t12 64v311
q0 112 -34 134q-26 17 -55.5 22.5t-46.5 6.5v7h275v-7q-7 0 -19 -2t-25.5 -5.5t-26.5 -7.5t-21 -9q-20 -13 -26.5 -49.5t-6.5 -83.5v-321q0 -61 -26.5 -102t-65.5 -66t-84 -35.5t-82 -10.5zM467 739q-48 39 -75 58.5t-45 33.5q-14 11 -21 20t-7 24q0 13 9 22t24 9
q14 0 26 -7t23 -27q14 -23 31 -56t40 -74z" />
    <glyph glyph-name="dotlessi" unicode="&#x131;" horiz-adv-x="286" 
d="M33 7q14 1 23.5 2.5t20.5 4.5q14 5 20.5 16.5t6.5 28.5v316q-2 16 -8.5 30.5t-18.5 22.5q-9 6 -27 9t-32 4v6l173 11l4 -4v-390q0 -17 6.5 -29.5t20.5 -18.5q11 -5 22.5 -6.5t24.5 -2.5v-7h-236v7z" />
    <glyph glyph-name="R.salt" horiz-adv-x="720" 
d="M45 7q7 0 17 1t20.5 2.5t20 3.5t14.5 4q18 7 24.5 20t6.5 30v544q0 17 -6 30.5t-25 19.5q-14 5 -36 9t-36 5v7h353q38 0 75.5 -9.5t67.5 -28t48.5 -47.5t18.5 -68t-17.5 -68.5t-46.5 -51.5t-65.5 -36t-75.5 -22v-5q60 -10 109.5 -40t73.5 -91q6 -15 13 -35t13.5 -39
t11.5 -34.5t7 -22.5q12 -36 29 -52t31 -19q15 -3 30.5 -4.5t29.5 -2.5v-7h-219q-11 55 -24 101t-33 97q-13 33 -26.5 59.5t-30.5 45t-40 28.5t-54 10h-70v-273q0 -17 6.5 -30t24.5 -20q5 -2 14.5 -4t20 -3.5t21 -2.5t17.5 -1v-7h-313v7zM316 355q33 0 63.5 8t54 26
t37.5 47.5t14 72.5t-11.5 73.5t-31.5 50t-46 28.5t-54 9h-88v-315h62z" />
    <glyph glyph-name="currency" unicode="&#xa4;" horiz-adv-x="571" 
d="M344 -14q-100 0 -164.5 65t-76.5 190h-74v13h73q-1 23 -1 44.5t2 41.5h-74v13h76q7 55 28.5 103.5t55.5 85t80 57.5t103 21q41 0 73 -10t53.5 -27t33 -38.5t11.5 -45.5q0 -37 -15 -54t-34 -17q-24 0 -36.5 15t-12.5 35q0 12 4 21t9 17.5t9 17.5t4 20q-4 25 -32.5 41
t-69.5 16q-35 0 -63 -18t-48.5 -52t-33 -81.5t-16.5 -106.5h227v-13h-228q-1 -23 -0.5 -45t1.5 -41h191v-13h-190q3 -45 14.5 -85t32 -70t50.5 -47.5t70 -17.5q32 0 57.5 9.5t46 26.5t36.5 40t29 50l8 -4q-15 -33 -33.5 -61.5t-43 -49.5t-57 -33.5t-75.5 -12.5z" />
    <glyph glyph-name="ampersand" unicode="&#x26;" horiz-adv-x="743" 
d="M227 -16q-35 0 -69.5 9.5t-61.5 30t-43.5 51.5t-16.5 74q0 36 10.5 63t32.5 51t55 46.5t78 49.5q-41 60 -60.5 103t-19.5 81q0 34 14 62.5t38 48.5t55 31.5t65 11.5q33 0 57 -11.5t39 -30t22.5 -43t7.5 -49.5q0 -45 -31 -87t-92 -79q23 -34 44.5 -63.5t42.5 -57.5
t43 -55.5t45 -56.5q16 23 30 52t24 58.5t16 56t6 43.5q0 18 -22 31t-73 20v6h287v-6q-21 -2 -40.5 -4.5t-36 -7t-31 -12.5t-26.5 -21q-11 -12 -23.5 -38t-27.5 -58t-34 -66t-42 -62q10 -13 24 -30t28.5 -33.5t28.5 -30t23 -19.5q26 -16 63 -25t67 -11v-7h-234l-70 86
q-18 -18 -38.5 -36.5t-44.5 -33t-51 -23.5t-58 -9zM270 33q38 0 77 15.5t64 45.5q-21 28 -47.5 62.5t-53.5 69.5t-51 68t-40 57q-45 -28 -62.5 -68.5t-17.5 -91.5q0 -31 9 -59.5t25.5 -50.5t41 -35t55.5 -13zM301 406q48 29 65.5 70.5t17.5 89.5q0 24 -4.5 46t-13.5 38.5
t-24 26t-36 9.5q-24 0 -39 -9.5t-23.5 -25t-12 -36.5t-3.5 -43q0 -32 17.5 -73.5t55.5 -92.5z" />
    <glyph glyph-name="fi" horiz-adv-x="578" 
d="M33 7q14 1 23.5 2.5t20.5 4.5q14 5 20.5 16.5t6.5 28.5v377h-102v16h102v29q0 63 19.5 113t55.5 89q22 23 60.5 43.5t86.5 20.5q43 0 73 -8.5t48.5 -23t26.5 -34t8 -40.5q0 -9 -3.5 -19t-10.5 -18.5t-17.5 -14t-25.5 -5.5q-24 0 -39 14.5t-15 37.5q0 25 9 37.5t16 21.5
q0 6 -3.5 13t-12 13.5t-23 11t-37.5 4.5t-45.5 -13.5t-40 -41.5t-28.5 -70.5t-11 -100.5v-59h161l124 8l4 -4v-394q0 -17 6.5 -29t20.5 -17q11 -5 20.5 -6.5t23.5 -2.5v-7h-230v7q14 1 22 2.5t19 4.5q14 5 20.5 16.5t6.5 28.5v327q-2 15 -4.5 27t-9.5 23h-184v-372
q0 -35 27 -45q11 -5 23.5 -8t26.5 -4v-7h-239v7z" />
    <glyph glyph-name="fl" horiz-adv-x="579" 
d="M33 7q14 1 23.5 2.5t20.5 4.5q14 5 20.5 16.5t6.5 28.5v377h-102v16h102v31q0 63 19.5 112t55.5 88q22 23 60 43.5t86 20.5q38 0 61.5 -7t42.5 -16l54 22l4 -4v-677q0 -34 27 -46q11 -5 20.5 -8t23.5 -4v-7h-231v7q14 1 22.5 2.5t19.5 4.5q14 5 21 16.5t7 28.5v534
q-11 3 -22.5 14t-11.5 32q0 12 4 21t9 15t9.5 10t5.5 6q-1 6 -3.5 13.5t-10 14.5t-21.5 12t-37 5t-45 -13.5t-39.5 -41.5t-28.5 -70t-11 -100v-59h126v-16h-126v-372q0 -35 27 -45q11 -5 23.5 -8t26.5 -4v-7h-239v7z" />
    <glyph glyph-name="ampersand.salt" horiz-adv-x="868" 
d="M363 -18q-60 0 -115.5 17.5t-98 49t-68 74t-25.5 92.5q0 32 9.5 56t25 42.5t36 32t41.5 24.5q-14 9 -27 20.5t-23.5 26.5t-17 35t-6.5 46q0 28 11.5 53t32.5 44t50 30.5t64 11.5q34 0 61.5 -10.5t47.5 -29t33.5 -42.5t20.5 -51l-5 -2q-22 40 -54 61.5t-74 21.5
q-29 0 -51.5 -11t-38.5 -29t-24.5 -41t-8.5 -47q0 -23 4 -46t15 -34q23 9 50 18t50 9q30 0 46.5 -11.5t16.5 -31.5q0 -17 -10.5 -29t-32.5 -12q-38 0 -69 15t-55 29q-4 -3 -12 -9.5t-16.5 -18t-14.5 -27.5t-6 -37q0 -41 20 -79t60 -66.5t100.5 -45t141.5 -15.5q72 1 129 22
t96.5 55t60.5 76t21 86q0 42 -15.5 72t-39.5 50t-54 29.5t-59 9.5q-23 0 -45 -7t-38.5 -20t-26.5 -31t-10 -40q0 -24 7.5 -41.5t20.5 -29t29 -17.5t34 -6q22 0 35.5 5.5t24.5 14.5q-12 3 -24.5 7.5t-23 11t-17 16t-6.5 23.5q0 28 16.5 39.5t28.5 11.5q10 0 21 -3t20 -10
t15 -19.5t6 -30.5q0 -30 -23 -54t-63 -24q-23 0 -45.5 7t-40 22t-28.5 38t-11 55q0 42 17 69.5t42.5 44t55.5 23t55 6.5q10 0 25.5 -1t31 -1.5t30 -1.5t23.5 -1q44 0 71.5 24.5t27.5 57.5q0 21 -7.5 37.5t-19.5 27.5t-27 16.5t-30 5.5q-22 0 -34 -12t-12 -20q5 -3 13.5 -6.5
t16.5 -8.5t14 -12t6 -19q0 -26 -11 -36.5t-31 -10.5q-19 0 -37 14t-18 48q0 27 24 49t66 22q46 0 76.5 -28t30.5 -79q0 -64 -46 -97t-127 -32q19 -8 37.5 -21t32 -33.5t22 -48t8.5 -64.5q0 -47 -24.5 -102t-74.5 -102t-126 -78.5t-180 -31.5z" />
    <glyph glyph-name="copyrightsound" unicode="&#x2117;" horiz-adv-x="950" 
d="M282 32q6 0 15 1.5l18 3t16.5 3t10.5 2.5q14 5 18.5 13t4.5 17v356q0 9 -4.5 18t-18.5 13t-32.5 7.5t-30.5 4.5v7h256q67 0 108 -29t41 -80q0 -34 -14.5 -60.5t-39 -44.5t-57 -27.5t-68.5 -9.5h-56v-155q0 -9 4.5 -17.5t16.5 -12.5q3 -1 12 -2.5t20 -3l22 -3t19 -1.5v-7
h-261v7zM476 -181q-91 0 -170.5 34t-139 92.5t-93.5 137.5t-34 168q0 88 34 166.5t93.5 137t139 92.5t170.5 34q90 0 169.5 -34t138.5 -92.5t93 -137t34 -166.5q0 -89 -34 -168t-93 -137.5t-138.5 -92.5t-169.5 -34zM476 -155q84 0 157 32t127 87t85 129t31 158
q0 83 -31 156.5t-85 128t-127 86.5t-157 32t-157.5 -32t-127.5 -86.5t-85.5 -128t-31.5 -156.5q0 -84 31.5 -158t85.5 -129t127.5 -87t157.5 -32zM482 237q32 0 52.5 13t32.5 31t16.5 37.5t4.5 33.5q0 18 -5 38.5t-16 38t-28.5 28.5t-43.5 11h-46v-231h33z" />
    <glyph glyph-name="exclam" unicode="!" horiz-adv-x="322" 
d="M157 212q-5 66 -14.5 133t-19 125.5t-16.5 102t-7 61.5q0 27 16.5 47.5t44.5 20.5t44.5 -20.5t16.5 -47.5q0 -18 -7 -61t-16.5 -101.5t-19.5 -126t-16 -133.5h-6zM160 -8q-27 0 -46 18.5t-19 46.5q0 27 19 46.5t46 19.5q28 0 47 -19.5t19 -46.5q0 -28 -19 -46.5
t-47 -18.5z" />
    <glyph glyph-name="DEL" horiz-adv-x="0" 
 />
    <glyph glyph-name="uni1EFA" unicode="&#x1efa;" horiz-adv-x="0" 
d="M245 837q-48 39 -75 58.5t-45 33.5q-14 11 -21 20t-7 24q0 13 9 22t24 9q14 0 26 -7t23 -27q14 -23 31 -56t40 -74zM392 837l-4 3q23 41 39.5 74t30.5 56q11 20 23 27t26 7t24 -9t10 -22q0 -15 -7.5 -24t-21.5 -20q-18 -14 -45 -33.5t-75 -58.5zM593 842q32 46 54.5 75
t36.5 51q7 10 12 13.5t23 3.5q17 0 21.5 -3t10.5 -13q15 -21 38 -50.5t55 -76.5l-6 -5l-121 83l-119 -83zM308 662q4 12 11 26t17.5 26t24 20.5t28.5 8.5q19 0 33.5 -5t26.5 -10.5t23 -10.5t23 -5q21 0 33 8.5t23 28.5l9 -2q-3 -11 -10.5 -25t-18.5 -26t-24.5 -20.5
t-29.5 -8.5q-20 0 -34 5t-26 11t-23 11t-24 5q-18 0 -29 -8t-24 -31zM634 655q11 1 22 2.5t20.5 6t16.5 13.5t10 25q-29 -8 -45 5.5t-15 31.5q2 20 13.5 32t32.5 10q26 -2 36.5 -20.5t2.5 -56.5q-8 -39 -35.5 -54.5t-57.5 -11.5z" />
    <glyph glyph-name="Abreve" unicode="&#x102;" horiz-adv-x="680" 
d="M341 744q-42 0 -70 25t-40 88l9 3q15 -34 39 -49.5t62 -15.5q40 0 64.5 15.5t40.5 49.5l7 -3q-12 -63 -40 -88t-72 -25zM-24 7q14 1 31.5 5t31.5 12q18 11 32 32.5t25 47.5q27 64 56.5 137.5t60 150t61 153.5t59.5 149h18q38 -97 77 -193t73.5 -179t61 -148t40.5 -100
q6 -15 14.5 -28.5t26.5 -24.5q14 -8 30.5 -10.5t30.5 -3.5v-7h-315v7q13 1 30.5 3t33.5 6t28 10t14 15q2 7 0 14.5t-4 13.5l-71 183h-248q-7 -17 -14.5 -37t-14.5 -39.5t-12.5 -36.5t-8.5 -28q-5 -17 -9.5 -33t-4.5 -27q0 -14 14 -22t33.5 -12.5t40.5 -6.5t34 -3v-7h-255v7z
M415 266l-119 301l-118 -301h237z" />
    <glyph glyph-name="abreve" unicode="&#x103;" horiz-adv-x="490" 
d="M153 -12q-52 0 -84 29t-32 77q0 31 8.5 51.5t22 35t31 23.5t36.5 16q43 17 89.5 30.5t78.5 30.5v71q0 7 -2 24t-10 34.5t-25.5 31t-48.5 13.5q-29 0 -42.5 -9.5t-20.5 -17.5q0 -20 5.5 -40.5t5.5 -37.5q0 -16 -15.5 -29.5t-42.5 -13.5q-25 0 -35 16t-10 36
q0 22 14.5 41.5t37.5 34t51.5 22.5t57.5 8q37 0 68.5 -4.5t54.5 -19.5t36 -44.5t13 -79.5q0 -33 -1 -68.5t-1.5 -67.5t-1.5 -57.5t-1 -37.5q0 -6 2.5 -14.5t8.5 -16.5t15 -14t21 -6t21.5 8t15.5 20t9.5 27t4.5 29h10q-5 -70 -32 -99.5t-74 -29.5q-35 0 -55.5 16t-32.5 51h-3
q-27 -32 -65 -50.5t-83 -18.5zM202 23q33 0 56.5 12.5t41.5 35.5l4 196q-38 -12 -69 -25.5t-53.5 -32t-35 -43t-12.5 -57.5q0 -42 18 -64t50 -22zM265 517q-42 0 -70 25t-40 88l9 3q15 -34 39 -49.5t62 -15.5q40 0 64.5 15.5t40.5 49.5l7 -3q-12 -63 -40 -88t-72 -25z" />
    <glyph glyph-name="Dcroat" unicode="&#x110;" horiz-adv-x="779" 
d="M76 338h72v271q0 17 -6.5 31.5t-24.5 22.5t-37 10t-33 3v7h322q34 0 75 -6.5t82.5 -22t80.5 -41.5t69 -64.5t48 -91t18 -120.5q0 -87 -34.5 -151t-90 -105t-126 -61t-142.5 -20h-306v7q7 0 18 1t21.5 2.5t20 3t14.5 3.5q18 7 24.5 19.5t6.5 29.5v255h-72v17zM363 12
q66 0 114 24t79.5 67.5t47 103.5t15.5 131q0 72 -20 133t-56 106t-87.5 70t-114.5 25h-20.5t-23.5 -0.5t-23.5 -1t-19.5 -0.5v-332h154v-17h-154v-232q5 -37 28 -57t81 -20z" />
    <glyph glyph-name="dcroat" unicode="&#x111;" horiz-adv-x="565" 
d="M222 578h159v85q-2 24 -8.5 33.5t-18.5 17.5q-5 3 -15.5 5.5t-23 4.5t-26 3.5t-22.5 1.5v6l201 11l4 -4v-164h65v-17h-65v-484q3 -33 26 -49q9 -6 27 -9t32 -4v-6l-168 -11l-7 7v41l-3 1q-8 -9 -21 -19t-30.5 -19t-38 -15t-44.5 -6q-44 0 -82.5 17t-67.5 48.5t-46 77
t-17 101.5q0 51 19 94t50.5 74t73 48t85.5 17q48 0 80 -11.5t41 -15.5v123h-159v17zM279 17q36 0 59 12.5t43 33.5v307q-4 13 -12.5 27.5t-22 27t-33 21t-45.5 8.5q-32 0 -56.5 -17t-42 -48t-26.5 -74t-9 -94q0 -38 7.5 -74.5t24.5 -65t44.5 -46.5t68.5 -18z" />
    <glyph glyph-name="Itilde" unicode="&#x128;" horiz-adv-x="406" 
d="M86 767q4 12 11 26t17.5 26t24 20.5t28.5 8.5q19 0 33.5 -5t26.5 -10.5t23 -10.5t23 -5q21 0 33 8.5t23 28.5l9 -2q-3 -11 -10.5 -25t-18.5 -26t-24.5 -20.5t-29.5 -8.5q-20 0 -34 5t-26 11t-23 11t-24 5q-18 0 -29 -8t-24 -31zM46 7q7 0 17.5 1t21 2.5t20 3t14.5 3.5
q18 7 24.5 19.5t6.5 29.5v543q0 17 -6.5 30.5t-24.5 21.5q-13 5 -36 9.5t-37 5.5v7h314v-7q-14 -1 -36.5 -4.5t-36.5 -8.5q-19 -6 -25 -19t-6 -30v-543q0 -17 7 -30.5t24 -21.5q4 -2 13.5 -4t20.5 -3.5t21.5 -3t17.5 -1.5v-7h-314v7z" />
    <glyph glyph-name="itilde" unicode="&#x129;" horiz-adv-x="286" 
d="M33 7q14 1 23.5 2.5t20.5 4.5q14 5 20.5 16.5t6.5 28.5v316q-2 16 -8.5 30.5t-18.5 22.5q-9 6 -27 9t-32 4v6l173 11l4 -4v-390q0 -17 6.5 -29.5t20.5 -18.5q11 -5 22.5 -6.5t24.5 -2.5v-7h-236v7zM24 530q4 12 11 26t17.5 26t24 20.5t28.5 8.5q19 0 33.5 -5t26.5 -10.5
t23 -10.5t23 -5q21 0 33 8.5t23 28.5l9 -2q-3 -11 -10.5 -25t-18.5 -26t-24.5 -20.5t-29.5 -8.5q-20 0 -34 5t-26 11t-23 11t-24 5q-18 0 -29 -8t-24 -31z" />
    <glyph glyph-name="Utilde" unicode="&#x168;" horiz-adv-x="791" 
d="M293 767q4 12 11 26t17.5 26t24 20.5t28.5 8.5q19 0 33.5 -5t26.5 -10.5t23 -10.5t23 -5q21 0 33 8.5t23 28.5l9 -2q-3 -11 -10.5 -25t-18.5 -26t-24.5 -20.5t-29.5 -8.5q-20 0 -34 5t-26 11t-23 11t-24 5q-18 0 -29 -8t-24 -31zM400 -16q-66 0 -115.5 16t-82.5 43
t-50 62.5t-17 74.5v433q0 17 -7 29t-24 21q-14 7 -36 9.5t-34 3.5v7h311v-7q-14 -1 -36 -4.5t-36 -8.5q-19 -6 -25 -19t-6 -30v-421q0 -27 6.5 -57.5t26 -56t55 -42.5t94.5 -17q60 0 101.5 16.5t68 43t38.5 58.5t12 64v311q0 112 -34 134q-26 17 -55.5 22.5t-46.5 6.5v7h275
v-7q-7 0 -19 -2t-25.5 -5.5t-26.5 -7.5t-21 -9q-20 -13 -26.5 -49.5t-6.5 -83.5v-321q0 -61 -26.5 -102t-65.5 -66t-84 -35.5t-82 -10.5z" />
    <glyph glyph-name="utilde" unicode="&#x169;" horiz-adv-x="567" 
d="M164 530q4 12 11 26t17.5 26t24 20.5t28.5 8.5q19 0 33.5 -5t26.5 -10.5t23 -10.5t23 -5q21 0 33 8.5t23 28.5l9 -2q-3 -11 -10.5 -25t-18.5 -26t-24.5 -20.5t-29.5 -8.5q-20 0 -34 5t-26 11t-23 11t-24 5q-18 0 -29 -8t-24 -31zM220 -12q-35 0 -59.5 12t-40.5 34t-23 52
t-7 65v223q-3 34 -26 50q-9 6 -22.5 10.5t-27.5 5.5v6l161 12l7 -7v-328q0 -52 23.5 -77.5t55.5 -25.5q27 0 47.5 7.5t35.5 18.5t24 22.5t14 19.5v289q-3 34 -26 50q-9 6 -27 9t-38 4v6l175 12l7 -7v-375q2 -16 6.5 -28.5t16.5 -20.5q9 -6 23 -8.5t28 -3.5v-6l-157 -11l-7 7
v61h-3q-14 -14 -29 -28t-33 -25t-42 -18t-56 -7z" />
    <glyph glyph-name="Ohorn" unicode="&#x1a0;" horiz-adv-x="775" 
d="M384 -16q-69 0 -129.5 24t-109.5 70q-50 47 -78.5 110.5t-28.5 145.5q0 164 97 261q51 52 115.5 78t137.5 26q45 0 87.5 -10t82.5 -32q16 3 28.5 12t16.5 33q-29 -8 -45 5.5t-15 31.5q2 20 13.5 32t32.5 10q26 -2 36.5 -20.5t2.5 -56.5q-5 -24 -17.5 -38.5t-29.5 -22.5
q30 -19 61 -48q45 -45 70 -110t25 -139q0 -78 -24 -145.5t-80 -120.5q-48 -46 -109.5 -71t-139.5 -25zM388 -4q58 0 101 26.5t71 73.5t42 110t14 137q0 65 -12.5 127t-39.5 110t-70.5 77.5t-105.5 29.5q-53 0 -95.5 -24t-72 -69t-45.5 -109.5t-16 -145.5q0 -71 14 -133
t42 -109t71 -74t102 -27z" />
    <glyph glyph-name="ohorn" unicode="&#x1a1;" 
d="M257 -14q-45 0 -86 16.5t-72 47.5t-49.5 75t-18.5 99q0 53 16.5 97.5t47.5 76.5t73.5 49.5t95.5 17.5q39 0 72 -10t60 -28q14 3 24.5 12.5t14.5 30.5q-29 -8 -45 5.5t-15 31.5q2 20 13.5 32t32.5 10q26 -2 36.5 -20.5t2.5 -56.5q-5 -23 -17 -37.5t-28 -22.5
q37 -32 57 -78.5t20 -102.5q0 -50 -15.5 -94.5t-45.5 -78t-73.5 -53t-100.5 -19.5zM263 -4q33 0 57.5 18.5t40 50t23 74t7.5 91.5q0 43 -6.5 83.5t-21.5 72t-39.5 50.5t-60.5 19q-39 0 -64.5 -20t-40 -52t-20.5 -72t-6 -79q0 -48 7 -91t23 -75.5t41 -51t60 -18.5z" />
    <glyph glyph-name="uhorn" unicode="&#x1b0;" horiz-adv-x="567" 
d="M220 -12q-35 0 -59.5 12t-40.5 34t-23 52t-7 65v223q-3 34 -26 50q-9 6 -22.5 10.5t-27.5 5.5v6l161 12l7 -7v-328q0 -52 23.5 -77.5t55.5 -25.5q27 0 47.5 7.5t35.5 18.5t24 22.5t14 19.5v289q-3 34 -26 50q-9 6 -27 9t-38 4v6l175 12l7 -7v-24q13 4 22.5 13.5
t13.5 29.5q-29 -8 -45 5.5t-15 31.5q2 20 13.5 32t32.5 10q26 -2 36.5 -20.5t2.5 -56.5q-6 -29 -23 -44.5t-38 -20.5v-331q2 -16 6.5 -28.5t16.5 -20.5q9 -6 23 -8.5t28 -3.5v-6l-157 -11l-7 7v61h-3q-14 -14 -29 -28t-33 -25t-42 -18t-56 -7z" />
    <glyph glyph-name="Uhorn" unicode="&#x1af;" horiz-adv-x="791" 
d="M400 -16q-66 0 -115.5 16t-82.5 43t-50 62.5t-17 74.5v433q0 17 -7 29t-24 21q-14 7 -36 9.5t-34 3.5v7h311v-7q-14 -1 -36 -4.5t-36 -8.5q-19 -6 -25 -19t-6 -30v-421q0 -27 6.5 -57.5t26 -56t55 -42.5t94.5 -17q60 0 101.5 16.5t68 43t38.5 58.5t12 64v311
q0 112 -34 134q-26 17 -55.5 22.5t-46.5 6.5v7h151l-1 -26q16 3 28.5 12.5t16.5 32.5q-29 -8 -45 5.5t-15 31.5q2 20 13.5 32t32.5 10q26 -2 36.5 -20.5t2.5 -56.5q-6 -32 -26 -47.5t-44 -18.5v-119v-321q0 -61 -26.5 -102t-65.5 -66t-84 -35.5t-82 -10.5z" />
    <glyph glyph-name="i" unicode="i" horiz-adv-x="286" 
d="M33 7q14 1 23.5 2.5t20.5 4.5q14 5 20.5 16.5t6.5 28.5v316q-2 16 -8.5 30.5t-18.5 22.5q-9 6 -27 9t-32 4v6l173 11l4 -4v-390q0 -17 6.5 -29.5t20.5 -18.5q11 -5 22.5 -6.5t24.5 -2.5v-7h-236v7zM141 593q-25 0 -43 18t-18 43q0 26 18 44.5t43 18.5q28 0 45.5 -17.5
t17.5 -41.5q0 -26 -18 -45.5t-45 -19.5z" />
    <glyph glyph-name="j" unicode="j" horiz-adv-x="291" 
d="M16 -226q-50 0 -74 20.5t-24 51.5q0 17 14.5 33.5t38.5 16.5q20 0 37 -10.5t17 -35.5q0 -14 -5.5 -33t-5.5 -30q2 -1 11 -1.5t11 -0.5q23 0 38.5 12t25.5 37.5t14 66t4 98.5v376q-2 16 -8.5 30.5t-18.5 22.5q-5 3 -15.5 5.5t-23 4t-24.5 2.5t-19 1v6l196 11l4 -4v-413
q0 -63 -13 -115t-50 -90q-31 -32 -61 -47t-69 -15zM153 593q-25 0 -43 18t-18 43q0 26 18 44.5t43 18.5q28 0 45.5 -17.5t17.5 -41.5q0 -26 -18 -45.5t-45 -19.5z" />
    <glyph glyph-name="uni1EA0" unicode="&#x1ea0;" horiz-adv-x="680" 
d="M325 -162q-19 0 -32 13t-13 32t13 32t32 13q20 0 33 -13t13 -32t-13 -32t-33 -13zM-24 7q14 1 31.5 5t31.5 12q18 11 32 32.5t25 47.5q27 64 56.5 137.5t60 150t61 153.5t59.5 149h18q38 -97 77 -193t73.5 -179t61 -148t40.5 -100q6 -15 14.5 -28.5t26.5 -24.5
q14 -8 30.5 -10.5t30.5 -3.5v-7h-315v7q13 1 30.5 3t33.5 6t28 10t14 15q2 7 0 14.5t-4 13.5l-71 183h-248q-7 -17 -14.5 -37t-14.5 -39.5t-12.5 -36.5t-8.5 -28q-5 -17 -9.5 -33t-4.5 -27q0 -14 14 -22t33.5 -12.5t40.5 -6.5t34 -3v-7h-255v7zM415 266l-119 301l-118 -301
h237z" />
    <glyph glyph-name="uni1EA1" unicode="&#x1ea1;" horiz-adv-x="490" 
d="M228 -162q-19 0 -32 13t-13 32t13 32t32 13q20 0 33 -13t13 -32t-13 -32t-33 -13zM153 -12q-52 0 -84 29t-32 77q0 31 8.5 51.5t22 35t31 23.5t36.5 16q43 17 89.5 30.5t78.5 30.5v71q0 7 -2 24t-10 34.5t-25.5 31t-48.5 13.5q-29 0 -42.5 -9.5t-20.5 -17.5
q0 -20 5.5 -40.5t5.5 -37.5q0 -16 -15.5 -29.5t-42.5 -13.5q-25 0 -35 16t-10 36q0 22 14.5 41.5t37.5 34t51.5 22.5t57.5 8q37 0 68.5 -4.5t54.5 -19.5t36 -44.5t13 -79.5q0 -33 -1 -68.5t-1.5 -67.5t-1.5 -57.5t-1 -37.5q0 -6 2.5 -14.5t8.5 -16.5t15 -14t21 -6t21.5 8
t15.5 20t9.5 27t4.5 29h10q-5 -70 -32 -99.5t-74 -29.5q-35 0 -55.5 16t-32.5 51h-3q-27 -32 -65 -50.5t-83 -18.5zM202 23q33 0 56.5 12.5t41.5 35.5l4 196q-38 -12 -69 -25.5t-53.5 -32t-35 -43t-12.5 -57.5q0 -42 18 -64t50 -22z" />
    <glyph glyph-name="uni1EA2" unicode="&#x1ea2;" horiz-adv-x="680" 
d="M335 810q24 3 37.5 11.5t13.5 29.5q0 25 -9.5 36t-21.5 11q-9 0 -15 -4v-2q3 -5 3 -17t-9 -17t-15 -5q-11 0 -16.5 6.5t-5.5 16.5q0 14 15.5 26t42.5 12q36 0 54 -20t18 -49q0 -27 -19.5 -47t-54.5 -24q0 -8 -0.5 -17t-1.5 -17h-16v70zM-24 7q14 1 31.5 5t31.5 12
q18 11 32 32.5t25 47.5q27 64 56.5 137.5t60 150t61 153.5t59.5 149h18q38 -97 77 -193t73.5 -179t61 -148t40.5 -100q6 -15 14.5 -28.5t26.5 -24.5q14 -8 30.5 -10.5t30.5 -3.5v-7h-315v7q13 1 30.5 3t33.5 6t28 10t14 15q2 7 0 14.5t-4 13.5l-71 183h-248
q-7 -17 -14.5 -37t-14.5 -39.5t-12.5 -36.5t-8.5 -28q-5 -17 -9.5 -33t-4.5 -27q0 -14 14 -22t33.5 -12.5t40.5 -6.5t34 -3v-7h-255v7zM415 266l-119 301l-118 -301h237z" />
    <glyph glyph-name="uni1EA3" unicode="&#x1ea3;" horiz-adv-x="490" 
d="M250 573q24 3 37.5 11.5t13.5 29.5q0 25 -9.5 36t-21.5 11q-9 0 -15 -4v-2q3 -5 3 -17t-9 -17t-15 -5q-11 0 -16.5 6.5t-5.5 16.5q0 14 15.5 26t42.5 12q36 0 54 -20t18 -49q0 -27 -19.5 -47t-54.5 -24q0 -8 -0.5 -17t-1.5 -17h-16v70zM153 -12q-52 0 -84 29t-32 77
q0 31 8.5 51.5t22 35t31 23.5t36.5 16q43 17 89.5 30.5t78.5 30.5v71q0 7 -2 24t-10 34.5t-25.5 31t-48.5 13.5q-29 0 -42.5 -9.5t-20.5 -17.5q0 -20 5.5 -40.5t5.5 -37.5q0 -16 -15.5 -29.5t-42.5 -13.5q-25 0 -35 16t-10 36q0 22 14.5 41.5t37.5 34t51.5 22.5t57.5 8
q37 0 68.5 -4.5t54.5 -19.5t36 -44.5t13 -79.5q0 -33 -1 -68.5t-1.5 -67.5t-1.5 -57.5t-1 -37.5q0 -6 2.5 -14.5t8.5 -16.5t15 -14t21 -6t21.5 8t15.5 20t9.5 27t4.5 29h10q-5 -70 -32 -99.5t-74 -29.5q-35 0 -55.5 16t-32.5 51h-3q-27 -32 -65 -50.5t-83 -18.5zM202 23
q33 0 56.5 12.5t41.5 35.5l4 196q-38 -12 -69 -25.5t-53.5 -32t-35 -43t-12.5 -57.5q0 -42 18 -64t50 -22z" />
    <glyph glyph-name="uni1EA8" unicode="&#x1ea8;" horiz-adv-x="680" 
d="M430 936q24 3 37.5 11.5t13.5 29.5q0 25 -9.5 36t-21.5 11q-9 0 -15 -4v-2q3 -5 3 -17t-9 -17t-15 -5q-11 0 -16.5 6.5t-5.5 16.5q0 14 15.5 26t42.5 12q36 0 54 -20t18 -49q0 -27 -19.5 -47t-54.5 -24q0 -8 -0.5 -17t-1.5 -17h-16v70zM-24 7q14 1 31.5 5t31.5 12
q18 11 32 32.5t25 47.5q27 64 56.5 137.5t60 150t61 153.5t59.5 149h18q38 -97 77 -193t73.5 -179t61 -148t40.5 -100q6 -15 14.5 -28.5t26.5 -24.5q14 -8 30.5 -10.5t30.5 -3.5v-7h-315v7q13 1 30.5 3t33.5 6t28 10t14 15q2 7 0 14.5t-4 13.5l-71 183h-248
q-7 -17 -14.5 -37t-14.5 -39.5t-12.5 -36.5t-8.5 -28q-5 -17 -9.5 -33t-4.5 -27q0 -14 14 -22t33.5 -12.5t40.5 -6.5t34 -3v-7h-255v7zM415 266l-119 301l-118 -301h237zM216 744q32 46 54.5 75t36.5 51q7 10 12 13.5t23 3.5q17 0 21.5 -3t10.5 -13q15 -21 38 -50.5
t55 -76.5l-6 -5l-121 83l-119 -83z" />
    <glyph glyph-name="uni1EA9" unicode="&#x1ea9;" horiz-adv-x="490" 
d="M339 700q24 3 37.5 11.5t13.5 29.5q0 25 -9.5 36t-21.5 11q-9 0 -15 -4v-2q3 -5 3 -17t-9 -17t-15 -5q-11 0 -16.5 6.5t-5.5 16.5q0 14 15.5 26t42.5 12q36 0 54 -20t18 -49q0 -27 -19.5 -47t-54.5 -24q0 -8 -0.5 -17t-1.5 -17h-16v70zM153 -12q-52 0 -84 29t-32 77
q0 31 8.5 51.5t22 35t31 23.5t36.5 16q43 17 89.5 30.5t78.5 30.5v71q0 7 -2 24t-10 34.5t-25.5 31t-48.5 13.5q-29 0 -42.5 -9.5t-20.5 -17.5q0 -20 5.5 -40.5t5.5 -37.5q0 -16 -15.5 -29.5t-42.5 -13.5q-25 0 -35 16t-10 36q0 22 14.5 41.5t37.5 34t51.5 22.5t57.5 8
q37 0 68.5 -4.5t54.5 -19.5t36 -44.5t13 -79.5q0 -33 -1 -68.5t-1.5 -67.5t-1.5 -57.5t-1 -37.5q0 -6 2.5 -14.5t8.5 -16.5t15 -14t21 -6t21.5 8t15.5 20t9.5 27t4.5 29h10q-5 -70 -32 -99.5t-74 -29.5q-35 0 -55.5 16t-32.5 51h-3q-27 -32 -65 -50.5t-83 -18.5zM202 23
q33 0 56.5 12.5t41.5 35.5l4 196q-38 -12 -69 -25.5t-53.5 -32t-35 -43t-12.5 -57.5q0 -42 18 -64t50 -22zM125 508q32 46 54.5 75t36.5 51q7 10 12 13.5t23 3.5q17 0 21.5 -3t10.5 -13q15 -21 38 -50.5t55 -76.5l-6 -5l-121 83l-119 -83z" />
    <glyph glyph-name="uni1EB2" unicode="&#x1eb2;" horiz-adv-x="680" 
d="M335 952q24 3 37.5 11.5t13.5 29.5q0 25 -9.5 36t-21.5 11q-9 0 -15 -4v-2q3 -5 3 -17t-9 -17t-15 -5q-11 0 -16.5 6.5t-5.5 16.5q0 14 15.5 26t42.5 12q36 0 54 -20t18 -49q0 -27 -19.5 -47t-54.5 -24q0 -8 -0.5 -17t-1.5 -17h-16v70zM341 744q-42 0 -70 25t-40 88l9 3
q15 -34 39 -49.5t62 -15.5q40 0 64.5 15.5t40.5 49.5l7 -3q-12 -63 -40 -88t-72 -25zM-24 7q14 1 31.5 5t31.5 12q18 11 32 32.5t25 47.5q27 64 56.5 137.5t60 150t61 153.5t59.5 149h18q38 -97 77 -193t73.5 -179t61 -148t40.5 -100q6 -15 14.5 -28.5t26.5 -24.5
q14 -8 30.5 -10.5t30.5 -3.5v-7h-315v7q13 1 30.5 3t33.5 6t28 10t14 15q2 7 0 14.5t-4 13.5l-71 183h-248q-7 -17 -14.5 -37t-14.5 -39.5t-12.5 -36.5t-8.5 -28q-5 -17 -9.5 -33t-4.5 -27q0 -14 14 -22t33.5 -12.5t40.5 -6.5t34 -3v-7h-255v7zM415 266l-119 301l-118 -301
h237z" />
    <glyph glyph-name="uni1EB3" unicode="&#x1eb3;" horiz-adv-x="490" 
d="M259 725q24 3 37.5 11.5t13.5 29.5q0 25 -9.5 36t-21.5 11q-9 0 -15 -4v-2q3 -5 3 -17t-9 -17t-15 -5q-11 0 -16.5 6.5t-5.5 16.5q0 14 15.5 26t42.5 12q36 0 54 -20t18 -49q0 -27 -19.5 -47t-54.5 -24q0 -8 -0.5 -17t-1.5 -17h-16v70zM153 -12q-52 0 -84 29t-32 77
q0 31 8.5 51.5t22 35t31 23.5t36.5 16q43 17 89.5 30.5t78.5 30.5v71q0 7 -2 24t-10 34.5t-25.5 31t-48.5 13.5q-29 0 -42.5 -9.5t-20.5 -17.5q0 -20 5.5 -40.5t5.5 -37.5q0 -16 -15.5 -29.5t-42.5 -13.5q-25 0 -35 16t-10 36q0 22 14.5 41.5t37.5 34t51.5 22.5t57.5 8
q37 0 68.5 -4.5t54.5 -19.5t36 -44.5t13 -79.5q0 -33 -1 -68.5t-1.5 -67.5t-1.5 -57.5t-1 -37.5q0 -6 2.5 -14.5t8.5 -16.5t15 -14t21 -6t21.5 8t15.5 20t9.5 27t4.5 29h10q-5 -70 -32 -99.5t-74 -29.5q-35 0 -55.5 16t-32.5 51h-3q-27 -32 -65 -50.5t-83 -18.5zM202 23
q33 0 56.5 12.5t41.5 35.5l4 196q-38 -12 -69 -25.5t-53.5 -32t-35 -43t-12.5 -57.5q0 -42 18 -64t50 -22zM265 517q-42 0 -70 25t-40 88l9 3q15 -34 39 -49.5t62 -15.5q40 0 64.5 15.5t40.5 49.5l7 -3q-12 -63 -40 -88t-72 -25z" />
    <glyph glyph-name="uni1EB8" unicode="&#x1eb8;" horiz-adv-x="666" 
d="M372 -162q-19 0 -32 13t-13 32t13 32t32 13q20 0 33 -13t13 -32t-13 -32t-33 -13zM38 7q7 0 18 1.5t22.5 3t22 3.5t16.5 4q18 7 24.5 19.5t6.5 29.5v541q0 17 -6 30.5t-25 21.5q-7 3 -18 5.5t-22 4.5t-21.5 3.5t-17.5 1.5v7h551v-155h-9q-4 16 -16 39.5t-28 45t-34 37.5
t-34 18q-18 2 -47.5 3t-53.5 1h-113v-312h100q21 0 35 3.5t23.5 8t15 10l10.5 10.5q6 6 11.5 18.5t11 27t9 29t4.5 24.5h9v-279h-9q-1 11 -5 26.5t-9.5 31.5t-11.5 28.5t-10 17.5l-11 11t-15.5 10.5t-23.5 7.5t-34 3h-100v-245q0 -31 4.5 -49t17 -27.5t36 -12t61.5 -2.5
h52.5t49.5 2t41 7t27 14q11 12 25.5 33.5t27.5 45.5t23.5 45.5t14.5 32.5h9l-13 -192h-592v7z" />
    <glyph glyph-name="uni1EB9" unicode="&#x1eb9;" horiz-adv-x="456" 
d="M246 -162q-19 0 -32 13t-13 32t13 32t32 13q20 0 33 -13t13 -32t-13 -32t-33 -13zM253 -12q-57 0 -98.5 19t-68.5 52t-40.5 77t-13.5 94q0 45 14 87.5t41 75t66 52.5t89 20q51 0 87 -15.5t58 -41t32 -59.5t10 -70v-9h-298v-17q0 -48 7 -91t24.5 -74.5t46 -50t71.5 -18.5
q29 0 51 6.5t39.5 18.5t32 29.5t28.5 40.5l8 -5q-26 -54 -74.5 -87.5t-111.5 -33.5zM332 282q0 30 -3.5 61t-13.5 55.5t-28 40.5t-46 16q-24 0 -43.5 -12.5t-34 -36t-23 -55.5t-9.5 -71z" />
    <glyph glyph-name="uni1EBA" unicode="&#x1eba;" horiz-adv-x="666" 
d="M371 810q24 3 37.5 11.5t13.5 29.5q0 25 -9.5 36t-21.5 11q-9 0 -15 -4v-2q3 -5 3 -17t-9 -17t-15 -5q-11 0 -16.5 6.5t-5.5 16.5q0 14 15.5 26t42.5 12q36 0 54 -20t18 -49q0 -27 -19.5 -47t-54.5 -24q0 -8 -0.5 -17t-1.5 -17h-16v70zM38 7q7 0 18 1.5t22.5 3t22 3.5
t16.5 4q18 7 24.5 19.5t6.5 29.5v541q0 17 -6 30.5t-25 21.5q-7 3 -18 5.5t-22 4.5t-21.5 3.5t-17.5 1.5v7h551v-155h-9q-4 16 -16 39.5t-28 45t-34 37.5t-34 18q-18 2 -47.5 3t-53.5 1h-113v-312h100q21 0 35 3.5t23.5 8t15 10l10.5 10.5q6 6 11.5 18.5t11 27t9 29
t4.5 24.5h9v-279h-9q-1 11 -5 26.5t-9.5 31.5t-11.5 28.5t-10 17.5l-11 11t-15.5 10.5t-23.5 7.5t-34 3h-100v-245q0 -31 4.5 -49t17 -27.5t36 -12t61.5 -2.5h52.5t49.5 2t41 7t27 14q11 12 25.5 33.5t27.5 45.5t23.5 45.5t14.5 32.5h9l-13 -192h-592v7z" />
    <glyph glyph-name="uni1EBB" unicode="&#x1ebb;" horiz-adv-x="456" 
d="M250 573q24 3 37.5 11.5t13.5 29.5q0 25 -9.5 36t-21.5 11q-9 0 -15 -4v-2q3 -5 3 -17t-9 -17t-15 -5q-11 0 -16.5 6.5t-5.5 16.5q0 14 15.5 26t42.5 12q36 0 54 -20t18 -49q0 -27 -19.5 -47t-54.5 -24q0 -8 -0.5 -17t-1.5 -17h-16v70zM253 -12q-57 0 -98.5 19t-68.5 52
t-40.5 77t-13.5 94q0 45 14 87.5t41 75t66 52.5t89 20q51 0 87 -15.5t58 -41t32 -59.5t10 -70v-9h-298v-17q0 -48 7 -91t24.5 -74.5t46 -50t71.5 -18.5q29 0 51 6.5t39.5 18.5t32 29.5t28.5 40.5l8 -5q-26 -54 -74.5 -87.5t-111.5 -33.5zM332 282q0 30 -3.5 61t-13.5 55.5
t-28 40.5t-46 16q-24 0 -43.5 -12.5t-34 -36t-23 -55.5t-9.5 -71z" />
    <glyph glyph-name="uni1EC2" unicode="&#x1ec2;" horiz-adv-x="666" 
d="M460 936q24 3 37.5 11.5t13.5 29.5q0 25 -9.5 36t-21.5 11q-9 0 -15 -4v-2q3 -5 3 -17t-9 -17t-15 -5q-11 0 -16.5 6.5t-5.5 16.5q0 14 15.5 26t42.5 12q36 0 54 -20t18 -49q0 -27 -19.5 -47t-54.5 -24q0 -8 -0.5 -17t-1.5 -17h-16v70zM38 7q7 0 18 1.5t22.5 3t22 3.5
t16.5 4q18 7 24.5 19.5t6.5 29.5v541q0 17 -6 30.5t-25 21.5q-7 3 -18 5.5t-22 4.5t-21.5 3.5t-17.5 1.5v7h551v-155h-9q-4 16 -16 39.5t-28 45t-34 37.5t-34 18q-18 2 -47.5 3t-53.5 1h-113v-312h100q21 0 35 3.5t23.5 8t15 10l10.5 10.5q6 6 11.5 18.5t11 27t9 29
t4.5 24.5h9v-279h-9q-1 11 -5 26.5t-9.5 31.5t-11.5 28.5t-10 17.5l-11 11t-15.5 10.5t-23.5 7.5t-34 3h-100v-245q0 -31 4.5 -49t17 -27.5t36 -12t61.5 -2.5h52.5t49.5 2t41 7t27 14q11 12 25.5 33.5t27.5 45.5t23.5 45.5t14.5 32.5h9l-13 -192h-592v7zM246 744
q32 46 54.5 75t36.5 51q7 10 12 13.5t23 3.5q17 0 21.5 -3t10.5 -13q15 -21 38 -50.5t55 -76.5l-6 -5l-121 83l-119 -83z" />
    <glyph glyph-name="uni1EC3" unicode="&#x1ec3;" horiz-adv-x="456" 
d="M337 700q24 3 37.5 11.5t13.5 29.5q0 25 -9.5 36t-21.5 11q-9 0 -15 -4v-2q3 -5 3 -17t-9 -17t-15 -5q-11 0 -16.5 6.5t-5.5 16.5q0 14 15.5 26t42.5 12q36 0 54 -20t18 -49q0 -27 -19.5 -47t-54.5 -24q0 -8 -0.5 -17t-1.5 -17h-16v70zM253 -12q-57 0 -98.5 19t-68.5 52
t-40.5 77t-13.5 94q0 45 14 87.5t41 75t66 52.5t89 20q51 0 87 -15.5t58 -41t32 -59.5t10 -70v-9h-298v-17q0 -48 7 -91t24.5 -74.5t46 -50t71.5 -18.5q29 0 51 6.5t39.5 18.5t32 29.5t28.5 40.5l8 -5q-26 -54 -74.5 -87.5t-111.5 -33.5zM332 282q0 30 -3.5 61t-13.5 55.5
t-28 40.5t-46 16q-24 0 -43.5 -12.5t-34 -36t-23 -55.5t-9.5 -71zM123 508q32 46 54.5 75t36.5 51q7 10 12 13.5t23 3.5q17 0 21.5 -3t10.5 -13q15 -21 38 -50.5t55 -76.5l-6 -5l-121 83l-119 -83z" />
    <glyph glyph-name="uni1EC8" unicode="&#x1ec8;" horiz-adv-x="406" 
d="M196 810q24 3 37.5 11.5t13.5 29.5q0 25 -9.5 36t-21.5 11q-9 0 -15 -4v-2q3 -5 3 -17t-9 -17t-15 -5q-11 0 -16.5 6.5t-5.5 16.5q0 14 15.5 26t42.5 12q36 0 54 -20t18 -49q0 -27 -19.5 -47t-54.5 -24q0 -8 -0.5 -17t-1.5 -17h-16v70zM46 7q7 0 17.5 1t21 2.5t20 3
t14.5 3.5q18 7 24.5 19.5t6.5 29.5v543q0 17 -6.5 30.5t-24.5 21.5q-13 5 -36 9.5t-37 5.5v7h314v-7q-14 -1 -36.5 -4.5t-36.5 -8.5q-19 -6 -25 -19t-6 -30v-543q0 -17 7 -30.5t24 -21.5q4 -2 13.5 -4t20.5 -3.5t21.5 -3t17.5 -1.5v-7h-314v7z" />
    <glyph glyph-name="uni1EC9" unicode="&#x1ec9;" horiz-adv-x="286" 
d="M33 7q14 1 23.5 2.5t20.5 4.5q14 5 20.5 16.5t6.5 28.5v316q-2 16 -8.5 30.5t-18.5 22.5q-9 6 -27 9t-32 4v6l173 11l4 -4v-390q0 -17 6.5 -29.5t20.5 -18.5q11 -5 22.5 -6.5t24.5 -2.5v-7h-236v7zM143 573q24 3 37.5 11.5t13.5 29.5q0 25 -9.5 36t-21.5 11q-9 0 -15 -4
v-2q3 -5 3 -17t-9 -17t-15 -5q-11 0 -16.5 6.5t-5.5 16.5q0 14 15.5 26t42.5 12q36 0 54 -20t18 -49q0 -27 -19.5 -47t-54.5 -24q0 -8 -0.5 -17t-1.5 -17h-16v70z" />
    <glyph glyph-name="uni1ECA" unicode="&#x1eca;" horiz-adv-x="406" 
d="M207 -162q-19 0 -32 13t-13 32t13 32t32 13q20 0 33 -13t13 -32t-13 -32t-33 -13zM46 7q7 0 17.5 1t21 2.5t20 3t14.5 3.5q18 7 24.5 19.5t6.5 29.5v543q0 17 -6.5 30.5t-24.5 21.5q-13 5 -36 9.5t-37 5.5v7h314v-7q-14 -1 -36.5 -4.5t-36.5 -8.5q-19 -6 -25 -19t-6 -30
v-543q0 -17 7 -30.5t24 -21.5q4 -2 13.5 -4t20.5 -3.5t21.5 -3t17.5 -1.5v-7h-314v7z" />
    <glyph glyph-name="uni1ECB" unicode="&#x1ecb;" horiz-adv-x="286" 
d="M157 -162q-19 0 -32 13t-13 32t13 32t32 13q20 0 33 -13t13 -32t-13 -32t-33 -13zM33 7q14 1 23.5 2.5t20.5 4.5q14 5 20.5 16.5t6.5 28.5v316q-2 16 -8.5 30.5t-18.5 22.5q-9 6 -27 9t-32 4v6l173 11l4 -4v-390q0 -17 6.5 -29.5t20.5 -18.5q11 -5 22.5 -6.5t24.5 -2.5
v-7h-236v7zM141 593q-25 0 -43 18t-18 43q0 26 18 44.5t43 18.5q28 0 45.5 -17.5t17.5 -41.5q0 -26 -18 -45.5t-45 -19.5z" />
    <glyph glyph-name="uni1ECC" unicode="&#x1ecc;" horiz-adv-x="775" 
d="M386 -162q-19 0 -32 13t-13 32t13 32t32 13q20 0 33 -13t13 -32t-13 -32t-33 -13zM384 -16q-69 0 -129.5 24t-109.5 70q-50 47 -78.5 110.5t-28.5 145.5q0 164 97 261q51 52 115.5 78t137.5 26q71 0 134 -24.5t120 -79.5q45 -45 70 -110t25 -139q0 -78 -24 -145.5
t-80 -120.5q-48 -46 -109.5 -71t-139.5 -25zM388 -4q58 0 101 26.5t71 73.5t42 110t14 137q0 65 -12.5 127t-39.5 110t-70.5 77.5t-105.5 29.5q-53 0 -95.5 -24t-72 -69t-45.5 -109.5t-16 -145.5q0 -71 14 -133t42 -109t71 -74t102 -27z" />
    <glyph glyph-name="uni1ECD" unicode="&#x1ecd;" 
d="M266 -162q-19 0 -32 13t-13 32t13 32t32 13q20 0 33 -13t13 -32t-13 -32t-33 -13zM257 -14q-45 0 -86 16.5t-72 47.5t-49.5 75t-18.5 99q0 53 16.5 97.5t47.5 76.5t73.5 49.5t95.5 17.5q52 0 94.5 -18t72 -49.5t45.5 -74t16 -92.5t-15.5 -94.5t-45.5 -78t-73.5 -53
t-100.5 -19.5zM263 -4q33 0 57.5 18.5t40 50t23 74t7.5 91.5q0 43 -6.5 83.5t-21.5 72t-39.5 50.5t-60.5 19q-39 0 -64.5 -20t-40 -52t-20.5 -72t-6 -79q0 -48 7 -91t23 -75.5t41 -51t60 -18.5z" />
    <glyph glyph-name="uni1ECE" unicode="&#x1ece;" horiz-adv-x="775" 
d="M384 -16q-69 0 -129.5 24t-109.5 70q-50 47 -78.5 110.5t-28.5 145.5q0 164 97 261q51 52 115.5 78t137.5 26q71 0 134 -24.5t120 -79.5q45 -45 70 -110t25 -139q0 -78 -24 -145.5t-80 -120.5q-48 -46 -109.5 -71t-139.5 -25zM388 -4q58 0 101 26.5t71 73.5t42 110
t14 137q0 65 -12.5 127t-39.5 110t-70.5 77.5t-105.5 29.5q-53 0 -95.5 -24t-72 -69t-45.5 -109.5t-16 -145.5q0 -71 14 -133t42 -109t71 -74t102 -27zM400 810q24 3 37.5 11.5t13.5 29.5q0 25 -9.5 36t-21.5 11q-9 0 -15 -4v-2q3 -5 3 -17t-9 -17t-15 -5q-11 0 -16.5 6.5
t-5.5 16.5q0 14 15.5 26t42.5 12q36 0 54 -20t18 -49q0 -27 -19.5 -47t-54.5 -24q0 -8 -0.5 -17t-1.5 -17h-16v70z" />
    <glyph glyph-name="uni1ECF" unicode="&#x1ecf;" 
d="M268 573q24 3 37.5 11.5t13.5 29.5q0 25 -9.5 36t-21.5 11q-9 0 -15 -4v-2q3 -5 3 -17t-9 -17t-15 -5q-11 0 -16.5 6.5t-5.5 16.5q0 14 15.5 26t42.5 12q36 0 54 -20t18 -49q0 -27 -19.5 -47t-54.5 -24q0 -8 -0.5 -17t-1.5 -17h-16v70zM257 -14q-45 0 -86 16.5t-72 47.5
t-49.5 75t-18.5 99q0 53 16.5 97.5t47.5 76.5t73.5 49.5t95.5 17.5q52 0 94.5 -18t72 -49.5t45.5 -74t16 -92.5t-15.5 -94.5t-45.5 -78t-73.5 -53t-100.5 -19.5zM263 -4q33 0 57.5 18.5t40 50t23 74t7.5 91.5q0 43 -6.5 83.5t-21.5 72t-39.5 50.5t-60.5 19q-39 0 -64.5 -20
t-40 -52t-20.5 -72t-6 -79q0 -48 7 -91t23 -75.5t41 -51t60 -18.5z" />
    <glyph glyph-name="uni1ED4" unicode="&#x1ed4;" horiz-adv-x="775" 
d="M477 936q24 3 37.5 11.5t13.5 29.5q0 25 -9.5 36t-21.5 11q-9 0 -15 -4v-2q3 -5 3 -17t-9 -17t-15 -5q-11 0 -16.5 6.5t-5.5 16.5q0 14 15.5 26t42.5 12q36 0 54 -20t18 -49q0 -27 -19.5 -47t-54.5 -24q0 -8 -0.5 -17t-1.5 -17h-16v70zM384 -16q-69 0 -129.5 24
t-109.5 70q-50 47 -78.5 110.5t-28.5 145.5q0 164 97 261q51 52 115.5 78t137.5 26q71 0 134 -24.5t120 -79.5q45 -45 70 -110t25 -139q0 -78 -24 -145.5t-80 -120.5q-48 -46 -109.5 -71t-139.5 -25zM388 -4q58 0 101 26.5t71 73.5t42 110t14 137q0 65 -12.5 127t-39.5 110
t-70.5 77.5t-105.5 29.5q-53 0 -95.5 -24t-72 -69t-45.5 -109.5t-16 -145.5q0 -71 14 -133t42 -109t71 -74t102 -27zM263 744q32 46 54.5 75t36.5 51q7 10 12 13.5t23 3.5q17 0 21.5 -3t10.5 -13q15 -21 38 -50.5t55 -76.5l-6 -5l-121 83l-119 -83z" />
    <glyph glyph-name="uni1ED5" unicode="&#x1ed5;" 
d="M355 700q24 3 37.5 11.5t13.5 29.5q0 25 -9.5 36t-21.5 11q-9 0 -15 -4v-2q3 -5 3 -17t-9 -17t-15 -5q-11 0 -16.5 6.5t-5.5 16.5q0 14 15.5 26t42.5 12q36 0 54 -20t18 -49q0 -27 -19.5 -47t-54.5 -24q0 -8 -0.5 -17t-1.5 -17h-16v70zM257 -14q-45 0 -86 16.5t-72 47.5
t-49.5 75t-18.5 99q0 53 16.5 97.5t47.5 76.5t73.5 49.5t95.5 17.5q52 0 94.5 -18t72 -49.5t45.5 -74t16 -92.5t-15.5 -94.5t-45.5 -78t-73.5 -53t-100.5 -19.5zM263 -4q33 0 57.5 18.5t40 50t23 74t7.5 91.5q0 43 -6.5 83.5t-21.5 72t-39.5 50.5t-60.5 19q-39 0 -64.5 -20
t-40 -52t-20.5 -72t-6 -79q0 -48 7 -91t23 -75.5t41 -51t60 -18.5zM141 508q32 46 54.5 75t36.5 51q7 10 12 13.5t23 3.5q17 0 21.5 -3t10.5 -13q15 -21 38 -50.5t55 -76.5l-6 -5l-121 83l-119 -83z" />
    <glyph glyph-name="uni1EDE" unicode="&#x1ede;" horiz-adv-x="775" 
d="M400 810q24 3 37.5 11.5t13.5 29.5q0 25 -9.5 36t-21.5 11q-9 0 -15 -4v-2q3 -5 3 -17t-9 -17t-15 -5q-11 0 -16.5 6.5t-5.5 16.5q0 14 15.5 26t42.5 12q36 0 54 -20t18 -49q0 -27 -19.5 -47t-54.5 -24q0 -8 -0.5 -17t-1.5 -17h-16v70zM384 -16q-69 0 -129.5 24
t-109.5 70q-50 47 -78.5 110.5t-28.5 145.5q0 164 97 261q51 52 115.5 78t137.5 26q45 0 87.5 -10t82.5 -32q16 3 28.5 12t16.5 33q-29 -8 -45 5.5t-15 31.5q2 20 13.5 32t32.5 10q26 -2 36.5 -20.5t2.5 -56.5q-5 -24 -17.5 -38.5t-29.5 -22.5q30 -19 61 -48q45 -45 70 -110
t25 -139q0 -78 -24 -145.5t-80 -120.5q-48 -46 -109.5 -71t-139.5 -25zM388 -4q58 0 101 26.5t71 73.5t42 110t14 137q0 65 -12.5 127t-39.5 110t-70.5 77.5t-105.5 29.5q-53 0 -95.5 -24t-72 -69t-45.5 -109.5t-16 -145.5q0 -71 14 -133t42 -109t71 -74t102 -27z" />
    <glyph glyph-name="uni1EDF" unicode="&#x1edf;" 
d="M268 573q24 3 37.5 11.5t13.5 29.5q0 25 -9.5 36t-21.5 11q-9 0 -15 -4v-2q3 -5 3 -17t-9 -17t-15 -5q-11 0 -16.5 6.5t-5.5 16.5q0 14 15.5 26t42.5 12q36 0 54 -20t18 -49q0 -27 -19.5 -47t-54.5 -24q0 -8 -0.5 -17t-1.5 -17h-16v70zM257 -14q-45 0 -86 16.5t-72 47.5
t-49.5 75t-18.5 99q0 53 16.5 97.5t47.5 76.5t73.5 49.5t95.5 17.5q39 0 72 -10t60 -28q14 3 24.5 12.5t14.5 30.5q-29 -8 -45 5.5t-15 31.5q2 20 13.5 32t32.5 10q26 -2 36.5 -20.5t2.5 -56.5q-5 -23 -17 -37.5t-28 -22.5q37 -32 57 -78.5t20 -102.5q0 -50 -15.5 -94.5
t-45.5 -78t-73.5 -53t-100.5 -19.5zM263 -4q33 0 57.5 18.5t40 50t23 74t7.5 91.5q0 43 -6.5 83.5t-21.5 72t-39.5 50.5t-60.5 19q-39 0 -64.5 -20t-40 -52t-20.5 -72t-6 -79q0 -48 7 -91t23 -75.5t41 -51t60 -18.5z" />
    <glyph glyph-name="uni1EE2" unicode="&#x1ee2;" horiz-adv-x="775" 
d="M386 -162q-19 0 -32 13t-13 32t13 32t32 13q20 0 33 -13t13 -32t-13 -32t-33 -13zM384 -16q-69 0 -129.5 24t-109.5 70q-50 47 -78.5 110.5t-28.5 145.5q0 164 97 261q51 52 115.5 78t137.5 26q45 0 87.5 -10t82.5 -32q16 3 28.5 12t16.5 33q-29 -8 -45 5.5t-15 31.5
q2 20 13.5 32t32.5 10q26 -2 36.5 -20.5t2.5 -56.5q-5 -24 -17.5 -38.5t-29.5 -22.5q30 -19 61 -48q45 -45 70 -110t25 -139q0 -78 -24 -145.5t-80 -120.5q-48 -46 -109.5 -71t-139.5 -25zM388 -4q58 0 101 26.5t71 73.5t42 110t14 137q0 65 -12.5 127t-39.5 110t-70.5 77.5
t-105.5 29.5q-53 0 -95.5 -24t-72 -69t-45.5 -109.5t-16 -145.5q0 -71 14 -133t42 -109t71 -74t102 -27z" />
    <glyph glyph-name="uni1EE3" unicode="&#x1ee3;" 
d="M266 -162q-19 0 -32 13t-13 32t13 32t32 13q20 0 33 -13t13 -32t-13 -32t-33 -13zM257 -14q-45 0 -86 16.5t-72 47.5t-49.5 75t-18.5 99q0 53 16.5 97.5t47.5 76.5t73.5 49.5t95.5 17.5q39 0 72 -10t60 -28q14 3 24.5 12.5t14.5 30.5q-29 -8 -45 5.5t-15 31.5
q2 20 13.5 32t32.5 10q26 -2 36.5 -20.5t2.5 -56.5q-5 -23 -17 -37.5t-28 -22.5q37 -32 57 -78.5t20 -102.5q0 -50 -15.5 -94.5t-45.5 -78t-73.5 -53t-100.5 -19.5zM263 -4q33 0 57.5 18.5t40 50t23 74t7.5 91.5q0 43 -6.5 83.5t-21.5 72t-39.5 50.5t-60.5 19
q-39 0 -64.5 -20t-40 -52t-20.5 -72t-6 -79q0 -48 7 -91t23 -75.5t41 -51t60 -18.5z" />
    <glyph glyph-name="uni1EE4" unicode="&#x1ee4;" horiz-adv-x="791" 
d="M414 -162q-19 0 -32 13t-13 32t13 32t32 13q20 0 33 -13t13 -32t-13 -32t-33 -13zM400 -16q-66 0 -115.5 16t-82.5 43t-50 62.5t-17 74.5v433q0 17 -7 29t-24 21q-14 7 -36 9.5t-34 3.5v7h311v-7q-14 -1 -36 -4.5t-36 -8.5q-19 -6 -25 -19t-6 -30v-421q0 -27 6.5 -57.5
t26 -56t55 -42.5t94.5 -17q60 0 101.5 16.5t68 43t38.5 58.5t12 64v311q0 112 -34 134q-26 17 -55.5 22.5t-46.5 6.5v7h275v-7q-7 0 -19 -2t-25.5 -5.5t-26.5 -7.5t-21 -9q-20 -13 -26.5 -49.5t-6.5 -83.5v-321q0 -61 -26.5 -102t-65.5 -66t-84 -35.5t-82 -10.5z" />
    <glyph glyph-name="uni1EE5" unicode="&#x1ee5;" horiz-adv-x="567" 
d="M288 -162q-19 0 -32 13t-13 32t13 32t32 13q20 0 33 -13t13 -32t-13 -32t-33 -13zM220 -12q-35 0 -59.5 12t-40.5 34t-23 52t-7 65v223q-3 34 -26 50q-9 6 -22.5 10.5t-27.5 5.5v6l161 12l7 -7v-328q0 -52 23.5 -77.5t55.5 -25.5q27 0 47.5 7.5t35.5 18.5t24 22.5
t14 19.5v289q-3 34 -26 50q-9 6 -27 9t-38 4v6l175 12l7 -7v-375q2 -16 6.5 -28.5t16.5 -20.5q9 -6 23 -8.5t28 -3.5v-6l-157 -11l-7 7v61h-3q-14 -14 -29 -28t-33 -25t-42 -18t-56 -7z" />
    <glyph glyph-name="uni1EE6" unicode="&#x1ee6;" horiz-adv-x="791" 
d="M416 810q24 3 37.5 11.5t13.5 29.5q0 25 -9.5 36t-21.5 11q-9 0 -15 -4v-2q3 -5 3 -17t-9 -17t-15 -5q-11 0 -16.5 6.5t-5.5 16.5q0 14 15.5 26t42.5 12q36 0 54 -20t18 -49q0 -27 -19.5 -47t-54.5 -24q0 -8 -0.5 -17t-1.5 -17h-16v70zM400 -16q-66 0 -115.5 16t-82.5 43
t-50 62.5t-17 74.5v433q0 17 -7 29t-24 21q-14 7 -36 9.5t-34 3.5v7h311v-7q-14 -1 -36 -4.5t-36 -8.5q-19 -6 -25 -19t-6 -30v-421q0 -27 6.5 -57.5t26 -56t55 -42.5t94.5 -17q60 0 101.5 16.5t68 43t38.5 58.5t12 64v311q0 112 -34 134q-26 17 -55.5 22.5t-46.5 6.5v7h275
v-7q-7 0 -19 -2t-25.5 -5.5t-26.5 -7.5t-21 -9q-20 -13 -26.5 -49.5t-6.5 -83.5v-321q0 -61 -26.5 -102t-65.5 -66t-84 -35.5t-82 -10.5z" />
    <glyph glyph-name="uni1EE7" unicode="&#x1ee7;" horiz-adv-x="567" 
d="M280 573q24 3 37.5 11.5t13.5 29.5q0 25 -9.5 36t-21.5 11q-9 0 -15 -4v-2q3 -5 3 -17t-9 -17t-15 -5q-11 0 -16.5 6.5t-5.5 16.5q0 14 15.5 26t42.5 12q36 0 54 -20t18 -49q0 -27 -19.5 -47t-54.5 -24q0 -8 -0.5 -17t-1.5 -17h-16v70zM220 -12q-35 0 -59.5 12t-40.5 34
t-23 52t-7 65v223q-3 34 -26 50q-9 6 -22.5 10.5t-27.5 5.5v6l161 12l7 -7v-328q0 -52 23.5 -77.5t55.5 -25.5q27 0 47.5 7.5t35.5 18.5t24 22.5t14 19.5v289q-3 34 -26 50q-9 6 -27 9t-38 4v6l175 12l7 -7v-375q2 -16 6.5 -28.5t16.5 -20.5q9 -6 23 -8.5t28 -3.5v-6
l-157 -11l-7 7v61h-3q-14 -14 -29 -28t-33 -25t-42 -18t-56 -7z" />
    <glyph glyph-name="uni1EEC" unicode="&#x1eec;" horiz-adv-x="791" 
d="M416 810q24 3 37.5 11.5t13.5 29.5q0 25 -9.5 36t-21.5 11q-9 0 -15 -4v-2q3 -5 3 -17t-9 -17t-15 -5q-11 0 -16.5 6.5t-5.5 16.5q0 14 15.5 26t42.5 12q36 0 54 -20t18 -49q0 -27 -19.5 -47t-54.5 -24q0 -8 -0.5 -17t-1.5 -17h-16v70zM400 -16q-66 0 -115.5 16t-82.5 43
t-50 62.5t-17 74.5v433q0 17 -7 29t-24 21q-14 7 -36 9.5t-34 3.5v7h311v-7q-14 -1 -36 -4.5t-36 -8.5q-19 -6 -25 -19t-6 -30v-421q0 -27 6.5 -57.5t26 -56t55 -42.5t94.5 -17q60 0 101.5 16.5t68 43t38.5 58.5t12 64v311q0 112 -34 134q-26 17 -55.5 22.5t-46.5 6.5v7h151
l-1 -26q16 3 28.5 12.5t16.5 32.5q-29 -8 -45 5.5t-15 31.5q2 20 13.5 32t32.5 10q26 -2 36.5 -20.5t2.5 -56.5q-6 -32 -26 -47.5t-44 -18.5v-119v-321q0 -61 -26.5 -102t-65.5 -66t-84 -35.5t-82 -10.5z" />
    <glyph glyph-name="uni1EED" unicode="&#x1eed;" horiz-adv-x="567" 
d="M280 573q24 3 37.5 11.5t13.5 29.5q0 25 -9.5 36t-21.5 11q-9 0 -15 -4v-2q3 -5 3 -17t-9 -17t-15 -5q-11 0 -16.5 6.5t-5.5 16.5q0 14 15.5 26t42.5 12q36 0 54 -20t18 -49q0 -27 -19.5 -47t-54.5 -24q0 -8 -0.5 -17t-1.5 -17h-16v70zM220 -12q-35 0 -59.5 12t-40.5 34
t-23 52t-7 65v223q-3 34 -26 50q-9 6 -22.5 10.5t-27.5 5.5v6l161 12l7 -7v-328q0 -52 23.5 -77.5t55.5 -25.5q27 0 47.5 7.5t35.5 18.5t24 22.5t14 19.5v289q-3 34 -26 50q-9 6 -27 9t-38 4v6l175 12l7 -7v-24q13 4 22.5 13.5t13.5 29.5q-29 -8 -45 5.5t-15 31.5
q2 20 13.5 32t32.5 10q26 -2 36.5 -20.5t2.5 -56.5q-6 -29 -23 -44.5t-38 -20.5v-331q2 -16 6.5 -28.5t16.5 -20.5q9 -6 23 -8.5t28 -3.5v-6l-157 -11l-7 7v61h-3q-14 -14 -29 -28t-33 -25t-42 -18t-56 -7z" />
    <glyph glyph-name="uni1EF0" unicode="&#x1ef0;" horiz-adv-x="791" 
d="M414 -162q-19 0 -32 13t-13 32t13 32t32 13q20 0 33 -13t13 -32t-13 -32t-33 -13zM400 -16q-66 0 -115.5 16t-82.5 43t-50 62.5t-17 74.5v433q0 17 -7 29t-24 21q-14 7 -36 9.5t-34 3.5v7h311v-7q-14 -1 -36 -4.5t-36 -8.5q-19 -6 -25 -19t-6 -30v-421q0 -27 6.5 -57.5
t26 -56t55 -42.5t94.5 -17q60 0 101.5 16.5t68 43t38.5 58.5t12 64v311q0 112 -34 134q-26 17 -55.5 22.5t-46.5 6.5v7h151l-1 -26q16 3 28.5 12.5t16.5 32.5q-29 -8 -45 5.5t-15 31.5q2 20 13.5 32t32.5 10q26 -2 36.5 -20.5t2.5 -56.5q-6 -32 -26 -47.5t-44 -18.5v-119
v-321q0 -61 -26.5 -102t-65.5 -66t-84 -35.5t-82 -10.5z" />
    <glyph glyph-name="uni1EF1" unicode="&#x1ef1;" horiz-adv-x="567" 
d="M288 -162q-19 0 -32 13t-13 32t13 32t32 13q20 0 33 -13t13 -32t-13 -32t-33 -13zM220 -12q-35 0 -59.5 12t-40.5 34t-23 52t-7 65v223q-3 34 -26 50q-9 6 -22.5 10.5t-27.5 5.5v6l161 12l7 -7v-328q0 -52 23.5 -77.5t55.5 -25.5q27 0 47.5 7.5t35.5 18.5t24 22.5
t14 19.5v289q-3 34 -26 50q-9 6 -27 9t-38 4v6l175 12l7 -7v-24q13 4 22.5 13.5t13.5 29.5q-29 -8 -45 5.5t-15 31.5q2 20 13.5 32t32.5 10q26 -2 36.5 -20.5t2.5 -56.5q-6 -29 -23 -44.5t-38 -20.5v-331q2 -16 6.5 -28.5t16.5 -20.5q9 -6 23 -8.5t28 -3.5v-6l-157 -11l-7 7
v61h-3q-14 -14 -29 -28t-33 -25t-42 -18t-56 -7z" />
    <glyph glyph-name="Ygrave" unicode="&#x1ef2;" horiz-adv-x="635" 
d="M390 739q-48 39 -75 58.5t-45 33.5q-14 11 -21 20t-7 24q0 13 9 22t24 9q14 0 26 -7t23 -27q14 -23 31 -56t40 -74zM148 7q7 0 18.5 1.5t24 3t23.5 3.5t16 4q18 7 24.5 20t6.5 30v189q0 15 -7.5 33.5t-18.5 41.5q-35 68 -72.5 135.5t-69.5 122.5q-13 23 -27.5 40.5
t-32.5 28.5q-14 8 -32.5 11.5t-32.5 4.5v7h322v-7q-13 -1 -30.5 -3t-33 -6t-26.5 -10.5t-11 -15.5q0 -5 13 -31.5t36 -68.5q25 -46 58 -105t68 -122q37 61 71 118t58 102q20 36 31 60.5t11 33.5q0 12 -11.5 21t-29 14.5t-38 8.5t-37.5 4v7h241v-7q-9 -1 -23 -5t-22 -9
q-20 -11 -31 -21t-25 -30q-17 -24 -37 -56.5t-41 -69t-43 -75.5t-43 -76q-9 -17 -14.5 -29.5t-8.5 -25t-4 -26t-1 -31.5v-151q0 -17 7 -29.5t24 -20.5q4 -2 15 -4t23.5 -4.5t24.5 -4t19 -1.5v-7h-332v7z" />
    <glyph glyph-name="ygrave" unicode="&#x1ef3;" horiz-adv-x="462" 
d="M300 503q-48 39 -75 58.5t-45 33.5q-14 11 -21 20t-7 24q0 13 9 22t24 9q14 0 26 -7t23 -27q14 -23 31 -56t40 -74zM62 -226q-10 0 -23 3.5t-24 11.5t-19 21t-8 32q0 20 15.5 39t41.5 19q20 0 38 -12t18 -42l-8 -54q13 1 26.5 10t26 23.5t24 32.5t21.5 36q23 43 44 96
q-53 128 -98 226t-82 180q-9 21 -23.5 32.5t-44.5 16.5v7h219v-9q-9 0 -19.5 -1.5t-19.5 -3.5t-15 -6t-6 -10q0 -4 7 -21q9 -23 24.5 -57.5t33.5 -75t37.5 -82t35.5 -77.5q29 69 54.5 133.5t54.5 139.5q2 6 4 14t2 14q0 15 -24.5 23.5t-51.5 12.5v6h160v-5q-23 -4 -41 -19
t-28 -37q-12 -28 -32.5 -76.5t-44 -105.5t-47.5 -116.5t-43 -107.5q-29 -71 -53 -113t-45.5 -63.5t-43 -28t-43.5 -6.5z" />
    <glyph glyph-name="uni1EF4" unicode="&#x1ef4;" horiz-adv-x="635" 
d="M319 -162q-19 0 -32 13t-13 32t13 32t32 13q20 0 33 -13t13 -32t-13 -32t-33 -13zM148 7q7 0 18.5 1.5t24 3t23.5 3.5t16 4q18 7 24.5 20t6.5 30v189q0 15 -7.5 33.5t-18.5 41.5q-35 68 -72.5 135.5t-69.5 122.5q-13 23 -27.5 40.5t-32.5 28.5q-14 8 -32.5 11.5
t-32.5 4.5v7h322v-7q-13 -1 -30.5 -3t-33 -6t-26.5 -10.5t-11 -15.5q0 -5 13 -31.5t36 -68.5q25 -46 58 -105t68 -122q37 61 71 118t58 102q20 36 31 60.5t11 33.5q0 12 -11.5 21t-29 14.5t-38 8.5t-37.5 4v7h241v-7q-9 -1 -23 -5t-22 -9q-20 -11 -31 -21t-25 -30
q-17 -24 -37 -56.5t-41 -69t-43 -75.5t-43 -76q-9 -17 -14.5 -29.5t-8.5 -25t-4 -26t-1 -31.5v-151q0 -17 7 -29.5t24 -20.5q4 -2 15 -4t23.5 -4.5t24.5 -4t19 -1.5v-7h-332v7z" />
    <glyph glyph-name="uni1EF5" unicode="&#x1ef5;" horiz-adv-x="462" 
d="M330 -162q-19 0 -32 13t-13 32t13 32t32 13q20 0 33 -13t13 -32t-13 -32t-33 -13zM62 -226q-10 0 -23 3.5t-24 11.5t-19 21t-8 32q0 20 15.5 39t41.5 19q20 0 38 -12t18 -42l-8 -54q13 1 26.5 10t26 23.5t24 32.5t21.5 36q23 43 44 96q-53 128 -98 226t-82 180
q-9 21 -23.5 32.5t-44.5 16.5v7h219v-9q-9 0 -19.5 -1.5t-19.5 -3.5t-15 -6t-6 -10q0 -4 7 -21q9 -23 24.5 -57.5t33.5 -75t37.5 -82t35.5 -77.5q29 69 54.5 133.5t54.5 139.5q2 6 4 14t2 14q0 15 -24.5 23.5t-51.5 12.5v6h160v-5q-23 -4 -41 -19t-28 -37
q-12 -28 -32.5 -76.5t-44 -105.5t-47.5 -116.5t-43 -107.5q-29 -71 -53 -113t-45.5 -63.5t-43 -28t-43.5 -6.5z" />
    <glyph glyph-name="uni1EA4" unicode="&#x1ea4;" horiz-adv-x="680" 
d="M437 866l-4 3q23 41 39.5 74t30.5 56q11 20 23 27t26 7t24 -9t10 -22q0 -15 -7.5 -24t-21.5 -20q-18 -14 -45 -33.5t-75 -58.5zM-24 0h255v7q-13 1 -34 3t-40.5 6.5t-33.5 12.5t-14 22q0 11 4.5 27t9.5 33q3 11 8.5 28t12.5 36.5t14.5 39.5t14.5 37h248l71 -183
q2 -6 4 -13.5t0 -14.5q-2 -9 -14 -15t-28 -10t-33.5 -6t-30.5 -3v-7h315v7q-14 1 -30.5 3.5t-30.5 10.5q-18 11 -26.5 24.5t-14.5 28.5q-14 35 -40.5 100t-61 148t-73.5 179t-77 193h-18q-29 -72 -59.5 -149t-61 -153.5t-60 -150t-56.5 -137.5q-11 -26 -25 -47.5t-32 -32.5
q-14 -8 -31.5 -12t-31.5 -5v-7zM178 266l118 301l119 -301h-237zM221 739l119 83l121 -83l6 5q-32 47 -55 76.5t-38 50.5q-6 10 -10.5 13t-21.5 3q-18 0 -23 -3.5t-12 -13.5q-14 -22 -36.5 -51t-54.5 -75z" />
    <glyph glyph-name="uni1EA5" unicode="&#x1ea5;" horiz-adv-x="490" 
d="M346 630l-4 3q23 41 39.5 74t30.5 56q11 20 23 27t26 7t24 -9t10 -22q0 -15 -7.5 -24t-21.5 -20q-18 -14 -45 -33.5t-75 -58.5zM153 -12q45 0 83 18.5t65 50.5h3q12 -35 32.5 -51t55.5 -16q47 0 74 29.5t32 99.5h-10q-1 -14 -4.5 -29t-9.5 -27t-15.5 -20t-21.5 -8t-21 6
t-15 14t-8.5 16.5t-2.5 14.5q0 12 1 37.5t1.5 57.5t1.5 67.5t1 68.5q0 50 -13 79.5t-36 44.5t-54.5 19.5t-68.5 4.5q-29 0 -57.5 -8t-51.5 -22.5t-37.5 -34t-14.5 -41.5q0 -20 10 -36t35 -16q27 0 42.5 13.5t15.5 29.5q0 17 -5.5 37.5t-5.5 40.5q7 8 20.5 17.5t42.5 9.5
q31 0 48.5 -13.5t25.5 -31t10 -34.5t2 -24v-71q-32 -17 -78.5 -30.5t-89.5 -30.5q-19 -7 -36.5 -16t-31 -23.5t-22 -35t-8.5 -51.5q0 -48 32 -77t84 -29zM202 23q-32 0 -50 22t-18 64q0 33 12.5 57.5t35 43t53.5 32t69 25.5l-4 -196q-18 -23 -41.5 -35.5t-56.5 -12.5z
M130 503l119 83l121 -83l6 5q-32 47 -55 76.5t-38 50.5q-6 10 -10.5 13t-21.5 3q-18 0 -23 -3.5t-12 -13.5q-14 -22 -36.5 -51t-54.5 -75z" />
    <glyph glyph-name="uni1EA6" unicode="&#x1ea6;" horiz-adv-x="680" 
d="M489 866q-48 39 -75 58.5t-45 33.5q-14 11 -21 20t-7 24q0 13 9 22t24 9q14 0 26 -7t23 -27q14 -23 31 -56t40 -74zM-24 7q14 1 31.5 5t31.5 12q18 11 32 32.5t25 47.5q27 64 56.5 137.5t60 150t61 153.5t59.5 149h18q38 -97 77 -193t73.5 -179t61 -148t40.5 -100
q6 -15 14.5 -28.5t26.5 -24.5q14 -8 30.5 -10.5t30.5 -3.5v-7h-315v7q13 1 30.5 3t33.5 6t28 10t14 15q2 7 0 14.5t-4 13.5l-71 183h-248q-7 -17 -14.5 -37t-14.5 -39.5t-12.5 -36.5t-8.5 -28q-5 -17 -9.5 -33t-4.5 -27q0 -14 14 -22t33.5 -12.5t40.5 -6.5t34 -3v-7h-255v7z
M415 266l-119 301l-118 -301h237zM216 744q32 46 54.5 75t36.5 51q7 10 12 13.5t23 3.5q17 0 21.5 -3t10.5 -13q15 -21 38 -50.5t55 -76.5l-6 -5l-121 83l-119 -83z" />
    <glyph glyph-name="uni1EA7" unicode="&#x1ea7;" horiz-adv-x="490" 
d="M398 630q-48 39 -75 58.5t-45 33.5q-14 11 -21 20t-7 24q0 13 9 22t24 9q14 0 26 -7t23 -27q14 -23 31 -56t40 -74zM153 -12q-52 0 -84 29t-32 77q0 31 8.5 51.5t22 35t31 23.5t36.5 16q43 17 89.5 30.5t78.5 30.5v71q0 7 -2 24t-10 34.5t-25.5 31t-48.5 13.5
q-29 0 -42.5 -9.5t-20.5 -17.5q0 -20 5.5 -40.5t5.5 -37.5q0 -16 -15.5 -29.5t-42.5 -13.5q-25 0 -35 16t-10 36q0 22 14.5 41.5t37.5 34t51.5 22.5t57.5 8q37 0 68.5 -4.5t54.5 -19.5t36 -44.5t13 -79.5q0 -33 -1 -68.5t-1.5 -67.5t-1.5 -57.5t-1 -37.5q0 -6 2.5 -14.5
t8.5 -16.5t15 -14t21 -6t21.5 8t15.5 20t9.5 27t4.5 29h10q-5 -70 -32 -99.5t-74 -29.5q-35 0 -55.5 16t-32.5 51h-3q-27 -32 -65 -50.5t-83 -18.5zM202 23q33 0 56.5 12.5t41.5 35.5l4 196q-38 -12 -69 -25.5t-53.5 -32t-35 -43t-12.5 -57.5q0 -42 18 -64t50 -22zM125 508
q32 46 54.5 75t36.5 51q7 10 12 13.5t23 3.5q17 0 21.5 -3t10.5 -13q15 -21 38 -50.5t55 -76.5l-6 -5l-121 83l-119 -83z" />
    <glyph glyph-name="uni1EAA" unicode="&#x1eaa;" horiz-adv-x="680" 
d="M217 931q4 12 11 26t17.5 26t24 20.5t28.5 8.5q19 0 33.5 -5t26.5 -10.5t23 -10.5t23 -5q21 0 33 8.5t23 28.5l9 -2q-3 -11 -10.5 -25t-18.5 -26t-24.5 -20.5t-29.5 -8.5q-20 0 -34 5t-26 11t-23 11t-24 5q-18 0 -29 -8t-24 -31zM-24 7q14 1 31.5 5t31.5 12
q18 11 32 32.5t25 47.5q27 64 56.5 137.5t60 150t61 153.5t59.5 149h18q38 -97 77 -193t73.5 -179t61 -148t40.5 -100q6 -15 14.5 -28.5t26.5 -24.5q14 -8 30.5 -10.5t30.5 -3.5v-7h-315v7q13 1 30.5 3t33.5 6t28 10t14 15q2 7 0 14.5t-4 13.5l-71 183h-248
q-7 -17 -14.5 -37t-14.5 -39.5t-12.5 -36.5t-8.5 -28q-5 -17 -9.5 -33t-4.5 -27q0 -14 14 -22t33.5 -12.5t40.5 -6.5t34 -3v-7h-255v7zM415 266l-119 301l-118 -301h237zM216 744q32 46 54.5 75t36.5 51q7 10 12 13.5t23 3.5q17 0 21.5 -3t10.5 -13q15 -21 38 -50.5
t55 -76.5l-6 -5l-121 83l-119 -83z" />
    <glyph glyph-name="uni1EAB" unicode="&#x1eab;" horiz-adv-x="490" 
d="M126 695q4 12 11 26t17.5 26t24 20.5t28.5 8.5q19 0 33.5 -5t26.5 -10.5t23 -10.5t23 -5q21 0 33 8.5t23 28.5l9 -2q-3 -11 -10.5 -25t-18.5 -26t-24.5 -20.5t-29.5 -8.5q-20 0 -34 5t-26 11t-23 11t-24 5q-18 0 -29 -8t-24 -31zM153 -12q-52 0 -84 29t-32 77
q0 31 8.5 51.5t22 35t31 23.5t36.5 16q43 17 89.5 30.5t78.5 30.5v71q0 7 -2 24t-10 34.5t-25.5 31t-48.5 13.5q-29 0 -42.5 -9.5t-20.5 -17.5q0 -20 5.5 -40.5t5.5 -37.5q0 -16 -15.5 -29.5t-42.5 -13.5q-25 0 -35 16t-10 36q0 22 14.5 41.5t37.5 34t51.5 22.5t57.5 8
q37 0 68.5 -4.5t54.5 -19.5t36 -44.5t13 -79.5q0 -33 -1 -68.5t-1.5 -67.5t-1.5 -57.5t-1 -37.5q0 -6 2.5 -14.5t8.5 -16.5t15 -14t21 -6t21.5 8t15.5 20t9.5 27t4.5 29h10q-5 -70 -32 -99.5t-74 -29.5q-35 0 -55.5 16t-32.5 51h-3q-27 -32 -65 -50.5t-83 -18.5zM202 23
q33 0 56.5 12.5t41.5 35.5l4 196q-38 -12 -69 -25.5t-53.5 -32t-35 -43t-12.5 -57.5q0 -42 18 -64t50 -22zM125 508q32 46 54.5 75t36.5 51q7 10 12 13.5t23 3.5q17 0 21.5 -3t10.5 -13q15 -21 38 -50.5t55 -76.5l-6 -5l-121 83l-119 -83z" />
    <glyph glyph-name="uni1EAC" unicode="&#x1eac;" horiz-adv-x="680" 
d="M325 -162q-19 0 -32 13t-13 32t13 32t32 13q20 0 33 -13t13 -32t-13 -32t-33 -13zM-24 7q14 1 31.5 5t31.5 12q18 11 32 32.5t25 47.5q27 64 56.5 137.5t60 150t61 153.5t59.5 149h18q38 -97 77 -193t73.5 -179t61 -148t40.5 -100q6 -15 14.5 -28.5t26.5 -24.5
q14 -8 30.5 -10.5t30.5 -3.5v-7h-315v7q13 1 30.5 3t33.5 6t28 10t14 15q2 7 0 14.5t-4 13.5l-71 183h-248q-7 -17 -14.5 -37t-14.5 -39.5t-12.5 -36.5t-8.5 -28q-5 -17 -9.5 -33t-4.5 -27q0 -14 14 -22t33.5 -12.5t40.5 -6.5t34 -3v-7h-255v7zM415 266l-119 301l-118 -301
h237zM216 744q32 46 54.5 75t36.5 51q7 10 12 13.5t23 3.5q17 0 21.5 -3t10.5 -13q15 -21 38 -50.5t55 -76.5l-6 -5l-121 83l-119 -83z" />
    <glyph glyph-name="uni1EAD" unicode="&#x1ead;" horiz-adv-x="490" 
d="M228 -162q-19 0 -32 13t-13 32t13 32t32 13q20 0 33 -13t13 -32t-13 -32t-33 -13zM153 -12q-52 0 -84 29t-32 77q0 31 8.5 51.5t22 35t31 23.5t36.5 16q43 17 89.5 30.5t78.5 30.5v71q0 7 -2 24t-10 34.5t-25.5 31t-48.5 13.5q-29 0 -42.5 -9.5t-20.5 -17.5
q0 -20 5.5 -40.5t5.5 -37.5q0 -16 -15.5 -29.5t-42.5 -13.5q-25 0 -35 16t-10 36q0 22 14.5 41.5t37.5 34t51.5 22.5t57.5 8q37 0 68.5 -4.5t54.5 -19.5t36 -44.5t13 -79.5q0 -33 -1 -68.5t-1.5 -67.5t-1.5 -57.5t-1 -37.5q0 -6 2.5 -14.5t8.5 -16.5t15 -14t21 -6t21.5 8
t15.5 20t9.5 27t4.5 29h10q-5 -70 -32 -99.5t-74 -29.5q-35 0 -55.5 16t-32.5 51h-3q-27 -32 -65 -50.5t-83 -18.5zM202 23q33 0 56.5 12.5t41.5 35.5l4 196q-38 -12 -69 -25.5t-53.5 -32t-35 -43t-12.5 -57.5q0 -42 18 -64t50 -22zM125 508q32 46 54.5 75t36.5 51
q7 10 12 13.5t23 3.5q17 0 21.5 -3t10.5 -13q15 -21 38 -50.5t55 -76.5l-6 -5l-121 83l-119 -83z" />
    <glyph glyph-name="uni1EAE" unicode="&#x1eae;" horiz-adv-x="680" 
d="M317 883l-4 3q23 41 39.5 74t30.5 56q11 20 23 27t26 7t24 -9t10 -22q0 -15 -7.5 -24t-21.5 -20q-18 -14 -45 -33.5t-75 -58.5zM341 744q44 0 72 25t40 88l-7 3q-16 -34 -40.5 -49.5t-64.5 -15.5q-38 0 -62 15.5t-39 49.5l-9 -3q12 -63 40 -88t70 -25zM-24 0h255v7
q-13 1 -34 3t-40.5 6.5t-33.5 12.5t-14 22q0 11 4.5 27t9.5 33q3 11 8.5 28t12.5 36.5t14.5 39.5t14.5 37h248l71 -183q2 -6 4 -13.5t0 -14.5q-2 -9 -14 -15t-28 -10t-33.5 -6t-30.5 -3v-7h315v7q-14 1 -30.5 3.5t-30.5 10.5q-18 11 -26.5 24.5t-14.5 28.5q-14 35 -40.5 100
t-61 148t-73.5 179t-77 193h-18q-29 -72 -59.5 -149t-61 -153.5t-60 -150t-56.5 -137.5q-11 -26 -25 -47.5t-32 -32.5q-14 -8 -31.5 -12t-31.5 -5v-7zM178 266l118 301l119 -301h-237z" />
    <glyph glyph-name="uni1EAF" unicode="&#x1eaf;" horiz-adv-x="490" 
d="M241 656l-4 3q23 41 39.5 74t30.5 56q11 20 23 27t26 7t24 -9t10 -22q0 -15 -7.5 -24t-21.5 -20q-18 -14 -45 -33.5t-75 -58.5zM153 -12q45 0 83 18.5t65 50.5h3q12 -35 32.5 -51t55.5 -16q47 0 74 29.5t32 99.5h-10q-1 -14 -4.5 -29t-9.5 -27t-15.5 -20t-21.5 -8t-21 6
t-15 14t-8.5 16.5t-2.5 14.5q0 12 1 37.5t1.5 57.5t1.5 67.5t1 68.5q0 50 -13 79.5t-36 44.5t-54.5 19.5t-68.5 4.5q-29 0 -57.5 -8t-51.5 -22.5t-37.5 -34t-14.5 -41.5q0 -20 10 -36t35 -16q27 0 42.5 13.5t15.5 29.5q0 17 -5.5 37.5t-5.5 40.5q7 8 20.5 17.5t42.5 9.5
q31 0 48.5 -13.5t25.5 -31t10 -34.5t2 -24v-71q-32 -17 -78.5 -30.5t-89.5 -30.5q-19 -7 -36.5 -16t-31 -23.5t-22 -35t-8.5 -51.5q0 -48 32 -77t84 -29zM202 23q-32 0 -50 22t-18 64q0 33 12.5 57.5t35 43t53.5 32t69 25.5l-4 -196q-18 -23 -41.5 -35.5t-56.5 -12.5z
M265 517q44 0 72 25t40 88l-7 3q-16 -34 -40.5 -49.5t-64.5 -15.5q-38 0 -62 15.5t-39 49.5l-9 -3q12 -63 40 -88t70 -25z" />
    <glyph glyph-name="uni1EB0" unicode="&#x1eb0;" horiz-adv-x="680" 
d="M371 883q-48 39 -75 58.5t-45 33.5q-14 11 -21 20t-7 24q0 13 9 22t24 9q14 0 26 -7t23 -27q14 -23 31 -56t40 -74zM341 744q-42 0 -70 25t-40 88l9 3q15 -34 39 -49.5t62 -15.5q40 0 64.5 15.5t40.5 49.5l7 -3q-12 -63 -40 -88t-72 -25zM-24 7q14 1 31.5 5t31.5 12
q18 11 32 32.5t25 47.5q27 64 56.5 137.5t60 150t61 153.5t59.5 149h18q38 -97 77 -193t73.5 -179t61 -148t40.5 -100q6 -15 14.5 -28.5t26.5 -24.5q14 -8 30.5 -10.5t30.5 -3.5v-7h-315v7q13 1 30.5 3t33.5 6t28 10t14 15q2 7 0 14.5t-4 13.5l-71 183h-248
q-7 -17 -14.5 -37t-14.5 -39.5t-12.5 -36.5t-8.5 -28q-5 -17 -9.5 -33t-4.5 -27q0 -14 14 -22t33.5 -12.5t40.5 -6.5t34 -3v-7h-255v7zM415 266l-119 301l-118 -301h237z" />
    <glyph glyph-name="uni1EB1" unicode="&#x1eb1;" horiz-adv-x="490" 
d="M295 656q-48 39 -75 58.5t-45 33.5q-14 11 -21 20t-7 24q0 13 9 22t24 9q14 0 26 -7t23 -27q14 -23 31 -56t40 -74zM153 -12q-52 0 -84 29t-32 77q0 31 8.5 51.5t22 35t31 23.5t36.5 16q43 17 89.5 30.5t78.5 30.5v71q0 7 -2 24t-10 34.5t-25.5 31t-48.5 13.5
q-29 0 -42.5 -9.5t-20.5 -17.5q0 -20 5.5 -40.5t5.5 -37.5q0 -16 -15.5 -29.5t-42.5 -13.5q-25 0 -35 16t-10 36q0 22 14.5 41.5t37.5 34t51.5 22.5t57.5 8q37 0 68.5 -4.5t54.5 -19.5t36 -44.5t13 -79.5q0 -33 -1 -68.5t-1.5 -67.5t-1.5 -57.5t-1 -37.5q0 -6 2.5 -14.5
t8.5 -16.5t15 -14t21 -6t21.5 8t15.5 20t9.5 27t4.5 29h10q-5 -70 -32 -99.5t-74 -29.5q-35 0 -55.5 16t-32.5 51h-3q-27 -32 -65 -50.5t-83 -18.5zM202 23q33 0 56.5 12.5t41.5 35.5l4 196q-38 -12 -69 -25.5t-53.5 -32t-35 -43t-12.5 -57.5q0 -42 18 -64t50 -22zM265 517
q-42 0 -70 25t-40 88l9 3q15 -34 39 -49.5t62 -15.5q40 0 64.5 15.5t40.5 49.5l7 -3q-12 -63 -40 -88t-72 -25z" />
    <glyph glyph-name="uni1EB4" unicode="&#x1eb4;" horiz-adv-x="680" 
d="M219 893q4 12 11 26t17.5 26t24 20.5t28.5 8.5q19 0 33.5 -5t26.5 -10.5t23 -10.5t23 -5q21 0 33 8.5t23 28.5l9 -2q-3 -11 -10.5 -25t-18.5 -26t-24.5 -20.5t-29.5 -8.5q-20 0 -34 5t-26 11t-23 11t-24 5q-18 0 -29 -8t-24 -31zM341 744q-42 0 -70 25t-40 88l9 3
q15 -34 39 -49.5t62 -15.5q40 0 64.5 15.5t40.5 49.5l7 -3q-12 -63 -40 -88t-72 -25zM-24 7q14 1 31.5 5t31.5 12q18 11 32 32.5t25 47.5q27 64 56.5 137.5t60 150t61 153.5t59.5 149h18q38 -97 77 -193t73.5 -179t61 -148t40.5 -100q6 -15 14.5 -28.5t26.5 -24.5
q14 -8 30.5 -10.5t30.5 -3.5v-7h-315v7q13 1 30.5 3t33.5 6t28 10t14 15q2 7 0 14.5t-4 13.5l-71 183h-248q-7 -17 -14.5 -37t-14.5 -39.5t-12.5 -36.5t-8.5 -28q-5 -17 -9.5 -33t-4.5 -27q0 -14 14 -22t33.5 -12.5t40.5 -6.5t34 -3v-7h-255v7zM415 266l-119 301l-118 -301
h237z" />
    <glyph glyph-name="uni1EB5" unicode="&#x1eb5;" horiz-adv-x="490" 
d="M143 666q4 12 11 26t17.5 26t24 20.5t28.5 8.5q19 0 33.5 -5t26.5 -10.5t23 -10.5t23 -5q21 0 33 8.5t23 28.5l9 -2q-3 -11 -10.5 -25t-18.5 -26t-24.5 -20.5t-29.5 -8.5q-20 0 -34 5t-26 11t-23 11t-24 5q-18 0 -29 -8t-24 -31zM153 -12q-52 0 -84 29t-32 77
q0 31 8.5 51.5t22 35t31 23.5t36.5 16q43 17 89.5 30.5t78.5 30.5v71q0 7 -2 24t-10 34.5t-25.5 31t-48.5 13.5q-29 0 -42.5 -9.5t-20.5 -17.5q0 -20 5.5 -40.5t5.5 -37.5q0 -16 -15.5 -29.5t-42.5 -13.5q-25 0 -35 16t-10 36q0 22 14.5 41.5t37.5 34t51.5 22.5t57.5 8
q37 0 68.5 -4.5t54.5 -19.5t36 -44.5t13 -79.5q0 -33 -1 -68.5t-1.5 -67.5t-1.5 -57.5t-1 -37.5q0 -6 2.5 -14.5t8.5 -16.5t15 -14t21 -6t21.5 8t15.5 20t9.5 27t4.5 29h10q-5 -70 -32 -99.5t-74 -29.5q-35 0 -55.5 16t-32.5 51h-3q-27 -32 -65 -50.5t-83 -18.5zM202 23
q33 0 56.5 12.5t41.5 35.5l4 196q-38 -12 -69 -25.5t-53.5 -32t-35 -43t-12.5 -57.5q0 -42 18 -64t50 -22zM265 517q-42 0 -70 25t-40 88l9 3q15 -34 39 -49.5t62 -15.5q40 0 64.5 15.5t40.5 49.5l7 -3q-12 -63 -40 -88t-72 -25z" />
    <glyph glyph-name="uni1EB6" unicode="&#x1eb6;" horiz-adv-x="680" 
d="M325 -162q-19 0 -32 13t-13 32t13 32t32 13q20 0 33 -13t13 -32t-13 -32t-33 -13zM341 744q-42 0 -70 25t-40 88l9 3q15 -34 39 -49.5t62 -15.5q40 0 64.5 15.5t40.5 49.5l7 -3q-12 -63 -40 -88t-72 -25zM-24 7q14 1 31.5 5t31.5 12q18 11 32 32.5t25 47.5
q27 64 56.5 137.5t60 150t61 153.5t59.5 149h18q38 -97 77 -193t73.5 -179t61 -148t40.5 -100q6 -15 14.5 -28.5t26.5 -24.5q14 -8 30.5 -10.5t30.5 -3.5v-7h-315v7q13 1 30.5 3t33.5 6t28 10t14 15q2 7 0 14.5t-4 13.5l-71 183h-248q-7 -17 -14.5 -37t-14.5 -39.5
t-12.5 -36.5t-8.5 -28q-5 -17 -9.5 -33t-4.5 -27q0 -14 14 -22t33.5 -12.5t40.5 -6.5t34 -3v-7h-255v7zM415 266l-119 301l-118 -301h237z" />
    <glyph glyph-name="uni1EB7" unicode="&#x1eb7;" horiz-adv-x="490" 
d="M228 -162q-19 0 -32 13t-13 32t13 32t32 13q20 0 33 -13t13 -32t-13 -32t-33 -13zM153 -12q-52 0 -84 29t-32 77q0 31 8.5 51.5t22 35t31 23.5t36.5 16q43 17 89.5 30.5t78.5 30.5v71q0 7 -2 24t-10 34.5t-25.5 31t-48.5 13.5q-29 0 -42.5 -9.5t-20.5 -17.5
q0 -20 5.5 -40.5t5.5 -37.5q0 -16 -15.5 -29.5t-42.5 -13.5q-25 0 -35 16t-10 36q0 22 14.5 41.5t37.5 34t51.5 22.5t57.5 8q37 0 68.5 -4.5t54.5 -19.5t36 -44.5t13 -79.5q0 -33 -1 -68.5t-1.5 -67.5t-1.5 -57.5t-1 -37.5q0 -6 2.5 -14.5t8.5 -16.5t15 -14t21 -6t21.5 8
t15.5 20t9.5 27t4.5 29h10q-5 -70 -32 -99.5t-74 -29.5q-35 0 -55.5 16t-32.5 51h-3q-27 -32 -65 -50.5t-83 -18.5zM202 23q33 0 56.5 12.5t41.5 35.5l4 196q-38 -12 -69 -25.5t-53.5 -32t-35 -43t-12.5 -57.5q0 -42 18 -64t50 -22zM265 517q-42 0 -70 25t-40 88l9 3
q15 -34 39 -49.5t62 -15.5q40 0 64.5 15.5t40.5 49.5l7 -3q-12 -63 -40 -88t-72 -25z" />
    <glyph glyph-name="uni1EBC" unicode="&#x1ebc;" horiz-adv-x="666" 
d="M260 767q4 12 11 26t17.5 26t24 20.5t28.5 8.5q19 0 33.5 -5t26.5 -10.5t23 -10.5t23 -5q21 0 33 8.5t23 28.5l9 -2q-3 -11 -10.5 -25t-18.5 -26t-24.5 -20.5t-29.5 -8.5q-20 0 -34 5t-26 11t-23 11t-24 5q-18 0 -29 -8t-24 -31zM38 7q7 0 18 1.5t22.5 3t22 3.5t16.5 4
q18 7 24.5 19.5t6.5 29.5v541q0 17 -6 30.5t-25 21.5q-7 3 -18 5.5t-22 4.5t-21.5 3.5t-17.5 1.5v7h551v-155h-9q-4 16 -16 39.5t-28 45t-34 37.5t-34 18q-18 2 -47.5 3t-53.5 1h-113v-312h100q21 0 35 3.5t23.5 8t15 10l10.5 10.5q6 6 11.5 18.5t11 27t9 29t4.5 24.5h9
v-279h-9q-1 11 -5 26.5t-9.5 31.5t-11.5 28.5t-10 17.5l-11 11t-15.5 10.5t-23.5 7.5t-34 3h-100v-245q0 -31 4.5 -49t17 -27.5t36 -12t61.5 -2.5h52.5t49.5 2t41 7t27 14q11 12 25.5 33.5t27.5 45.5t23.5 45.5t14.5 32.5h9l-13 -192h-592v7z" />
    <glyph glyph-name="uni1EBD" unicode="&#x1ebd;" horiz-adv-x="456" 
d="M131 530q4 12 11 26t17.5 26t24 20.5t28.5 8.5q19 0 33.5 -5t26.5 -10.5t23 -10.5t23 -5q21 0 33 8.5t23 28.5l9 -2q-3 -11 -10.5 -25t-18.5 -26t-24.5 -20.5t-29.5 -8.5q-20 0 -34 5t-26 11t-23 11t-24 5q-18 0 -29 -8t-24 -31zM253 -12q-57 0 -98.5 19t-68.5 52
t-40.5 77t-13.5 94q0 45 14 87.5t41 75t66 52.5t89 20q51 0 87 -15.5t58 -41t32 -59.5t10 -70v-9h-298v-17q0 -48 7 -91t24.5 -74.5t46 -50t71.5 -18.5q29 0 51 6.5t39.5 18.5t32 29.5t28.5 40.5l8 -5q-26 -54 -74.5 -87.5t-111.5 -33.5zM332 282q0 30 -3.5 61t-13.5 55.5
t-28 40.5t-46 16q-24 0 -43.5 -12.5t-34 -36t-23 -55.5t-9.5 -71z" />
    <glyph glyph-name="uni1EBE" unicode="&#x1ebe;" horiz-adv-x="666" 
d="M467 866l-4 3q23 41 39.5 74t30.5 56q11 20 23 27t26 7t24 -9t10 -22q0 -15 -7.5 -24t-21.5 -20q-18 -14 -45 -33.5t-75 -58.5zM38 0h592l13 192h-9q-4 -11 -14.5 -32.5t-23.5 -45.5t-27.5 -45.5t-25.5 -33.5q-9 -9 -27 -14t-41 -7t-49.5 -2h-52.5q-38 0 -61.5 2.5
t-36 12t-17 27.5t-4.5 49v245h100q20 0 34 -3t23.5 -7.5t15.5 -10.5l11 -11q4 -5 10 -17.5t11.5 -28.5t9.5 -31.5t5 -26.5h9v279h-9q-1 -10 -4.5 -24.5t-9 -29t-11 -27t-11.5 -18.5l-10.5 -10.5t-15 -10t-23.5 -8t-35 -3.5h-100v312h113q24 0 53.5 -1t47.5 -3q16 -2 34 -18
t34 -37.5t28 -45t16 -39.5h9v155h-551v-7q7 0 17.5 -1.5t21.5 -3.5t22 -4.5t18 -5.5q19 -8 25 -21.5t6 -30.5v-541q0 -17 -6.5 -29.5t-24.5 -19.5q-6 -2 -16.5 -4t-22 -3.5t-22.5 -3t-18 -1.5v-7zM251 739l119 83l121 -83l6 5q-32 47 -55 76.5t-38 50.5q-6 10 -10.5 13
t-21.5 3q-18 0 -23 -3.5t-12 -13.5q-14 -22 -36.5 -51t-54.5 -75z" />
    <glyph glyph-name="uni1EBF" unicode="&#x1ebf;" horiz-adv-x="456" 
d="M344 630l-4 3q23 41 39.5 74t30.5 56q11 20 23 27t26 7t24 -9t10 -22q0 -15 -7.5 -24t-21.5 -20q-18 -14 -45 -33.5t-75 -58.5zM253 -12q63 0 111.5 33.5t74.5 87.5l-8 5q-14 -23 -28.5 -40.5t-32 -29.5t-39.5 -18.5t-51 -6.5q-43 0 -71.5 18.5t-46 50t-24.5 74.5t-7 91
v17h298v9q0 36 -10 70t-32 59.5t-58 41t-87 15.5q-50 0 -89 -20t-66 -52.5t-41 -75t-14 -87.5q0 -50 13.5 -94t40.5 -77t68.5 -52t98.5 -19zM131 280q1 39 9.5 71t23 55.5t34 36t43.5 12.5q28 0 46 -16t28 -40.5t13.5 -55.5t3.5 -61zM128 503l119 83l121 -83l6 5
q-32 47 -55 76.5t-38 50.5q-6 10 -10.5 13t-21.5 3q-18 0 -23 -3.5t-12 -13.5q-14 -22 -36.5 -51t-54.5 -75z" />
    <glyph glyph-name="uni1EC0" unicode="&#x1ec0;" horiz-adv-x="666" 
d="M519 866q-48 39 -75 58.5t-45 33.5q-14 11 -21 20t-7 24q0 13 9 22t24 9q14 0 26 -7t23 -27q14 -23 31 -56t40 -74zM38 7q7 0 18 1.5t22.5 3t22 3.5t16.5 4q18 7 24.5 19.5t6.5 29.5v541q0 17 -6 30.5t-25 21.5q-7 3 -18 5.5t-22 4.5t-21.5 3.5t-17.5 1.5v7h551v-155h-9
q-4 16 -16 39.5t-28 45t-34 37.5t-34 18q-18 2 -47.5 3t-53.5 1h-113v-312h100q21 0 35 3.5t23.5 8t15 10l10.5 10.5q6 6 11.5 18.5t11 27t9 29t4.5 24.5h9v-279h-9q-1 11 -5 26.5t-9.5 31.5t-11.5 28.5t-10 17.5l-11 11t-15.5 10.5t-23.5 7.5t-34 3h-100v-245
q0 -31 4.5 -49t17 -27.5t36 -12t61.5 -2.5h52.5t49.5 2t41 7t27 14q11 12 25.5 33.5t27.5 45.5t23.5 45.5t14.5 32.5h9l-13 -192h-592v7zM246 744q32 46 54.5 75t36.5 51q7 10 12 13.5t23 3.5q17 0 21.5 -3t10.5 -13q15 -21 38 -50.5t55 -76.5l-6 -5l-121 83l-119 -83z" />
    <glyph glyph-name="uni1EC1" unicode="&#x1ec1;" horiz-adv-x="456" 
d="M396 630q-48 39 -75 58.5t-45 33.5q-14 11 -21 20t-7 24q0 13 9 22t24 9q14 0 26 -7t23 -27q14 -23 31 -56t40 -74zM253 -12q-57 0 -98.5 19t-68.5 52t-40.5 77t-13.5 94q0 45 14 87.5t41 75t66 52.5t89 20q51 0 87 -15.5t58 -41t32 -59.5t10 -70v-9h-298v-17
q0 -48 7 -91t24.5 -74.5t46 -50t71.5 -18.5q29 0 51 6.5t39.5 18.5t32 29.5t28.5 40.5l8 -5q-26 -54 -74.5 -87.5t-111.5 -33.5zM332 282q0 30 -3.5 61t-13.5 55.5t-28 40.5t-46 16q-24 0 -43.5 -12.5t-34 -36t-23 -55.5t-9.5 -71zM123 508q32 46 54.5 75t36.5 51
q7 10 12 13.5t23 3.5q17 0 21.5 -3t10.5 -13q15 -21 38 -50.5t55 -76.5l-6 -5l-121 83l-119 -83z" />
    <glyph glyph-name="uni1EC4" unicode="&#x1ec4;" horiz-adv-x="666" 
d="M247 931q4 12 11 26t17.5 26t24 20.5t28.5 8.5q19 0 33.5 -5t26.5 -10.5t23 -10.5t23 -5q21 0 33 8.5t23 28.5l9 -2q-3 -11 -10.5 -25t-18.5 -26t-24.5 -20.5t-29.5 -8.5q-20 0 -34 5t-26 11t-23 11t-24 5q-18 0 -29 -8t-24 -31zM38 7q7 0 18 1.5t22.5 3t22 3.5t16.5 4
q18 7 24.5 19.5t6.5 29.5v541q0 17 -6 30.5t-25 21.5q-7 3 -18 5.5t-22 4.5t-21.5 3.5t-17.5 1.5v7h551v-155h-9q-4 16 -16 39.5t-28 45t-34 37.5t-34 18q-18 2 -47.5 3t-53.5 1h-113v-312h100q21 0 35 3.5t23.5 8t15 10l10.5 10.5q6 6 11.5 18.5t11 27t9 29t4.5 24.5h9
v-279h-9q-1 11 -5 26.5t-9.5 31.5t-11.5 28.5t-10 17.5l-11 11t-15.5 10.5t-23.5 7.5t-34 3h-100v-245q0 -31 4.5 -49t17 -27.5t36 -12t61.5 -2.5h52.5t49.5 2t41 7t27 14q11 12 25.5 33.5t27.5 45.5t23.5 45.5t14.5 32.5h9l-13 -192h-592v7zM246 744q32 46 54.5 75t36.5 51
q7 10 12 13.5t23 3.5q17 0 21.5 -3t10.5 -13q15 -21 38 -50.5t55 -76.5l-6 -5l-121 83l-119 -83z" />
    <glyph glyph-name="uni1EC5" unicode="&#x1ec5;" horiz-adv-x="456" 
d="M124 695q4 12 11 26t17.5 26t24 20.5t28.5 8.5q19 0 33.5 -5t26.5 -10.5t23 -10.5t23 -5q21 0 33 8.5t23 28.5l9 -2q-3 -11 -10.5 -25t-18.5 -26t-24.5 -20.5t-29.5 -8.5q-20 0 -34 5t-26 11t-23 11t-24 5q-18 0 -29 -8t-24 -31zM253 -12q-57 0 -98.5 19t-68.5 52
t-40.5 77t-13.5 94q0 45 14 87.5t41 75t66 52.5t89 20q51 0 87 -15.5t58 -41t32 -59.5t10 -70v-9h-298v-17q0 -48 7 -91t24.5 -74.5t46 -50t71.5 -18.5q29 0 51 6.5t39.5 18.5t32 29.5t28.5 40.5l8 -5q-26 -54 -74.5 -87.5t-111.5 -33.5zM332 282q0 30 -3.5 61t-13.5 55.5
t-28 40.5t-46 16q-24 0 -43.5 -12.5t-34 -36t-23 -55.5t-9.5 -71zM123 508q32 46 54.5 75t36.5 51q7 10 12 13.5t23 3.5q17 0 21.5 -3t10.5 -13q15 -21 38 -50.5t55 -76.5l-6 -5l-121 83l-119 -83z" />
    <glyph glyph-name="uni1EC6" unicode="&#x1ec6;" horiz-adv-x="666" 
d="M372 -162q-19 0 -32 13t-13 32t13 32t32 13q20 0 33 -13t13 -32t-13 -32t-33 -13zM38 7q7 0 18 1.5t22.5 3t22 3.5t16.5 4q18 7 24.5 19.5t6.5 29.5v541q0 17 -6 30.5t-25 21.5q-7 3 -18 5.5t-22 4.5t-21.5 3.5t-17.5 1.5v7h551v-155h-9q-4 16 -16 39.5t-28 45t-34 37.5
t-34 18q-18 2 -47.5 3t-53.5 1h-113v-312h100q21 0 35 3.5t23.5 8t15 10l10.5 10.5q6 6 11.5 18.5t11 27t9 29t4.5 24.5h9v-279h-9q-1 11 -5 26.5t-9.5 31.5t-11.5 28.5t-10 17.5l-11 11t-15.5 10.5t-23.5 7.5t-34 3h-100v-245q0 -31 4.5 -49t17 -27.5t36 -12t61.5 -2.5
h52.5t49.5 2t41 7t27 14q11 12 25.5 33.5t27.5 45.5t23.5 45.5t14.5 32.5h9l-13 -192h-592v7zM246 744q32 46 54.5 75t36.5 51q7 10 12 13.5t23 3.5q17 0 21.5 -3t10.5 -13q15 -21 38 -50.5t55 -76.5l-6 -5l-121 83l-119 -83z" />
    <glyph glyph-name="uni1EC7" unicode="&#x1ec7;" horiz-adv-x="456" 
d="M246 -162q-19 0 -32 13t-13 32t13 32t32 13q20 0 33 -13t13 -32t-13 -32t-33 -13zM253 -12q-57 0 -98.5 19t-68.5 52t-40.5 77t-13.5 94q0 45 14 87.5t41 75t66 52.5t89 20q51 0 87 -15.5t58 -41t32 -59.5t10 -70v-9h-298v-17q0 -48 7 -91t24.5 -74.5t46 -50t71.5 -18.5
q29 0 51 6.5t39.5 18.5t32 29.5t28.5 40.5l8 -5q-26 -54 -74.5 -87.5t-111.5 -33.5zM332 282q0 30 -3.5 61t-13.5 55.5t-28 40.5t-46 16q-24 0 -43.5 -12.5t-34 -36t-23 -55.5t-9.5 -71zM123 508q32 46 54.5 75t36.5 51q7 10 12 13.5t23 3.5q17 0 21.5 -3t10.5 -13
q15 -21 38 -50.5t55 -76.5l-6 -5l-121 83l-119 -83z" />
    <glyph glyph-name="uni1ED0" unicode="&#x1ed0;" horiz-adv-x="775" 
d="M484 866l-4 3q23 41 39.5 74t30.5 56q11 20 23 27t26 7t24 -9t10 -22q0 -15 -7.5 -24t-21.5 -20q-18 -14 -45 -33.5t-75 -58.5zM384 -16q78 0 139.5 25t109.5 71q56 53 80 120.5t24 145.5q0 74 -25 139t-70 110q-57 55 -120 79.5t-134 24.5q-73 0 -137.5 -26t-115.5 -78
q-97 -97 -97 -261q0 -82 28.5 -145.5t78.5 -110.5q49 -46 109.5 -70t129.5 -24zM388 -4q-59 0 -102 27t-71 74t-42 109t-14 133q0 81 16 145.5t45.5 109.5t72 69t95.5 24q62 0 105.5 -29.5t70.5 -77.5t39.5 -110t12.5 -127q0 -74 -14 -137t-42 -110t-71 -73.5t-101 -26.5z
M268 739l119 83l121 -83l6 5q-32 47 -55 76.5t-38 50.5q-6 10 -10.5 13t-21.5 3q-18 0 -23 -3.5t-12 -13.5q-14 -22 -36.5 -51t-54.5 -75z" />
    <glyph glyph-name="uni1ED1" unicode="&#x1ed1;" 
d="M362 630l-4 3q23 41 39.5 74t30.5 56q11 20 23 27t26 7t24 -9t10 -22q0 -15 -7.5 -24t-21.5 -20q-18 -14 -45 -33.5t-75 -58.5zM257 -14q57 0 100.5 19.5t73.5 53t45.5 78t15.5 94.5t-16 92.5t-45.5 74t-72 49.5t-94.5 18q-53 0 -95.5 -17.5t-73.5 -49.5t-47.5 -76.5
t-16.5 -97.5q0 -55 18.5 -99t49.5 -75t72 -47.5t86 -16.5zM263 -4q-35 0 -60 18.5t-41 51t-23 75.5t-7 91q0 39 6 79t20.5 72t40 52t64.5 20q36 0 60.5 -19t39.5 -50.5t21.5 -72t6.5 -83.5q0 -49 -7.5 -91.5t-23 -74t-40 -50t-57.5 -18.5zM146 503l119 83l121 -83l6 5
q-32 47 -55 76.5t-38 50.5q-6 10 -10.5 13t-21.5 3q-18 0 -23 -3.5t-12 -13.5q-14 -22 -36.5 -51t-54.5 -75z" />
    <glyph glyph-name="uni1ED2" unicode="&#x1ed2;" horiz-adv-x="775" 
d="M536 866q-48 39 -75 58.5t-45 33.5q-14 11 -21 20t-7 24q0 13 9 22t24 9q14 0 26 -7t23 -27q14 -23 31 -56t40 -74zM384 -16q-69 0 -129.5 24t-109.5 70q-50 47 -78.5 110.5t-28.5 145.5q0 164 97 261q51 52 115.5 78t137.5 26q71 0 134 -24.5t120 -79.5q45 -45 70 -110
t25 -139q0 -78 -24 -145.5t-80 -120.5q-48 -46 -109.5 -71t-139.5 -25zM388 -4q58 0 101 26.5t71 73.5t42 110t14 137q0 65 -12.5 127t-39.5 110t-70.5 77.5t-105.5 29.5q-53 0 -95.5 -24t-72 -69t-45.5 -109.5t-16 -145.5q0 -71 14 -133t42 -109t71 -74t102 -27zM263 744
q32 46 54.5 75t36.5 51q7 10 12 13.5t23 3.5q17 0 21.5 -3t10.5 -13q15 -21 38 -50.5t55 -76.5l-6 -5l-121 83l-119 -83z" />
    <glyph glyph-name="uni1ED3" unicode="&#x1ed3;" 
d="M414 630q-48 39 -75 58.5t-45 33.5q-14 11 -21 20t-7 24q0 13 9 22t24 9q14 0 26 -7t23 -27q14 -23 31 -56t40 -74zM257 -14q-45 0 -86 16.5t-72 47.5t-49.5 75t-18.5 99q0 53 16.5 97.5t47.5 76.5t73.5 49.5t95.5 17.5q52 0 94.5 -18t72 -49.5t45.5 -74t16 -92.5
t-15.5 -94.5t-45.5 -78t-73.5 -53t-100.5 -19.5zM263 -4q33 0 57.5 18.5t40 50t23 74t7.5 91.5q0 43 -6.5 83.5t-21.5 72t-39.5 50.5t-60.5 19q-39 0 -64.5 -20t-40 -52t-20.5 -72t-6 -79q0 -48 7 -91t23 -75.5t41 -51t60 -18.5zM141 508q32 46 54.5 75t36.5 51
q7 10 12 13.5t23 3.5q17 0 21.5 -3t10.5 -13q15 -21 38 -50.5t55 -76.5l-6 -5l-121 83l-119 -83z" />
    <glyph glyph-name="uni1ED6" unicode="&#x1ed6;" horiz-adv-x="775" 
d="M264 931q4 12 11 26t17.5 26t24 20.5t28.5 8.5q19 0 33.5 -5t26.5 -10.5t23 -10.5t23 -5q21 0 33 8.5t23 28.5l9 -2q-3 -11 -10.5 -25t-18.5 -26t-24.5 -20.5t-29.5 -8.5q-20 0 -34 5t-26 11t-23 11t-24 5q-18 0 -29 -8t-24 -31zM384 -16q-69 0 -129.5 24t-109.5 70
q-50 47 -78.5 110.5t-28.5 145.5q0 164 97 261q51 52 115.5 78t137.5 26q71 0 134 -24.5t120 -79.5q45 -45 70 -110t25 -139q0 -78 -24 -145.5t-80 -120.5q-48 -46 -109.5 -71t-139.5 -25zM388 -4q58 0 101 26.5t71 73.5t42 110t14 137q0 65 -12.5 127t-39.5 110t-70.5 77.5
t-105.5 29.5q-53 0 -95.5 -24t-72 -69t-45.5 -109.5t-16 -145.5q0 -71 14 -133t42 -109t71 -74t102 -27zM263 744q32 46 54.5 75t36.5 51q7 10 12 13.5t23 3.5q17 0 21.5 -3t10.5 -13q15 -21 38 -50.5t55 -76.5l-6 -5l-121 83l-119 -83z" />
    <glyph glyph-name="uni1ED7" unicode="&#x1ed7;" 
d="M142 695q4 12 11 26t17.5 26t24 20.5t28.5 8.5q19 0 33.5 -5t26.5 -10.5t23 -10.5t23 -5q21 0 33 8.5t23 28.5l9 -2q-3 -11 -10.5 -25t-18.5 -26t-24.5 -20.5t-29.5 -8.5q-20 0 -34 5t-26 11t-23 11t-24 5q-18 0 -29 -8t-24 -31zM257 -14q-45 0 -86 16.5t-72 47.5
t-49.5 75t-18.5 99q0 53 16.5 97.5t47.5 76.5t73.5 49.5t95.5 17.5q52 0 94.5 -18t72 -49.5t45.5 -74t16 -92.5t-15.5 -94.5t-45.5 -78t-73.5 -53t-100.5 -19.5zM263 -4q33 0 57.5 18.5t40 50t23 74t7.5 91.5q0 43 -6.5 83.5t-21.5 72t-39.5 50.5t-60.5 19q-39 0 -64.5 -20
t-40 -52t-20.5 -72t-6 -79q0 -48 7 -91t23 -75.5t41 -51t60 -18.5zM141 508q32 46 54.5 75t36.5 51q7 10 12 13.5t23 3.5q17 0 21.5 -3t10.5 -13q15 -21 38 -50.5t55 -76.5l-6 -5l-121 83l-119 -83z" />
    <glyph glyph-name="uni1ED8" unicode="&#x1ed8;" horiz-adv-x="775" 
d="M386 -162q-19 0 -32 13t-13 32t13 32t32 13q20 0 33 -13t13 -32t-13 -32t-33 -13zM384 -16q-69 0 -129.5 24t-109.5 70q-50 47 -78.5 110.5t-28.5 145.5q0 164 97 261q51 52 115.5 78t137.5 26q71 0 134 -24.5t120 -79.5q45 -45 70 -110t25 -139q0 -78 -24 -145.5
t-80 -120.5q-48 -46 -109.5 -71t-139.5 -25zM388 -4q58 0 101 26.5t71 73.5t42 110t14 137q0 65 -12.5 127t-39.5 110t-70.5 77.5t-105.5 29.5q-53 0 -95.5 -24t-72 -69t-45.5 -109.5t-16 -145.5q0 -71 14 -133t42 -109t71 -74t102 -27zM263 744q32 46 54.5 75t36.5 51
q7 10 12 13.5t23 3.5q17 0 21.5 -3t10.5 -13q15 -21 38 -50.5t55 -76.5l-6 -5l-121 83l-119 -83z" />
    <glyph glyph-name="uni1ED9" unicode="&#x1ed9;" 
d="M266 -162q-19 0 -32 13t-13 32t13 32t32 13q20 0 33 -13t13 -32t-13 -32t-33 -13zM257 -14q-45 0 -86 16.5t-72 47.5t-49.5 75t-18.5 99q0 53 16.5 97.5t47.5 76.5t73.5 49.5t95.5 17.5q52 0 94.5 -18t72 -49.5t45.5 -74t16 -92.5t-15.5 -94.5t-45.5 -78t-73.5 -53
t-100.5 -19.5zM263 -4q33 0 57.5 18.5t40 50t23 74t7.5 91.5q0 43 -6.5 83.5t-21.5 72t-39.5 50.5t-60.5 19q-39 0 -64.5 -20t-40 -52t-20.5 -72t-6 -79q0 -48 7 -91t23 -75.5t41 -51t60 -18.5zM141 508q32 46 54.5 75t36.5 51q7 10 12 13.5t23 3.5q17 0 21.5 -3t10.5 -13
q15 -21 38 -50.5t55 -76.5l-6 -5l-121 83l-119 -83z" />
    <glyph glyph-name="uni1EDA" unicode="&#x1eda;" horiz-adv-x="775" 
d="M342 738l-4 3q23 41 39.5 74t30.5 56q11 20 23 27t26 7t24 -9t10 -22q0 -15 -7.5 -24t-21.5 -20q-18 -14 -45 -33.5t-75 -58.5zM384 -16q78 0 139.5 25t109.5 71q56 53 80 120.5t24 145.5q0 74 -25 139t-70 110q-31 29 -61 48q17 8 29.5 22.5t17.5 38.5q8 38 -2.5 56.5
t-36.5 20.5q-21 2 -32.5 -10t-13.5 -32q-1 -18 15 -31.5t45 -5.5q-4 -24 -16.5 -33t-28.5 -12q-40 22 -82.5 32t-87.5 10q-73 0 -137.5 -26t-115.5 -78q-97 -97 -97 -261q0 -82 28.5 -145.5t78.5 -110.5q49 -46 109.5 -70t129.5 -24zM388 -4q-59 0 -102 27t-71 74t-42 109
t-14 133q0 81 16 145.5t45.5 109.5t72 69t95.5 24q62 0 105.5 -29.5t70.5 -77.5t39.5 -110t12.5 -127q0 -74 -14 -137t-42 -110t-71 -73.5t-101 -26.5z" />
    <glyph glyph-name="uni1EDB" unicode="&#x1edb;" 
d="M225 503l-4 3q23 41 39.5 74t30.5 56q11 20 23 27t26 7t24 -9t10 -22q0 -15 -7.5 -24t-21.5 -20q-18 -14 -45 -33.5t-75 -58.5zM257 -14q57 0 100.5 19.5t73.5 53t45.5 78t15.5 94.5q0 56 -20 102.5t-57 78.5q16 8 28 22.5t17 37.5q8 38 -2.5 56.5t-36.5 20.5
q-21 2 -32.5 -10t-13.5 -32q-1 -18 15 -31.5t45 -5.5q-4 -21 -14.5 -30.5t-24.5 -12.5q-27 18 -60 28t-72 10q-53 0 -95.5 -17.5t-73.5 -49.5t-47.5 -76.5t-16.5 -97.5q0 -55 18.5 -99t49.5 -75t72 -47.5t86 -16.5zM263 -4q-35 0 -60 18.5t-41 51t-23 75.5t-7 91q0 39 6 79
t20.5 72t40 52t64.5 20q36 0 60.5 -19t39.5 -50.5t21.5 -72t6.5 -83.5q0 -49 -7.5 -91.5t-23 -74t-40 -50t-57.5 -18.5z" />
    <glyph glyph-name="uni1EDC" unicode="&#x1edc;" horiz-adv-x="775" 
d="M465 739q-48 39 -75 58.5t-45 33.5q-14 11 -21 20t-7 24q0 13 9 22t24 9q14 0 26 -7t23 -27q14 -23 31 -56t40 -74zM384 -16q-69 0 -129.5 24t-109.5 70q-50 47 -78.5 110.5t-28.5 145.5q0 164 97 261q51 52 115.5 78t137.5 26q45 0 87.5 -10t82.5 -32q16 3 28.5 12
t16.5 33q-29 -8 -45 5.5t-15 31.5q2 20 13.5 32t32.5 10q26 -2 36.5 -20.5t2.5 -56.5q-5 -24 -17.5 -38.5t-29.5 -22.5q30 -19 61 -48q45 -45 70 -110t25 -139q0 -78 -24 -145.5t-80 -120.5q-48 -46 -109.5 -71t-139.5 -25zM388 -4q58 0 101 26.5t71 73.5t42 110t14 137
q0 65 -12.5 127t-39.5 110t-70.5 77.5t-105.5 29.5q-53 0 -95.5 -24t-72 -69t-45.5 -109.5t-16 -145.5q0 -71 14 -133t42 -109t71 -74t102 -27z" />
    <glyph glyph-name="uni1EDD" unicode="&#x1edd;" 
d="M324 503q-48 39 -75 58.5t-45 33.5q-14 11 -21 20t-7 24q0 13 9 22t24 9q14 0 26 -7t23 -27q14 -23 31 -56t40 -74zM257 -14q-45 0 -86 16.5t-72 47.5t-49.5 75t-18.5 99q0 53 16.5 97.5t47.5 76.5t73.5 49.5t95.5 17.5q39 0 72 -10t60 -28q14 3 24.5 12.5t14.5 30.5
q-29 -8 -45 5.5t-15 31.5q2 20 13.5 32t32.5 10q26 -2 36.5 -20.5t2.5 -56.5q-5 -23 -17 -37.5t-28 -22.5q37 -32 57 -78.5t20 -102.5q0 -50 -15.5 -94.5t-45.5 -78t-73.5 -53t-100.5 -19.5zM263 -4q33 0 57.5 18.5t40 50t23 74t7.5 91.5q0 43 -6.5 83.5t-21.5 72
t-39.5 50.5t-60.5 19q-39 0 -64.5 -20t-40 -52t-20.5 -72t-6 -79q0 -48 7 -91t23 -75.5t41 -51t60 -18.5z" />
    <glyph glyph-name="uni1EE0" unicode="&#x1ee0;" horiz-adv-x="775" 
d="M284 767q4 12 11 26t17.5 26t24 20.5t28.5 8.5q19 0 33.5 -5t26.5 -10.5t23 -10.5t23 -5q21 0 33 8.5t23 28.5l9 -2q-3 -11 -10.5 -25t-18.5 -26t-24.5 -20.5t-29.5 -8.5q-20 0 -34 5t-26 11t-23 11t-24 5q-18 0 -29 -8t-24 -31zM384 -16q-69 0 -129.5 24t-109.5 70
q-50 47 -78.5 110.5t-28.5 145.5q0 164 97 261q51 52 115.5 78t137.5 26q45 0 87.5 -10t82.5 -32q16 3 28.5 12t16.5 33q-29 -8 -45 5.5t-15 31.5q2 20 13.5 32t32.5 10q26 -2 36.5 -20.5t2.5 -56.5q-5 -24 -17.5 -38.5t-29.5 -22.5q30 -19 61 -48q45 -45 70 -110t25 -139
q0 -78 -24 -145.5t-80 -120.5q-48 -46 -109.5 -71t-139.5 -25zM388 -4q58 0 101 26.5t71 73.5t42 110t14 137q0 65 -12.5 127t-39.5 110t-70.5 77.5t-105.5 29.5q-53 0 -95.5 -24t-72 -69t-45.5 -109.5t-16 -145.5q0 -71 14 -133t42 -109t71 -74t102 -27z" />
    <glyph glyph-name="uni1EE1" unicode="&#x1ee1;" 
d="M140 530q4 12 11 26t17.5 26t24 20.5t28.5 8.5q19 0 33.5 -5t26.5 -10.5t23 -10.5t23 -5q21 0 33 8.5t23 28.5l9 -2q-3 -11 -10.5 -25t-18.5 -26t-24.5 -20.5t-29.5 -8.5q-20 0 -34 5t-26 11t-23 11t-24 5q-18 0 -29 -8t-24 -31zM257 -14q-45 0 -86 16.5t-72 47.5
t-49.5 75t-18.5 99q0 53 16.5 97.5t47.5 76.5t73.5 49.5t95.5 17.5q39 0 72 -10t60 -28q14 3 24.5 12.5t14.5 30.5q-29 -8 -45 5.5t-15 31.5q2 20 13.5 32t32.5 10q26 -2 36.5 -20.5t2.5 -56.5q-5 -23 -17 -37.5t-28 -22.5q37 -32 57 -78.5t20 -102.5q0 -50 -15.5 -94.5
t-45.5 -78t-73.5 -53t-100.5 -19.5zM263 -4q33 0 57.5 18.5t40 50t23 74t7.5 91.5q0 43 -6.5 83.5t-21.5 72t-39.5 50.5t-60.5 19q-39 0 -64.5 -20t-40 -52t-20.5 -72t-6 -79q0 -48 7 -91t23 -75.5t41 -51t60 -18.5z" />
    <glyph glyph-name="uni1EE8" unicode="&#x1ee8;" horiz-adv-x="791" 
d="M355 738l-4 3q23 41 39.5 74t30.5 56q11 20 23 27t26 7t24 -9t10 -22q0 -15 -7.5 -24t-21.5 -20q-18 -14 -45 -33.5t-75 -58.5zM400 -16q37 0 82 10.5t84 35.5t65.5 66t26.5 102v321v119q24 3 44 18.5t26 47.5q8 38 -2.5 56.5t-36.5 20.5q-21 2 -32.5 -10t-13.5 -32
q-1 -18 15 -31.5t45 -5.5q-4 -23 -16.5 -32.5t-28.5 -12.5l1 26h-151v-7q17 -1 46.5 -6.5t55.5 -22.5q34 -22 34 -134v-311q0 -32 -12 -64t-38.5 -58.5t-68 -43t-101.5 -16.5q-59 0 -94.5 17t-55 42.5t-26 56t-6.5 57.5v421q0 17 6 30t25 19q14 5 36 8.5t36 4.5v7h-311v-7
q12 -1 34 -3.5t36 -9.5q17 -9 24 -21t7 -29v-433q0 -39 17 -74.5t50 -62.5t82.5 -43t115.5 -16z" />
    <glyph glyph-name="uni1EE9" unicode="&#x1ee9;" horiz-adv-x="567" 
d="M236 503l-4 3q23 41 39.5 74t30.5 56q11 20 23 27t26 7t24 -9t10 -22q0 -15 -7.5 -24t-21.5 -20q-18 -14 -45 -33.5t-75 -58.5zM220 -12q32 0 56 7t42 18t33 25t29 28h3v-61l7 -7l157 11v6q-14 1 -28 3.5t-23 8.5q-12 8 -16.5 20.5t-6.5 28.5v331q21 5 38 20.5t23 44.5
q8 38 -2.5 56.5t-36.5 20.5q-21 2 -32.5 -10t-13.5 -32q-1 -18 15 -31.5t45 -5.5q-4 -20 -13.5 -29.5t-22.5 -13.5v24l-7 7l-175 -12v-6q20 -1 38 -4t27 -9q23 -16 26 -50v-289q-5 -8 -14 -19.5t-24 -22.5t-35.5 -18.5t-47.5 -7.5q-32 0 -55.5 25.5t-23.5 77.5v328l-7 7
l-161 -12v-6q14 -1 27.5 -5.5t22.5 -10.5q23 -16 26 -50v-223q0 -35 7 -65t23 -52t40.5 -34t59.5 -12z" />
    <glyph glyph-name="uni1EEA" unicode="&#x1eea;" horiz-adv-x="791" 
d="M467 739q-48 39 -75 58.5t-45 33.5q-14 11 -21 20t-7 24q0 13 9 22t24 9q14 0 26 -7t23 -27q14 -23 31 -56t40 -74zM400 -16q-66 0 -115.5 16t-82.5 43t-50 62.5t-17 74.5v433q0 17 -7 29t-24 21q-14 7 -36 9.5t-34 3.5v7h311v-7q-14 -1 -36 -4.5t-36 -8.5
q-19 -6 -25 -19t-6 -30v-421q0 -27 6.5 -57.5t26 -56t55 -42.5t94.5 -17q60 0 101.5 16.5t68 43t38.5 58.5t12 64v311q0 112 -34 134q-26 17 -55.5 22.5t-46.5 6.5v7h151l-1 -26q16 3 28.5 12.5t16.5 32.5q-29 -8 -45 5.5t-15 31.5q2 20 13.5 32t32.5 10q26 -2 36.5 -20.5
t2.5 -56.5q-6 -32 -26 -47.5t-44 -18.5v-119v-321q0 -61 -26.5 -102t-65.5 -66t-84 -35.5t-82 -10.5z" />
    <glyph glyph-name="uni1EEB" unicode="&#x1eeb;" horiz-adv-x="567" 
d="M324 503q-48 39 -75 58.5t-45 33.5q-14 11 -21 20t-7 24q0 13 9 22t24 9q14 0 26 -7t23 -27q14 -23 31 -56t40 -74zM220 -12q-35 0 -59.5 12t-40.5 34t-23 52t-7 65v223q-3 34 -26 50q-9 6 -22.5 10.5t-27.5 5.5v6l161 12l7 -7v-328q0 -52 23.5 -77.5t55.5 -25.5
q27 0 47.5 7.5t35.5 18.5t24 22.5t14 19.5v289q-3 34 -26 50q-9 6 -27 9t-38 4v6l175 12l7 -7v-24q13 4 22.5 13.5t13.5 29.5q-29 -8 -45 5.5t-15 31.5q2 20 13.5 32t32.5 10q26 -2 36.5 -20.5t2.5 -56.5q-6 -29 -23 -44.5t-38 -20.5v-331q2 -16 6.5 -28.5t16.5 -20.5
q9 -6 23 -8.5t28 -3.5v-6l-157 -11l-7 7v61h-3q-14 -14 -29 -28t-33 -25t-42 -18t-56 -7z" />
    <glyph glyph-name="uni1EEE" unicode="&#x1eee;" horiz-adv-x="791" 
d="M293 767q4 12 11 26t17.5 26t24 20.5t28.5 8.5q19 0 33.5 -5t26.5 -10.5t23 -10.5t23 -5q21 0 33 8.5t23 28.5l9 -2q-3 -11 -10.5 -25t-18.5 -26t-24.5 -20.5t-29.5 -8.5q-20 0 -34 5t-26 11t-23 11t-24 5q-18 0 -29 -8t-24 -31zM400 -16q-66 0 -115.5 16t-82.5 43
t-50 62.5t-17 74.5v433q0 17 -7 29t-24 21q-14 7 -36 9.5t-34 3.5v7h311v-7q-14 -1 -36 -4.5t-36 -8.5q-19 -6 -25 -19t-6 -30v-421q0 -27 6.5 -57.5t26 -56t55 -42.5t94.5 -17q60 0 101.5 16.5t68 43t38.5 58.5t12 64v311q0 112 -34 134q-26 17 -55.5 22.5t-46.5 6.5v7h151
l-1 -26q16 3 28.5 12.5t16.5 32.5q-29 -8 -45 5.5t-15 31.5q2 20 13.5 32t32.5 10q26 -2 36.5 -20.5t2.5 -56.5q-6 -32 -26 -47.5t-44 -18.5v-119v-321q0 -61 -26.5 -102t-65.5 -66t-84 -35.5t-82 -10.5z" />
    <glyph glyph-name="uni1EEF" unicode="&#x1eef;" horiz-adv-x="567" 
d="M164 530q4 12 11 26t17.5 26t24 20.5t28.5 8.5q19 0 33.5 -5t26.5 -10.5t23 -10.5t23 -5q21 0 33 8.5t23 28.5l9 -2q-3 -11 -10.5 -25t-18.5 -26t-24.5 -20.5t-29.5 -8.5q-20 0 -34 5t-26 11t-23 11t-24 5q-18 0 -29 -8t-24 -31zM220 -12q-35 0 -59.5 12t-40.5 34t-23 52
t-7 65v223q-3 34 -26 50q-9 6 -22.5 10.5t-27.5 5.5v6l161 12l7 -7v-328q0 -52 23.5 -77.5t55.5 -25.5q27 0 47.5 7.5t35.5 18.5t24 22.5t14 19.5v289q-3 34 -26 50q-9 6 -27 9t-38 4v6l175 12l7 -7v-24q13 4 22.5 13.5t13.5 29.5q-29 -8 -45 5.5t-15 31.5q2 20 13.5 32
t32.5 10q26 -2 36.5 -20.5t2.5 -56.5q-6 -29 -23 -44.5t-38 -20.5v-331q2 -16 6.5 -28.5t16.5 -20.5q9 -6 23 -8.5t28 -3.5v-6l-157 -11l-7 7v61h-3q-14 -14 -29 -28t-33 -25t-42 -18t-56 -7z" />
    <glyph glyph-name="uni1EF6" unicode="&#x1ef6;" horiz-adv-x="635" 
d="M326 810q24 3 37.5 11.5t13.5 29.5q0 25 -9.5 36t-21.5 11q-9 0 -15 -4v-2q3 -5 3 -17t-9 -17t-15 -5q-11 0 -16.5 6.5t-5.5 16.5q0 14 15.5 26t42.5 12q36 0 54 -20t18 -49q0 -27 -19.5 -47t-54.5 -24q0 -8 -0.5 -17t-1.5 -17h-16v70zM148 7q7 0 18.5 1.5t24 3t23.5 3.5
t16 4q18 7 24.5 20t6.5 30v189q0 15 -7.5 33.5t-18.5 41.5q-35 68 -72.5 135.5t-69.5 122.5q-13 23 -27.5 40.5t-32.5 28.5q-14 8 -32.5 11.5t-32.5 4.5v7h322v-7q-13 -1 -30.5 -3t-33 -6t-26.5 -10.5t-11 -15.5q0 -5 13 -31.5t36 -68.5q25 -46 58 -105t68 -122
q37 61 71 118t58 102q20 36 31 60.5t11 33.5q0 12 -11.5 21t-29 14.5t-38 8.5t-37.5 4v7h241v-7q-9 -1 -23 -5t-22 -9q-20 -11 -31 -21t-25 -30q-17 -24 -37 -56.5t-41 -69t-43 -75.5t-43 -76q-9 -17 -14.5 -29.5t-8.5 -25t-4 -26t-1 -31.5v-151q0 -17 7 -29.5t24 -20.5
q4 -2 15 -4t23.5 -4.5t24.5 -4t19 -1.5v-7h-332v7z" />
    <glyph glyph-name="uni1EF7" unicode="&#x1ef7;" horiz-adv-x="462" 
d="M253 573q24 3 37.5 11.5t13.5 29.5q0 25 -9.5 36t-21.5 11q-9 0 -15 -4v-2q3 -5 3 -17t-9 -17t-15 -5q-11 0 -16.5 6.5t-5.5 16.5q0 14 15.5 26t42.5 12q36 0 54 -20t18 -49q0 -27 -19.5 -47t-54.5 -24q0 -8 -0.5 -17t-1.5 -17h-16v70zM62 -226q-10 0 -23 3.5t-24 11.5
t-19 21t-8 32q0 20 15.5 39t41.5 19q20 0 38 -12t18 -42l-8 -54q13 1 26.5 10t26 23.5t24 32.5t21.5 36q23 43 44 96q-53 128 -98 226t-82 180q-9 21 -23.5 32.5t-44.5 16.5v7h219v-9q-9 0 -19.5 -1.5t-19.5 -3.5t-15 -6t-6 -10q0 -4 7 -21q9 -23 24.5 -57.5t33.5 -75
t37.5 -82t35.5 -77.5q29 69 54.5 133.5t54.5 139.5q2 6 4 14t2 14q0 15 -24.5 23.5t-51.5 12.5v6h160v-5q-23 -4 -41 -19t-28 -37q-12 -28 -32.5 -76.5t-44 -105.5t-47.5 -116.5t-43 -107.5q-29 -71 -53 -113t-45.5 -63.5t-43 -28t-43.5 -6.5z" />
    <glyph glyph-name="uni1EF8" unicode="&#x1ef8;" horiz-adv-x="635" 
d="M215 767q4 12 11 26t17.5 26t24 20.5t28.5 8.5q19 0 33.5 -5t26.5 -10.5t23 -10.5t23 -5q21 0 33 8.5t23 28.5l9 -2q-3 -11 -10.5 -25t-18.5 -26t-24.5 -20.5t-29.5 -8.5q-20 0 -34 5t-26 11t-23 11t-24 5q-18 0 -29 -8t-24 -31zM148 7q7 0 18.5 1.5t24 3t23.5 3.5t16 4
q18 7 24.5 20t6.5 30v189q0 15 -7.5 33.5t-18.5 41.5q-35 68 -72.5 135.5t-69.5 122.5q-13 23 -27.5 40.5t-32.5 28.5q-14 8 -32.5 11.5t-32.5 4.5v7h322v-7q-13 -1 -30.5 -3t-33 -6t-26.5 -10.5t-11 -15.5q0 -5 13 -31.5t36 -68.5q25 -46 58 -105t68 -122q37 61 71 118
t58 102q20 36 31 60.5t11 33.5q0 12 -11.5 21t-29 14.5t-38 8.5t-37.5 4v7h241v-7q-9 -1 -23 -5t-22 -9q-20 -11 -31 -21t-25 -30q-17 -24 -37 -56.5t-41 -69t-43 -75.5t-43 -76q-9 -17 -14.5 -29.5t-8.5 -25t-4 -26t-1 -31.5v-151q0 -17 7 -29.5t24 -20.5q4 -2 15 -4
t23.5 -4.5t24.5 -4t19 -1.5v-7h-332v7z" />
    </font>
</defs>
</svg>
